<?xml version="1.0" encoding="UTF-8"?>
<svg id="Layer_2" data-name="Layer 2" xmlns="http://www.w3.org/2000/svg" viewBox="0 0 61.7 61.7">
  <defs>
    <style>
      .cls-1 {
        fill: #4ca580;
      }

      .cls-2 {
        fill: #231f20;
      }
    </style>
  </defs>
  <g id="Layer_1-2" data-name="Layer 1">
    <g>
      <path class="cls-2" d="M49.34,61.7H12.36c-6.81,0-12.36-5.54-12.36-12.36V12.36C0,5.54,5.54,0,12.36,0H49.34c6.81,0,12.36,5.54,12.36,12.36V49.35c0,6.81-5.54,12.36-12.36,12.36ZM12.36,1.37C6.3,1.37,1.37,6.3,1.37,12.36V49.35c0,6.06,4.93,10.98,10.98,10.98H49.34c6.06,0,10.98-4.93,10.98-10.98V12.36c0-6.06-4.93-10.98-10.98-10.98H12.36Z"/>
      <polygon class="cls-1" points="25.7 46.89 10.18 31.37 16.92 24.63 25.7 33.41 46.76 12.35 53.51 19.09 25.7 46.89"/>
    </g>
  </g>
</svg>