<svg xmlns="http://www.w3.org/2000/svg" viewBox="0 0 41.65 31.12"><defs><style>.cls-1{fill:#010101;}</style></defs><g id="Layer_2" data-name="Layer 2"><g id="Layer_1-2" data-name="Layer 1"><path class="cls-1" d="M41.37,1.21H27.73a.28.28,0,0,0-.28.28V14.86a.28.28,0,0,0,.28.28.29.29,0,0,0,.28-.28V1.78H41.09V3.54a.28.28,0,0,0,.28.29.29.29,0,0,0,.28-.29v-2A.29.29,0,0,0,41.37,1.21Z"/><path class="cls-1" d="M41.37,4.58a.27.27,0,0,0-.28.28v15H28V16.17a.28.28,0,0,0-.28-.28.27.27,0,0,0-.28.28v4a.28.28,0,0,0,.28.28H41.37a.29.29,0,0,0,.28-.28V4.86A.28.28,0,0,0,41.37,4.58Z"/><path class="cls-1" d="M28.66,7.06a2.18,2.18,0,1,0,2.18-2.17A2.19,2.19,0,0,0,28.66,7.06Zm2.18,1.62a1.61,1.61,0,0,1-.29-3.2V7.06a.29.29,0,0,0,.29.29h1.58A1.61,1.61,0,0,1,30.84,8.68Zm1.58-1.9h-1.3V5.48A1.59,1.59,0,0,1,32.42,6.78Z"/><path class="cls-1" d="M29.09,17.43a.29.29,0,0,0-.28.28v1.21a.29.29,0,0,0,.28.29h1.82a.28.28,0,0,0,.28-.29V17.71a.28.28,0,0,0-.28-.28Zm1.54,1.21H29.37V18h1.26Z"/><path class="cls-1" d="M32.12,19.21h1.82a.28.28,0,0,0,.28-.29v-3a.28.28,0,0,0-.28-.28H32.12a.29.29,0,0,0-.28.28v3A.29.29,0,0,0,32.12,19.21Zm.29-3h1.25v2.47H32.41Z"/><path class="cls-1" d="M35.16,13.34a.28.28,0,0,0-.29.28v5.3a.29.29,0,0,0,.29.29H37a.29.29,0,0,0,.29-.29v-5.3a.28.28,0,0,0-.29-.28Zm1.53,5.3H35.44V13.9h1.25Z"/><path class="cls-1" d="M40,13.38a.29.29,0,0,0,.28-.28v-1a.29.29,0,0,0-.28-.28H38.19a.28.28,0,0,0-.28.28v6.82a.28.28,0,0,0,.28.29H40a.29.29,0,0,0,.28-.29V14.41a.29.29,0,0,0-.57,0v4.23H38.47V12.39h1.25v.71A.29.29,0,0,0,40,13.38Z"/><path class="cls-1" d="M37.58,2.43H31.52a.27.27,0,0,0-.28.28V3.92a.28.28,0,0,0,.28.28h6.06a.28.28,0,0,0,.28-.28V2.71a.27.27,0,0,0-.28-.28ZM37.3,3.64H31.8V3h5.5v.65Z"/><path class="cls-1" d="M40.16,4.89H34.55a.28.28,0,1,0,0,.56h5.61a.28.28,0,1,0,0-.56Z"/><path class="cls-1" d="M40.16,6.15H34.55a.28.28,0,0,0-.28.28.27.27,0,0,0,.28.28h5.61a.28.28,0,0,0,.28-.28A.29.29,0,0,0,40.16,6.15Z"/><path class="cls-1" d="M40.44,7.7a.29.29,0,0,0-.28-.29H34.55a.29.29,0,0,0,0,.57h5.61A.29.29,0,0,0,40.44,7.7Z"/><path class="cls-1" d="M38.16,9a.27.27,0,0,0-.28-.28H34.55a.27.27,0,0,0-.28.28.28.28,0,0,0,.28.28h3.33A.28.28,0,0,0,38.16,9Z"/><path class="cls-1" d="M34.55,10.53H29.43a.29.29,0,0,0,0,.57h5.12a.29.29,0,0,0,0-.57Z"/><path class="cls-1" d="M34.83,12.08a.28.28,0,0,0-.28-.28H29.43a.28.28,0,0,0-.28.28.29.29,0,0,0,.28.28h5.12A.29.29,0,0,0,34.83,12.08Z"/><path class="cls-1" d="M32.56,13.34a.29.29,0,0,0-.28-.28H29.43a.29.29,0,0,0-.28.28.28.28,0,0,0,.28.28h2.85A.28.28,0,0,0,32.56,13.34Z"/><path class="cls-1" d="M15.72,10.71a.47.47,0,0,0,.46-.46V9.73a.47.47,0,0,0-.46-.46.46.46,0,0,0-.45.46v.52A.46.46,0,0,0,15.72,10.71Z"/><path class="cls-1" d="M10.85,9.27a.46.46,0,0,0-.46.46v.52a.46.46,0,1,0,.91,0V9.73A.46.46,0,0,0,10.85,9.27Z"/><path class="cls-1" d="M12.33,13.32a1.89,1.89,0,0,0,.95.24,1.93,1.93,0,0,0,1-.24.46.46,0,0,0-.46-.79,1.08,1.08,0,0,1-1,0,.46.46,0,0,0-.62.17.45.45,0,0,0,.16.62Z"/><path class="cls-1" d="M24.59,21.7h-.35c-.35-1.33-1.48-3.51-3.14-3.89l-4.6-1.08V15a8,8,0,0,0,2.56-3.13,2.38,2.38,0,0,0,2-1.07,2.1,2.1,0,0,0,.13-2.12,1.75,1.75,0,0,0-.84-.77,5,5,0,0,0,1.25-2,.46.46,0,1,0-.86-.3A3.37,3.37,0,0,1,19,7.71l-.3,0c-2-.13-5.74-.36-7.9-2a.44.44,0,0,0-.37-.08.45.45,0,0,0-.3.24C9.33,7.34,8.6,7.64,8,7.7V6c0-2.42.76-3.43,2.61-3.48a.47.47,0,0,0,.36-.2c.75-1.1,1.78-1,3.54-.68,1.58.27,3.52.6,5.39-.61A4.24,4.24,0,0,1,21,3.71a.44.44,0,0,0,.48.42.46.46,0,0,0,.43-.48A5.08,5.08,0,0,0,20.23.12a.45.45,0,0,0-.58,0c-1.66,1.24-3.36,1-5,.67s-3.2-.54-4.31.88C7.41,1.83,7.06,4.22,7.06,6v1.7a1.89,1.89,0,0,0-1.65,1,2.1,2.1,0,0,0,.13,2.12,2.38,2.38,0,0,0,2,1.07A8,8,0,0,0,10.07,15v1.73l-4.6,1.08c-1.66.38-2.79,2.56-3.14,3.89H2a2,2,0,0,0-2,2v5.47a2,2,0,0,0,2,2H24.59a2,2,0,0,0,2-2V23.67a2,2,0,0,0-2-2ZM19.51,9.92V8.63a1,1,0,0,1,.85.49,1.15,1.15,0,0,1-.1,1.18,1.38,1.38,0,0,1-.88.61A4.27,4.27,0,0,0,19.51,9.92Zm-13.2.38a1.15,1.15,0,0,1-.1-1.18,1,1,0,0,1,.85-.49V9.92a4.27,4.27,0,0,0,.13,1,1.36,1.36,0,0,1-.88-.61Zm11.05,7.57-1.62,2.05-1.6-.86,2-1.47Zm-4.08.69L11,16.86v-1.3a6.29,6.29,0,0,0,.7.32,4.7,4.7,0,0,0,1.6.31,4.71,4.71,0,0,0,1.61-.31,6.29,6.29,0,0,0,.7-.32v1.3Zm-5-7.21a.41.41,0,0,0-.08-.19A4,4,0,0,1,8,9.92V8.61a3.3,3.3,0,0,0,2.69-1.88c2.39,1.51,5.95,1.74,7.93,1.87V9.92a4,4,0,0,1-.22,1.24.41.41,0,0,0-.08.19A6.83,6.83,0,0,1,14.57,15,3.31,3.31,0,0,1,12,15a6.83,6.83,0,0,1-3.72-3.67Zm2.14,6.24,2,1.47-1.6.86L9.21,17.87ZM25.66,29.14a1.07,1.07,0,0,1-1.07,1.07H2A1.07,1.07,0,0,1,.91,29.14V23.67A1.07,1.07,0,0,1,2,22.61h10.3a.46.46,0,0,0,0-.91h-9c.36-1.12,1.28-2.75,2.4-3l2.55-.59,2.12,2.69a.46.46,0,0,0,.36.17.54.54,0,0,0,.21-.05l2.36-1.27,2.37,1.27a.54.54,0,0,0,.21.05.46.46,0,0,0,.36-.17l2.12-2.69,2.55.59c1.12.26,2,1.89,2.4,3h-8.9a.46.46,0,1,0,0,.91h10.2a1.07,1.07,0,0,1,1.07,1.06Z"/><path d="M2,26.44c0-1.18.46-1.91,1.19-1.91s1.07.57,1.1,1.36H3.79c0-.42-.28-.69-.59-.69s-.64.47-.64,1.24.25,1.24.65,1.24.53-.26.58-.66h.52c0,.79-.49,1.33-1.11,1.33S2,27.62,2,26.44Z"/><path d="M5.59,26.92c0,.46.19.76.53.76s.53-.3.53-.76v-2.3h.54V27c0,.81-.42,1.35-1.07,1.35S5.06,27.81,5.06,27V24.62h.53Z"/><path d="M8.46,27.25a.51.51,0,0,0,.54.48.45.45,0,0,0,.47-.47c0-.23-.13-.36-.44-.46l-.33-.1a1,1,0,0,1-.69-1c0-.68.38-1.13,1-1.13a1,1,0,0,1,1,1.09h-.5A.48.48,0,0,0,9,25.14a.43.43,0,0,0-.44.46c0,.22.12.35.42.44l.31.1a.93.93,0,0,1,.73,1c0,.73-.4,1.18-1,1.18a1,1,0,0,1-1-1.1Z"/><path d="M11.38,28.26v-3h-.76v-.65h2.05v.65h-.76v3Z"/><path d="M15.65,26.44c0,1.18-.47,1.91-1.22,1.91s-1.22-.73-1.22-1.91.47-1.91,1.22-1.91S15.65,25.26,15.65,26.44Zm-1.9,0c0,.76.26,1.24.68,1.24s.68-.48.68-1.24-.27-1.24-.68-1.24S13.75,25.68,13.75,26.44Z"/><path d="M18.61,28.26V25.83h0l-.64,2.23h-.35l-.65-2.23h0v2.43h-.49V24.62H17l.71,2.46h0l.7-2.46h.62v3.64Z"/><path d="M21.67,28.26H20V24.62h1.68v.65H20.52v.85H21.6v.6H20.52v.89h1.15Z"/><path d="M23,28.26h-.53V24.62h1.07c.55,0,.9.44.9,1.17a1.17,1.17,0,0,1-.46,1l.53,1.44h-.6l-.47-1.32H23Zm0-1.91h.47c.27,0,.42-.2.42-.55s-.16-.56-.43-.56H23Z"/></g></g></svg>