<?xml version="1.0" encoding="UTF-8"?>
<svg id="Layer_2" data-name="Layer 2" xmlns="http://www.w3.org/2000/svg" viewBox="0 0 87.22 87.22">
  <g id="Layer_1-2" data-name="Layer 1">
    <g>
      <path d="M71.63,74.4c8.6,0,15.59-6.99,15.59-15.59,0-5.75-3.15-10.98-8.14-13.7,.12-.77,.18-1.55,.18-2.33,0-8.11-6.6-14.7-14.7-14.7-1.55,0-3.05,.24-4.45,.69,.02-.46,.03-.92,.03-1.38,0-5.6-1.5-11.1-4.33-15.9-2.75-4.66-6.67-8.55-11.35-11.26-.53-.31-1.18-.31-1.71,0-4.68,2.71-8.61,6.6-11.35,11.26-2.83,4.8-4.33,10.3-4.33,15.9,0,.23,0,.47,.01,.7-1.45-.29-2.93-.43-4.42-.43-4.67,0-9.16,1.41-12.97,4.08-3.73,2.6-6.56,6.22-8.19,10.44-.34,.88,.1,1.86,.98,2.2,.2,.08,.41,.11,.61,.11,.68,0,1.33-.41,1.59-1.09,2.84-7.38,10.07-12.34,17.98-12.34,1.59,0,3.17,.2,4.7,.58,.56,4.11,1.93,8.07,4.04,11.65,2.52,4.27,6.03,7.9,10.2,10.56-1.57,8.49-8.67,14.9-17.23,15.66v-6.5l7.77-7.77c.67-.67,.67-1.74,0-2.41s-1.74-.67-2.41,0l-5.36,5.36v-12.68c0-.94-.76-1.7-1.7-1.7s-1.7,.76-1.7,1.7v5.33l-3.32-3.32c-.67-.67-1.74-.67-2.41,0s-.67,1.74,0,2.41l5.73,5.73v13.84c-7.23-.65-13.64-5.41-16.27-12.26-.34-.88-1.32-1.31-2.2-.98-.88,.34-1.32,1.32-.98,2.2,1.63,4.23,4.46,7.84,8.19,10.44,3.35,2.34,7.21,3.71,11.27,4.01v10.88H1.7C.76,83.81,0,84.57,0,85.51s.76,1.7,1.7,1.7H85.51c.94,0,1.7-.76,1.7-1.7s-.76-1.7-1.7-1.7h-20.34v-10.8c2.01,.92,4.2,1.4,6.46,1.4Zm4.23-31.62c0,.97-.12,1.93-.36,2.85-.21,.81,.2,1.66,.97,1.99,4.46,1.93,7.35,6.32,7.35,11.18,0,6.72-5.46,12.18-12.18,12.18-2.31,0-4.52-.64-6.46-1.85v-9.99l6.7-6.7c.67-.67,.67-1.74,0-2.41-.67-.67-1.74-.67-2.41,0l-4.3,4.3v-3.68c0-.94-.76-1.7-1.7-1.7s-1.7,.76-1.7,1.7v10.19l-3.87-3.87c-.67-.67-1.74-.67-2.41,0s-.67,1.74,0,2.41l6.28,6.28v3.53c-1.74,1.19-3.77,1.81-5.9,1.81-5.82,0-10.55-4.73-10.55-10.55,0-4.86,3.29-9.07,8.01-10.24,.5-.12,.92-.47,1.14-.94s.21-1.01-.02-1.47c-.78-1.57-1.17-3.25-1.17-5.01,0-6.23,5.07-11.29,11.29-11.29s11.3,5.07,11.3,11.29h0ZM30.48,27.39c0-9.62,5-18.61,13.12-23.7,8.12,5.09,13.12,14.08,13.12,23.7,0,1.02-.06,2.05-.17,3.07-4.03,2.62-6.71,7.17-6.71,12.33,0,.91,.08,1.8,.24,2.68-1.42,1.68-3.03,3.18-4.79,4.47V30.1l5.24-5.24c.67-.67,.67-1.74,0-2.41-.67-.67-1.74-.67-2.41,0l-2.83,2.83v-7.23c0-.94-.76-1.7-1.7-1.7s-1.7,.76-1.7,1.7v15.21l-4.22-4.22c-.67-.67-1.74-.67-2.41,0s-.67,1.74,0,2.41l6.63,6.63v11.85c-7.11-5.23-11.42-13.61-11.42-22.54h0Zm-6.11,45.54c7.33-.55,13.79-4.63,17.53-10.62v21.5H24.37v-10.88Zm20.94,10.88v-14.24c2.56,2.96,6.34,4.84,10.55,4.84,2.08,0,4.07-.45,5.9-1.3v10.71h-16.45Z"/>
      <path d="M77.05,20.33c5.6,0,10.16-4.56,10.16-10.16S82.66,0,77.05,0s-10.16,4.56-10.16,10.16,4.56,10.16,10.16,10.16Zm0-16.92c3.73,0,6.76,3.03,6.76,6.76s-3.03,6.76-6.76,6.76-6.76-3.03-6.76-6.76c0-3.73,3.03-6.76,6.76-6.76Z"/>
      <path d="M1.7,52.03c.45,0,.89-.18,1.2-.5,.32-.32,.5-.76,.5-1.2s-.18-.89-.5-1.21c-.32-.32-.76-.5-1.2-.5s-.89,.18-1.2,.5-.5,.76-.5,1.21,.18,.89,.5,1.2c.32,.32,.76,.5,1.2,.5Z"/>
    </g>
  </g>
</svg>