<?xml version="1.0" encoding="UTF-8"?>
<svg id="Layer_2" data-name="Layer 2" xmlns="http://www.w3.org/2000/svg" viewBox="0 0 95.74 89.35">
  <g id="Layer_1-2" data-name="Layer 1">
    <g id="healthcare_medical_protection" data-name="healthcare, medical, protection">
      <g>
        <g>
          <path d="M73.39,65.44c-.33,0-.67-.11-.96-.32-.71-.53-.85-1.53-.32-2.23,3.97-5.28,6.07-11.58,6.07-18.21,0-2.08-.21-4.16-.64-6.19-.18-.86,.38-1.71,1.24-1.89,.86-.18,1.71,.38,1.89,1.24,.47,2.24,.7,4.54,.7,6.84,0,7.32-2.32,14.29-6.71,20.13-.32,.42-.79,.64-1.28,.64h0Z"/>
          <path d="M16.65,52.92c-.74,0-1.4-.52-1.56-1.27-.48-2.29-.72-4.64-.72-6.98,0-7.29,2.3-14.23,6.66-20.05,.53-.71,1.53-.86,2.23-.32,.71,.53,.85,1.53,.32,2.23-3.94,5.27-6.02,11.54-6.02,18.14,0,2.12,.22,4.25,.66,6.32,.18,.86-.37,1.71-1.23,1.89-.11,.03-.22,.04-.33,.04h0Z"/>
          <path d="M52.66,60.63h-9.57c-.88,0-1.6-.71-1.6-1.6v-7.98h-7.98c-.88,0-1.6-.71-1.6-1.6v-9.57c0-.88,.71-1.6,1.6-1.6h7.98v-7.98c0-.88,.71-1.6,1.6-1.6h9.57c.88,0,1.6,.71,1.6,1.6v7.98h7.98c.88,0,1.6,.71,1.6,1.6v9.57c0,.88-.71,1.6-1.6,1.6h-7.98v7.98c0,.88-.71,1.6-1.6,1.6Zm-7.98-3.19h6.38v-7.98c0-.88,.71-1.6,1.6-1.6h7.98v-6.38h-7.98c-.88,0-1.6-.71-1.6-1.6v-7.98h-6.38v7.98c0,.88-.71,1.6-1.6,1.6h-7.98v6.38h7.98c.88,0,1.6,.71,1.6,1.6v7.98Z"/>
          <g>
            <path d="M54.7,89.35h-16.73c-3.12,0-6.16-.7-9.05-2.07l-11.18-5.43c-2.87-1.38-5.92-2.07-9.06-2.07H1.6C.71,79.78,0,79.07,0,78.19s.71-1.6,1.6-1.6h7.09c3.63,0,7.14,.8,10.45,2.39l11.18,5.43c2.44,1.16,5.03,1.75,7.67,1.75h16.41l13.94-5.75c0-.13,.19-1.37-.42-2.42-.94-1.61-3.1-1.66-4.73-1.42-2.38,.37-4.34,1.03-6.08,1.61l-.66,.22c-.84,.27-1.74-.17-2.02-1.01-.28-.84,.18-1.74,1.01-2.02l.64-.21c1.86-.63,3.96-1.33,6.62-1.74,6.58-.96,8.22,3.15,8.58,4.43,.58,2.11,.1,4.75-1.72,5.51l-14.24,5.88c-.19,.07-.4,.11-.61,.11Z"/>
            <path d="M33.94,66.62c-.6,0-1.18-.34-1.45-.92-3.13-6.73-11.25-7.69-17.29-5.19-.19,.08-.4,.12-.61,.12H1.6c-.88,0-1.6-.71-1.6-1.6s.71-1.6,1.6-1.6H14.27c8.64-3.43,17.67-.49,21.11,6.92,.37,.8,.03,1.75-.78,2.12-.22,.1-.45,.14-.67,.14h0Z"/>
            <path d="M49.06,81.77c-.21,0-.41-.04-.61-.12l-18.27-7.59c-.81-.34-1.2-1.27-.86-2.09,.34-.81,1.27-1.2,2.09-.86l16.67,6.92c.7-3.29-1.1-5.85-5.38-7.62l-9.39-3.9c-.81-.34-1.2-1.27-.86-2.09s1.27-1.2,2.09-.86l9.39,3.9c6.58,2.73,8.99,7.58,6.62,13.31-.16,.39-.47,.71-.86,.86-.19,.09-.4,.13-.61,.13h0Z"/>
          </g>
          <g>
            <path d="M31.18,16.08c-5.02,0-6.39-3.43-6.71-4.58-.58-2.11-.1-4.75,1.72-5.51L40.43,.12c.19-.08,.4-.12,.61-.12h16.72c3.12,0,6.16,.7,9.05,2.07l11.18,5.43c2.87,1.38,5.92,2.07,9.07,2.07h7.09c.88,0,1.6,.71,1.6,1.6s-.71,1.6-1.6,1.6h-7.09c-3.63,0-7.14-.8-10.45-2.39l-11.18-5.43c-2.44-1.16-5.03-1.76-7.67-1.76h-16.41l-13.94,5.75c0,.13-.19,1.37,.42,2.42,.94,1.61,3.09,1.66,4.73,1.42,2.38-.37,4.34-1.03,6.08-1.61l.66-.22c.84-.27,1.74,.17,2.02,1.01,.28,.84-.18,1.74-1.01,2.02l-.64,.21c-1.86,.63-3.96,1.33-6.62,1.74-.67,.1-1.29,.15-1.86,.15Z"/>
            <path d="M74.23,33.33c-6.03,0-11.4-3.01-13.88-8.34-.37-.8-.03-1.75,.78-2.12,.8-.37,1.75-.02,2.12,.78,3.12,6.73,11.25,7.69,17.29,5.19,.19-.08,.4-.12,.61-.12h12.99c.88,0,1.6,.71,1.6,1.6s-.71,1.6-1.6,1.6h-12.68c-2.43,.96-4.88,1.42-7.24,1.42h0Z"/>
            <path d="M61.82,25.91c-.2,0-.41-.04-.61-.12l-9.39-3.9c-6.58-2.73-8.99-7.58-6.62-13.31,.16-.39,.47-.71,.86-.86s.83-.16,1.22,0l18.27,7.59c.81,.34,1.2,1.27,.86,2.09s-1.27,1.2-2.09,.86l-16.67-6.92c-.7,3.29,1.1,5.85,5.38,7.62l9.39,3.9c.81,.34,1.2,1.27,.86,2.09-.26,.61-.85,.98-1.48,.98h0Z"/>
          </g>
        </g>
        <path d="M68.66,70.32c-.41,0-.82-.16-1.13-.47-.62-.62-.62-1.63,0-2.26,.63-.62,1.75-.73,2.37-.11s.73,1.52,.11,2.14l-.22,.22c-.31,.31-.72,.47-1.13,.47Z"/>
        <path d="M27.17,22.45c-.41,0-.82-.16-1.14-.48-.62-.63-.61-1.64,.02-2.26l.23-.22c.63-.62,1.64-.61,2.26,.02,.62,.63,.61,1.64-.02,2.26l-.23,.22c-.31,.31-.71,.46-1.12,.46Z"/>
      </g>
    </g>
  </g>
</svg>