<?xml version="1.0" encoding="UTF-8"?>
<svg xmlns="http://www.w3.org/2000/svg" viewBox="0 0 159.11 159.05">
  <defs>
    <style>
      .cls-1 {
        isolation: isolate;
      }

      .cls-2 {
        stroke-width: 1.44px;
      }

      .cls-2, .cls-3, .cls-4, .cls-5 {
        stroke-miterlimit: 10;
      }

      .cls-2, .cls-4 {
        fill: none;
        stroke: #000;
      }

      .cls-3 {
        stroke-width: 1.46px;
      }

      .cls-3, .cls-5 {
        stroke: #fff;
      }

      .cls-4 {
        stroke-width: 1.87px;
      }

      .cls-6 {
        mix-blend-mode: multiply;
      }

      .cls-5 {
        stroke-width: .47px;
      }

      .cls-5, .cls-7 {
        fill: #010101;
      }
    </style>
  </defs>
  <g class="cls-1">
    <g id="Layer_2" data-name="Layer 2">
      <g id="Layer_1-2" data-name="Layer 1">
        <g class="cls-6">
          <path class="cls-3" d="M58.76,110.48h-7.19l-4.05-1.35v-5.58l7.18-10.76c.37-.56,.42-1.27,.12-1.87-.3-.6-.89-1-1.56-1.04s-1.31,.27-1.68,.83l-7.22,10.82-5.11,2.56-.96-2.89,5.34-12.45c.22-.51,.2-1.08-.05-1.58l-3.75-7.49c-.3-.6-.89-.99-1.56-1.03-.67-.04-1.31,.28-1.68,.84s-.41,1.27-.11,1.87l3.36,6.71-5.06,11.8-4.34,2.89-8.09-3.24-5.9-5.89,6.17-6.17c.48-.48,.66-1.17,.48-1.82-.18-.65-.7-1.15-1.35-1.32l-6.07-1.52v-6.03c0-1.03-.84-1.87-1.87-1.87s-1.87,.84-1.87,1.87v7.49c0,.86,.59,1.61,1.42,1.82l4.28,1.07-5.15,5.15c-.73,.73-.73,1.92,0,2.65l7.22,7.22,2.96,7.41-5.55,2.78h-7.05c-1.03,0-1.87,.84-1.87,1.87,0,1.03,.84,1.87,1.87,1.87h6.72l4.36,4.36-1.56,7.82-5.22,5.22c-.5,.5-.68,1.24-.45,1.92l1.87,5.62c.21,.64,.75,1.11,1.4,1.24,.66,.13,1.33-.09,1.78-.59,.45-.5,.59-1.2,.38-1.84l-1.5-4.52,4.49-4.49,9.46-3.15,2.62,3.96v12.55c0,.5,.2,.97,.55,1.32l5.62,5.62c.73,.71,1.9,.7,2.63-.02,.72-.72,.73-1.89,.02-2.63l-5.07-5.07v-11.77l2.7-4.05,5.71,1.43,8.99,8.99c.73,.71,1.9,.7,2.63-.02s.73-1.89,.02-2.62l-9.15-9.15-3-5.99,5.99-5.99h6.71c1.03,0,1.87-.84,1.87-1.87s-.84-1.87-1.87-1.87Zm-16.31,8.04c-.57,.57-.71,1.44-.35,2.16l1.92,3.84-3.54-.88c-.77-.19-1.57,.12-2.01,.78l-2.19,3.29-2.19-3.28c-.35-.52-.93-.84-1.56-.84-.2,0-.4,.03-.59,.1l-8.18,2.72,1.24-6.2c.12-.61-.07-1.24-.51-1.69l-3.78-3.78,5.17-2.58c.87-.43,1.27-1.47,.9-2.37l-2.11-5.31,5.31,2.12c.57,.23,1.22,.16,1.73-.19l3.58-2.39,1.1,3.29c.17,.52,.56,.93,1.06,1.14s1.07,.19,1.56-.06l4.76-2.39v4.46c0,.81,.52,1.52,1.28,1.78l2.74,.91-5.35,5.35Z"/>
          <path class="cls-4" d="M121.91,135.12c0,5.08-4.11,9.19-9.19,9.19h-40.72c-5.08,0-9.19-4.11-9.19-9.19V31.01c0-5.08,4.11-9.19,9.19-9.19h40.72c5.08,0,9.19,4.11,9.19,9.19v20.19"/>
          <g id="Engineering">
            <path class="cls-5" d="M157.66,100.92c.67,0,1.22-.55,1.22-1.22v-9.76c0-.67-.55-1.22-1.22-1.22h-6.75c-.74-3.5-2.12-6.83-4.07-9.83l4.77-4.78c.48-.48,.48-1.25,0-1.72l-6.89-6.89c-.48-.48-1.25-.48-1.72,0l-4.78,4.77c-3-1.95-6.33-3.33-9.83-4.07v-6.75c0-.67-.55-1.22-1.22-1.22h-9.76c-.67,0-1.22,.55-1.22,1.22v6.75c-3.5,.74-6.83,2.12-9.83,4.07l-4.78-4.77c-.48-.48-1.25-.48-1.72,0l-6.89,6.89c-.48,.48-.48,1.25,0,1.72l4.77,4.78c-1.95,3-3.33,6.33-4.07,9.83h-6.75c-.67,0-1.22,.55-1.22,1.22v9.76c0,.67,.55,1.22,1.22,1.22h6.75c.74,3.5,2.12,6.83,4.07,9.83l-4.77,4.78c-.48,.48-.48,1.25,0,1.72l6.89,6.89c.48,.48,1.25,.48,1.72,0l4.78-4.77c3,1.95,6.33,3.33,9.83,4.07v6.75c0,.67,.55,1.22,1.22,1.22h9.76c.67,0,1.22-.55,1.22-1.22v-6.75c3.5-.74,6.83-2.13,9.82-4.08l9.95,9.95c2.39,2.37,6.25,2.35,8.62-.04,2.36-2.38,2.36-6.21,0-8.59l-9.95-9.95c1.95-3,3.33-6.33,4.08-9.82h6.75Zm-2.6,26.68c-1.43,1.43-3.75,1.43-5.18,0h0s-23.36-23.36-23.36-23.36c-1.15-1.14-2.7-1.78-4.32-1.78-.25,0-.51,.01-.76,.05-5.35,.64-10.2-3.17-10.84-8.52-.15-1.23-.06-2.48,.26-3.69l5.38,5.38c.23,.23,.54,.36,.86,.36h5.18c.67,0,1.22-.55,1.22-1.22v-5.18c0-.32-.13-.63-.36-.86l-5.38-5.38c5.2-1.39,10.55,1.7,11.94,6.9,.32,1.2,.41,2.45,.26,3.68-.24,1.87,.4,3.75,1.73,5.08l23.36,23.36c1.43,1.43,1.43,3.75,0,5.18h0Zm-21.63-30.25c-.8-.81-1.18-1.94-1.03-3.07,.81-6.68-3.96-12.75-10.64-13.56-2.3-.28-4.63,.11-6.72,1.11-.61,.29-.86,1.02-.57,1.63,.06,.12,.14,.24,.24,.34l6.36,6.36v3.45h-3.45l-6.36-6.36c-.48-.48-1.25-.48-1.73,0-.1,.1-.18,.21-.24,.34-2.91,6.07-.34,13.35,5.73,16.26,2.09,1,4.42,1.38,6.72,1.11,1.13-.15,2.26,.23,3.07,1.03l6.27,6.27c-9.63,4.86-21.37,1-26.24-8.62-4.86-9.63-1-21.37,8.62-26.24,9.63-4.86,21.37-1,26.24,8.62,2.8,5.54,2.8,12.07,0,17.61l-6.27-6.27Zm15.27,2.15c-.59,3.37-1.82,6.59-3.63,9.49l-3.57-3.57c5.87-10.63,2-24-8.62-29.87-10.63-5.87-24-2-29.87,8.62-5.87,10.63-2,24,8.62,29.87,6.61,3.65,14.63,3.65,21.24,0l3.57,3.57c-2.9,1.81-6.12,3.04-9.49,3.63-.58,.1-1.01,.6-1.01,1.2v6.54h-7.32v-6.54c0-.59-.43-1.1-1.01-1.2-3.85-.67-7.5-2.19-10.7-4.43-.48-.34-1.14-.28-1.56,.14l-4.63,4.62-5.17-5.17,4.62-4.63c.42-.42,.48-1.08,.14-1.56-2.25-3.2-3.76-6.85-4.43-10.7-.1-.59-.61-1.02-1.21-1.01h-6.54v-7.32h6.54c.59,0,1.1-.43,1.2-1.01,.67-3.85,2.19-7.5,4.43-10.7,.34-.48,.28-1.14-.14-1.56l-4.62-4.63,5.17-5.17,4.63,4.62c.42,.42,1.08,.48,1.56,.14,3.2-2.25,6.85-3.76,10.7-4.43,.59-.1,1.02-.61,1.01-1.21v-6.54h7.32v6.54c0,.59,.43,1.1,1.01,1.2,3.85,.67,7.5,2.19,10.7,4.43,.48,.34,1.14,.28,1.56-.14l4.63-4.62,5.17,5.17-4.62,4.63c-.42,.42-.48,1.08-.14,1.56,2.25,3.2,3.76,6.85,4.43,10.7,.1,.59,.61,1.01,1.2,1.01h6.54v7.32h-6.54c-.59,0-1.1,.43-1.2,1.01h0Z"/>
            <path class="cls-7" d="M130.05,100.86c-.47-.48-1.24-.5-1.72-.03-.48,.47-.5,1.24-.03,1.72,0,.01,.02,.02,.03,.03l.86,.86c.48,.47,1.26,.45,1.72-.03,.46-.47,.46-1.22,0-1.69l-.86-.86Z"/>
            <path class="cls-5" d="M147.3,121.56c.48,.47,1.26,.45,1.72-.03,.46-.47,.46-1.22,0-1.69l-14.66-14.66c-.48-.48-1.25-.48-1.73,0s-.48,1.25,0,1.73l14.66,14.66Z"/>
            <path class="cls-7" d="M151.61,125.87c.48,.47,1.26,.45,1.72-.03,.46-.47,.46-1.22,0-1.69l-.86-.86c-.48-.48-1.25-.48-1.73,0s-.48,1.25,0,1.73l.86,.86Z"/>
          </g>
          <g>
            <path class="cls-4" d="M103.05,145.29v2.6c0,5.65-4.58,10.22-10.22,10.22H11.16c-5.65,0-10.22-4.58-10.22-10.22V11.16C.94,5.51,5.51,.94,11.16,.94H92.83c5.65,0,10.22,4.58,10.22,10.22v10.75"/>
            <polyline class="cls-2" points="95.3 144.28 95.3 150.8 8.59 150.8 8.59 8.11 95.3 8.11 95.3 21.16"/>
          </g>
        </g>
      </g>
    </g>
  </g>
</svg>