<?xml version="1.0" encoding="UTF-8"?>
<svg xmlns="http://www.w3.org/2000/svg" viewBox="0 0 38.8 35.96">
  <defs>
    <style>
      .cls-1 {
        isolation: isolate;
      }

      .cls-2 {
        mix-blend-mode: multiply;
      }
    </style>
  </defs>
  <g class="cls-1">
    <g id="Layer_2" data-name="Layer 2">
      <g id="Layer_1-2" data-name="Layer 1">
        <g>
          <g class="cls-2">
            <path d="M27.52,29.24v3.63c0,1.7-1.38,3.08-3.08,3.08H3.08c-1.7,0-3.08-1.38-3.08-3.08V7.04c0-.29,.24-.53,.53-.53s.53,.23,.53,.53v25.83c0,1.12,.91,2.03,2.03,2.03H24.43c1.12,0,2.03-.91,2.03-2.03v-3.63h1.05Z"/>
            <path d="M13.76,31.15c-.88,0-1.6,.72-1.6,1.6s.72,1.6,1.6,1.6,1.6-.72,1.6-1.6-.72-1.6-1.6-1.6Zm0,2.16c-.3,0-.55-.25-.55-.55s.25-.55,.55-.55,.55,.25,.55,.55-.25,.55-.55,.55Z"/>
            <path d="M16.03,2.94c.29,0,.53-.24,.53-.53s-.24-.53-.53-.53h-2.4c-.29,0-.53,.24-.53,.53s.24,.53,.53,.53h2.4Z"/>
            <circle cx="11.62" cy="2.41" r=".53"/>
          </g>
          <g class="cls-2">
            <path d="M30.35,26.28v.96c0,.72-.59,1.31-1.31,1.31h-8.7c-.73,0-1.32-.59-1.32-1.31V10.5c0-.19-.15-.34-.34-.34s-.34,.15-.34,.34V27.24c0,1.1,.9,2,2,2h4.03v.57H10.47c-.01-.08-.05-.16-.11-.22l-1.12-1.12v-2.61l.6-.9,1.27,.32,1.99,1.99c.16,.16,.42,.16,.58,0,.16-.16,.16-.42,0-.58l-2.03-2.03-.66-1.33,1.33-1.33h1.49c.23,0,.41-.19,.41-.41s-.19-.41-.41-.41h-1.59l-.9-.3v-1.24l1.59-2.39c.08-.12,.09-.28,.03-.41-.07-.13-.2-.22-.35-.23-.15-.01-.29,.06-.37,.18l-1.6,2.4-1.13,.57-.21-.64,1.18-2.76c.05-.11,.04-.24-.01-.35l-.83-1.66c-.07-.13-.2-.22-.35-.23-.15-.01-.29,.06-.37,.19-.08,.12-.09,.28-.02,.41l.74,1.49-1.12,2.62-.96,.64-1.79-.72-1.31-1.31,1.37-1.37c.11-.11,.15-.26,.11-.4-.04-.14-.16-.26-.3-.29l-1.35-.34v-1.34c0-.23-.19-.41-.42-.41s-.41,.19-.41,.41v1.66c0,.19,.13,.36,.31,.4l.95,.24-1.14,1.14c-.16,.16-.16,.42,0,.59l1.6,1.6,.66,1.64-1.23,.62h-1.56c-.23,0-.42,.19-.42,.41s.19,.42,.42,.42h1.49l.97,.97-.35,1.73-1.16,1.16c-.11,.11-.15,.28-.1,.42l.42,1.25c.04,.14,.17,.24,.31,.28,.14,.03,.3-.02,.39-.13,.1-.11,.13-.27,.08-.41l-.33-1,.99-1,2.1-.7,.58,.88v2.78c0,.11,.04,.22,.12,.29l.88,.88H3.15v-3.49c0-.29-.24-.53-.53-.53s-.53,.23-.53,.53v4.02c0,.29,.23,.53,.53,.53H24.89c.29,0,.53-.24,.53-.53v-1.09h3.62c1.1,0,2-.9,2-2v-.96h-.68Zm-22.02-2.02c-.08-.12-.21-.19-.34-.19-.04,0-.09,0-.13,.02l-1.81,.6,.28-1.38c.03-.13-.02-.28-.11-.37l-.84-.84,1.15-.57c.19-.1,.28-.33,.2-.53l-.47-1.18,1.18,.47c.13,.05,.27,.03,.38-.04l.79-.53,.24,.73c.04,.12,.12,.21,.24,.26,.11,.04,.24,.04,.34-.01l1.06-.53v.99c0,.18,.11,.34,.28,.39l.61,.2-1.19,1.19c-.13,.13-.16,.32-.08,.48l.43,.85-.78-.2c-.17-.04-.35,.03-.45,.17l-.48,.73-.49-.73Z"/>
          </g>
          <g id="Engineering" class="cls-2">
            <path d="M38.53,19.19c.15,0,.28-.12,.28-.28v-2.22c0-.15-.12-.28-.28-.28h-1.53c-.17-.79-.48-1.55-.92-2.23l1.08-1.09c.11-.11,.11-.28,0-.39l-1.57-1.57c-.11-.11-.28-.11-.39,0l-1.09,1.08c-.68-.44-1.44-.76-2.23-.92v-1.53c0-.15-.12-.28-.28-.28h-2.22c-.15,0-.28,.12-.28,.28v1.53c-.55,.12-1.08,.3-1.59,.56-.22,.11-.44,.23-.65,.37l-.4-.4-.68-.68c-.1-.1-.26-.11-.37-.02-.01,0-.02,.01-.03,.02l-1.02,1.02-.55,.55c-.11,.11-.11,.28,0,.39l.7,.7,.39,.39c-.21,.32-.39,.67-.54,1.02-.17,.39-.29,.8-.38,1.21h-1.53c-.15,0-.28,.12-.28,.28v2.22c0,.15,.12,.28,.28,.28h1.53c.09,.42,.21,.82,.38,1.21,.15,.36,.33,.7,.54,1.02l-1.08,1.08c-.11,.11-.11,.28,0,.39l.54,.54,1.02,1.03s.02,.02,.03,.02c.11,.09,.26,.08,.36-.02l.68-.68,.4-.4c.21,.14,.43,.26,.65,.37,.5,.25,1.03,.44,1.59,.56v1.53c0,.15,.12,.28,.28,.28h2.22c.15,0,.28-.12,.28-.28v-1.53c.79-.17,1.55-.48,2.23-.93l2.26,2.26c.54,.54,1.42,.53,1.96,0,.53-.54,.53-1.41,0-1.95l-2.26-2.26c.44-.68,.76-1.44,.92-2.23h1.53Zm-.59,4.89c.32,.32,.32,.85,0,1.18-.33,.32-.85,.32-1.18,0l-5.31-5.31c-.21-.21-.47-.34-.76-.39-.07-.01-.15-.02-.22-.02-.06,0-.12,0-.17,.01-1.21,.15-2.32-.72-2.46-1.93-.03-.28-.01-.56,.06-.84l1.22,1.22c.05,.05,.12,.08,.2,.08h1.18c.08,0,.15-.03,.2-.09,.04-.05,.07-.11,.07-.19v-1.18c0-.07-.02-.13-.07-.19,0,0,0,0,0-.01l-1.22-1.22c.42-.11,.84-.1,1.23,.03,.7,.22,1.28,.78,1.48,1.54,.07,.27,.09,.56,.06,.83-.05,.42,.09,.85,.39,1.16l5.31,5.31Zm-7.24-9.42c-.11-.03-.21-.04-.32-.06-.52-.06-1.05,.02-1.53,.25-.14,.07-.2,.23-.13,.37,.01,.03,.03,.05,.05,.08l1.45,1.45v.79h-.78l-1.45-1.45c-.11-.11-.28-.11-.39,0-.02,.02-.04,.05-.05,.08,0,.01-.01,.03-.02,.04-.35,.76-.33,1.6,0,2.31,.26,.57,.71,1.05,1.32,1.34,.47,.23,1,.31,1.52,.25,.11-.01,.22,0,.33,.02,.14,.03,.26,.11,.37,.21l1.43,1.43c-.58,.29-1.19,.44-1.79,.47-1.16,.05-2.31-.35-3.18-1.13-.4-.36-.74-.79-.99-1.3-.02-.04-.04-.09-.06-.13-.58-1.23-.54-2.59,0-3.74,.25-.53,.6-1.02,1.05-1.43,.29-.26,.61-.48,.97-.66,.71-.36,1.47-.51,2.21-.47,1.55,.07,3.01,.95,3.75,2.43,.63,1.26,.63,2.74,0,4l-1.43-1.42c-.18-.18-.27-.44-.23-.7,.17-1.41-.75-2.7-2.09-3.02Zm5.8,4.21c-.13,.77-.41,1.5-.82,2.16l-.81-.81c1.33-2.42,.46-5.45-1.96-6.79-.7-.39-1.45-.59-2.2-.62-1.13-.05-2.26,.29-3.18,.97-.4,.29-.75,.64-1.05,1.05-.13,.18-.25,.36-.36,.56-.97,1.76-.77,3.86,.36,5.38,.29,.4,.64,.75,1.05,1.05,.17,.13,.36,.25,.55,.35,.81,.45,1.72,.66,2.62,.62,.76-.03,1.51-.24,2.2-.62l.81,.81c-.66,.41-1.39,.69-2.16,.82-.13,.02-.23,.14-.23,.27v1.49h-1.66v-1.49c0-.13-.1-.25-.23-.27-.67-.12-1.32-.35-1.91-.68-.18-.1-.35-.21-.52-.33-.11-.08-.26-.07-.36,.03l-.18,.18-.88,.87-.17-.17-1-1.01,1-1.01,.04-.04c.1-.09,.11-.24,.03-.36-.03-.04-.05-.07-.08-.11-.47-.7-.79-1.49-.93-2.32-.01-.08-.06-.14-.12-.18-.04-.03-.1-.05-.15-.05h-1.49v-1.66h1.49c.06,0,.11-.02,.15-.05,.06-.04,.11-.11,.12-.18,.14-.83,.46-1.62,.93-2.32,.02-.04,.05-.07,.07-.11,.08-.11,.07-.26-.03-.36l-1.05-1.05,.33-.33h0l.67-.67,.17-.17,.88,.87,.18,.18c.09,.09,.24,.11,.36,.03,.17-.12,.34-.23,.52-.33,.59-.33,1.24-.56,1.91-.68,.13-.02,.23-.14,.23-.27v-1.49h1.66v1.49c0,.13,.1,.25,.23,.27,.87,.15,1.7,.5,2.43,1.01,.11,.08,.26,.07,.36-.03l1.05-1.05,1.18,1.18-1.05,1.05c-.1,.09-.11,.24-.03,.36,.51,.73,.85,1.56,1.01,2.43,.02,.13,.14,.23,.27,.23h1.49v1.66h-1.49c-.13,0-.25,.1-.27,.23Z"/>
            <path d="M32.45,19.76c-.11,.11-.28,.11-.39,0l-.2-.2s0,0,0,0c-.11-.11-.1-.29,0-.39,.11-.11,.29-.1,.39,0l.2,.2c.1,.11,.1,.28,0,.38Z"/>
            <path d="M36.56,23.87c-.11,.11-.28,.11-.39,0l-3.33-3.33c-.11-.11-.11-.28,0-.39,.11-.11,.28-.11,.39,0l3.33,3.33c.1,.11,.1,.28,0,.39Z"/>
            <path d="M37.55,24.85c-.11,.11-.28,.11-.39,0l-.2-.2c-.11-.11-.11-.28,0-.39,.11-.11,.28-.11,.39,0l.2,.2c.1,.11,.1,.28,0,.39Z"/>
          </g>
          <path d="M26.05,7.49c0,.19-.15,.34-.34,.34h-1.56c-.19,0-.34-.15-.34-.34s.15-.34,.34-.34h1.56c.19,0,.34,.15,.34,.34Z"/>
          <path d="M31.03,7.93v1.37h-.68v-1.37c0-.72-.59-1.31-1.31-1.31h-8.7c-.73,0-1.32,.59-1.32,1.31v1.2c0,.19-.15,.34-.34,.34s-.34-.15-.34-.34v-1.2c0-1.1,.9-2,2-2h4.03v-1.09H3.15V21.58h-.14c-.23,0-.42,.19-.42,.41s.19,.42,.42,.42h.14v1.8c0,.29-.24,.53-.53,.53s-.53-.24-.53-.53V4.31c0-.29,.23-.53,.53-.53H24.89c.29,0,.53,.23,.53,.53v1.61h1.05V3.08c0-1.12-.91-2.03-2.03-2.03H3.08C1.96,1.05,1.05,1.96,1.05,3.08v1.86c0,.29-.23,.53-.53,.53s-.53-.24-.53-.53v-1.86C0,1.38,1.38,0,3.08,0H24.43c1.7,0,3.08,1.38,3.08,3.08v2.85h1.52c1.1,0,2,.9,2,2Z"/>
        </g>
      </g>
    </g>
  </g>
</svg>