<?xml version="1.0" encoding="UTF-8"?>
<svg id="Layer_2" data-name="Layer 2" xmlns="http://www.w3.org/2000/svg" viewBox="0 0 161.47 159.63">
  <defs>
    <style>
      .cls-1 {
        stroke-width: 1.44px;
      }

      .cls-1, .cls-2, .cls-3, .cls-4, .cls-5 {
        stroke-miterlimit: 10;
      }

      .cls-1, .cls-2, .cls-4, .cls-5 {
        fill: none;
        stroke: #000;
      }

      .cls-2 {
        stroke-width: 2.79px;
      }

      .cls-3 {
        stroke: #fff;
        stroke-width: .72px;
      }

      .cls-4 {
        stroke-width: 3.4px;
      }

      .cls-5 {
        stroke-linecap: round;
        stroke-width: 6.8px;
      }
    </style>
  </defs>
  <g id="Layer_1-2" data-name="Layer 1">
    <g>
      <g>
        <g>
          <path class="cls-4" d="M128.92,115.76v20.65c0,5.16-4.18,9.35-9.35,9.35h-41.41c-5.16,0-9.35-4.18-9.35-9.35V30.53c0-5.16,4.18-9.35,9.35-9.35h41.41c5.16,0,9.35,4.18,9.35,9.35v26.85"/>
          <rect x="90.68" y="24.87" width="16.25" height="4.62" rx="2.31" ry="2.31"/>
        </g>
        <g>
          <line class="cls-5" x1="109.59" y1="74.37" x2="156.3" y2="74.37"/>
          <polygon points="140.52 93.85 137.27 90.36 154.47 74.37 137.27 58.38 140.52 54.89 161.47 74.37 140.52 93.85"/>
        </g>
        <g>
          <line class="cls-5" x1="134.57" y1="101.26" x2="87.86" y2="101.26"/>
          <polygon points="103.64 81.78 106.89 85.27 89.69 101.26 106.89 117.25 103.64 120.74 82.69 101.26 103.64 81.78"/>
        </g>
      </g>
      <g>
        <path class="cls-2" d="M103.29,145.44v2.6c0,5.63-4.57,10.2-10.2,10.2H11.59c-5.63,0-10.2-4.57-10.2-10.2V11.59C1.39,5.96,5.96,1.39,11.59,1.39H93.09c5.63,0,10.2,4.57,10.2,10.2v10.73"/>
        <polyline class="cls-1" points="95.56 144.43 95.56 150.94 9.03 150.94 9.03 8.55 95.56 8.55 95.56 21.57"/>
      </g>
      <g>
        <path class="cls-3" d="M35.77,139.29c12.16,0,22.05-9.89,22.05-22.05,0-2.1-.29-4.17-.87-6.15-.29-.97-1.3-1.53-2.28-1.25-.97,.28-1.53,1.31-1.25,2.28,.48,1.65,.72,3.37,.72,5.11,0,10.13-8.24,18.37-18.37,18.37s-18.37-8.24-18.37-18.37,8.24-18.37,18.37-18.37c3.68,0,7.22,1.08,10.24,3.11,.84,.57,1.98,.34,2.55-.5,.57-.84,.35-1.98-.5-2.55-3.63-2.45-7.88-3.74-12.3-3.74-12.16,0-22.05,9.89-22.05,22.05s9.89,22.05,22.05,22.05Z"/>
        <path class="cls-3" d="M54.68,99.41l-18.91,18.91-6.05-6.05c-.72-.72-1.88-.72-2.6,0-.72,.72-.72,1.88,0,2.6l7.35,7.35c.36,.36,.83,.54,1.3,.54s.94-.18,1.3-.54l20.21-20.21c.72-.72,.72-1.88,0-2.6-.72-.72-1.88-.72-2.6,0Z"/>
      </g>
    </g>
  </g>
</svg>