<?xml version="1.0" encoding="utf-8"?>
<!-- Generator: Adobe Illustrator 26.5.0, SVG Export Plug-In . SVG Version: 6.00 Build 0)  -->
<svg version="1.1" id="Layer_1" xmlns="http://www.w3.org/2000/svg" xmlns:xlink="http://www.w3.org/1999/xlink" x="0px" y="0px"
	 viewBox="0 0 39.4 34.9" style="enable-background:new 0 0 39.4 34.9;" xml:space="preserve">
<g id="Layer_1-2">
	<path d="M23.9,11.1L23.9,11.1v0.8h1.8v-0.8L23.9,11.1z"/>
	<path d="M22.7,9.8h0.6V4.2c0-0.7-0.6-1.3-1.3-1.3H3.8C3,2.8,2.4,3.4,2.4,4.2v26.5C2.4,31.4,3,32,3.8,32h18.1c0.7,0,1.3-0.6,1.3-1.3
		l0,0v-0.5h-0.6c-0.2,0-0.3,0-0.5,0v0.6c0,0.2-0.1,0.3-0.3,0.3H3.8c-0.2,0-0.3-0.1-0.3-0.3V4.2c0-0.2,0.1-0.3,0.3-0.3h18.1
		c0.2,0,0.3,0.1,0.3,0.3v5.7C22.4,9.8,22.5,9.8,22.7,9.8z"/>
	<path d="M26.1,11.5c0,0.2-0.2,0.4-0.4,0.4h-1.8c-0.2,0-0.4-0.2-0.4-0.4c0-0.2,0.2-0.4,0.4-0.4h1.8C25.9,11.1,26.1,11.3,26.1,11.5z"
		/>
	<path d="M27,9.8h-4.3c-0.2,0-0.3,0-0.5,0c-1.3,0.2-2.3,1.4-2.3,2.7v14.8c0,1.3,1,2.5,2.3,2.7c0.2,0,0.3,0,0.5,0H27
		c1.5,0,2.8-1.2,2.8-2.7c0,0,0,0,0,0V12.6C29.8,11,28.5,9.8,27,9.8z M29.3,27.6c0,1.1-0.9,1.9-1.9,1.9c0,0,0,0,0,0h-5.1
		c-1-0.1-1.8-0.9-1.8-1.9V12.4c0-1,0.8-1.9,1.8-1.9h5.1c1.1,0,1.9,0.9,1.9,1.9l0,0L29.3,27.6z"/>
	<path d="M26.1,11.5c0,0.2-0.2,0.4-0.4,0.4h-1.8c-0.2,0-0.4-0.2-0.4-0.4c0-0.2,0.2-0.4,0.4-0.4h1.8C25.9,11.1,26.1,11.3,26.1,11.5z"
		/>
	<path d="M26.1,11.5c0,0.2-0.2,0.4-0.4,0.4h-1.8c-0.2,0-0.4-0.2-0.4-0.4c0-0.2,0.2-0.4,0.4-0.4h1.8C25.9,11.1,26.1,11.3,26.1,11.5z"
		/>
	<path d="M39.2,11.1c-1,0-1.8-0.8-1.8-1.8c0-0.1-0.1-0.2-0.2-0.3C37.1,9,37,9.1,37,9.2c0,0,0,0.1,0,0.1c0,1-0.8,1.8-1.8,1.8
		c-0.1,0-0.2,0.1-0.2,0.2c0,0,0,0,0,0c0,0.1,0.1,0.2,0.2,0.2c0,0,0,0,0,0c1,0,1.8,0.8,1.8,1.8c0,0.1,0.1,0.2,0.2,0.2c0,0,0,0,0,0
		c0.1,0,0.2-0.1,0.2-0.2c0,0,0,0,0,0c0-1,0.8-1.8,1.8-1.8c0.1,0,0.2-0.1,0.3-0.2S39.4,11.1,39.2,11.1C39.3,11.1,39.2,11.1,39.2,11.1
		z M37.2,12.4c-0.2-0.4-0.6-0.8-1-1c0.4-0.2,0.8-0.6,1-1c0.2,0.4,0.6,0.8,1,1C37.8,11.6,37.4,11.9,37.2,12.4L37.2,12.4z"/>
	<path d="M30.8,4.3c-0.6,0-1.1-0.5-1.1-1.1c0,0,0,0,0,0c0-0.1-0.1-0.2-0.2-0.3c-0.1,0-0.2,0.1-0.3,0.2c0,0,0,0.1,0,0.1
		c0,0.6-0.5,1.1-1.1,1.1l0,0c-0.1,0-0.2,0.1-0.3,0.2c0,0.1,0.1,0.2,0.2,0.3c0,0,0.1,0,0.1,0c0.6,0,1.1,0.5,1.1,1.1
		c0,0.1,0.1,0.2,0.2,0.2c0,0,0,0,0,0c0.1,0,0.2-0.1,0.2-0.2c0-0.6,0.5-1.1,1.1-1.1c0.1,0,0.2-0.1,0.3-0.2
		C31.1,4.5,31.1,4.4,30.8,4.3C30.9,4.3,30.9,4.3,30.8,4.3z M29.5,5.1c-0.1-0.2-0.3-0.4-0.5-0.5c0.2-0.1,0.4-0.3,0.5-0.6
		c0.1,0.2,0.3,0.4,0.5,0.5C29.8,4.7,29.6,4.9,29.5,5.1z"/>
	<circle cx="34.2" cy="9.1" r="0.2"/>
	<path d="M34.8,8.6c0.1,0.1,0.2,0.1,0.3,0.1c0.6-0.3,1.3-0.5,2-0.5c0.1,0,0.2-0.1,0.3-0.2c0-0.1-0.1-0.2-0.2-0.3c0,0-0.1,0-0.1,0
		c-2.1,0-3.8-1.7-3.8-3.8c0-0.1-0.1-0.2-0.2-0.3c-0.1,0-0.2,0.1-0.3,0.2c0,0,0,0.1,0,0.1c0,2.1-1.7,3.8-3.8,3.8
		c-0.1,0-0.2,0.1-0.3,0.2c0,0.1,0.1,0.2,0.2,0.3c0,0,0.1,0,0.1,0c2.1,0,3.8,1.7,3.8,3.8c0,0.1,0.1,0.2,0.2,0.2l0,0
		c0.1,0,0.2-0.1,0.2-0.2c0,0,0,0,0,0c0-0.7,0.2-1.4,0.5-2c0.1-0.1,0-0.2-0.1-0.3c-0.1-0.1-0.2,0-0.3,0.1c-0.1,0.3-0.3,0.5-0.4,0.8
		c-0.4-1.3-1.4-2.2-2.7-2.7c1.3-0.4,2.2-1.4,2.7-2.6c0.4,1.3,1.4,2.2,2.7,2.7c-0.3,0.1-0.6,0.2-0.8,0.4C34.8,8.4,34.7,8.5,34.8,8.6z
		"/>
</g>
<g>
	<path d="M22.2,34.8H3.5c-1.7,0-3-1.4-3-3V3.5c0-1.7,1.4-3,3-3h18.7c1.7,0,3,1.4,3,3v6.6h-1V3.5c0-1.1-0.9-2-2-2H3.5
		c-1.1,0-2,0.9-2,2v28.2c0,1.1,0.9,2,2,2h18.7c1.1,0,2-0.9,2-2v-1.8h1v1.8C25.3,33.4,23.9,34.8,22.2,34.8z"/>
</g>
</svg>
