<svg xmlns="http://www.w3.org/2000/svg" viewBox="0 0 40.6 31.72"><g id="Layer_2" data-name="Layer 2"><g id="Layer_1-2" data-name="Layer 1"><path d="M40,5.39H33.62V3.49a3.49,3.49,0,1,0-7,0v1.9H13.32a.64.64,0,0,0-.63.64V8.25a2.22,2.22,0,0,1-4.44,0V6a.64.64,0,0,0-.64-.64h-7A.64.64,0,0,0,0,6V25.69a.64.64,0,0,0,.63.64H7v1.9a3.49,3.49,0,0,0,7,0v-1.9H27.28a.64.64,0,0,0,.64-.64V23.47a2.22,2.22,0,0,1,4.44,0v2.22a.64.64,0,0,0,.63.64h7a.64.64,0,0,0,.63-.64V6A.64.64,0,0,0,40,5.39ZM13.32,25.06a.63.63,0,0,0-.63.63v2.54a2.22,2.22,0,1,1-4.44,0V25.69a.64.64,0,0,0-.64-.63H1.27V6.66H7V8.25a3.49,3.49,0,1,0,7,0V6.66h5.71v5.71H18.08a3.49,3.49,0,1,0,0,7h1.59v5.71Zm26,0H33.62V23.47a3.49,3.49,0,1,0-7,0v1.59H20.94V18.72a.64.64,0,0,0-.64-.64H18.08a2.22,2.22,0,0,1,0-4.44H20.3a.64.64,0,0,0,.64-.63V6.66h6.34A.64.64,0,0,0,27.92,6V3.49a2.22,2.22,0,1,1,4.44,0V6a.63.63,0,0,0,.63.63h6.34Z"/></g></g></svg>