<?xml version="1.0" encoding="UTF-8"?>
<svg id="Layer_2" data-name="Layer 2" xmlns="http://www.w3.org/2000/svg" xmlns:xlink="http://www.w3.org/1999/xlink" viewBox="0 0 118.34 109.66">
  <defs>
    <style>
      .cls-1 {
        fill: #fff;
      }

      .cls-2 {
        clip-path: url(#clippath);
      }

      .cls-3 {
        fill: none;
      }
    </style>
    <clipPath id="clippath">
      <rect class="cls-3" x="7.49" y="40.08" width="36.26" height="52.71"/>
    </clipPath>
  </defs>
  <g id="Layer_1-2" data-name="Layer 1">
    <path d="M83.91,9.41v10.67h-3.21V9.41c0-3.41-2.78-6.19-6.19-6.19H9.4c-3.41,0-6.19,2.78-6.19,6.19v5.65c0,.89-.72,1.61-1.61,1.61s-1.61-.72-1.61-1.61v-5.65C0,4.22,4.22,0,9.4,0H74.51c5.18,0,9.4,4.22,9.4,9.41Z"/>
    <path d="M80.7,88.14h3.21v12.13c0,5.19-4.21,9.4-9.4,9.4H9.4c-5.18,0-9.4-4.21-9.4-9.4V21.48c0-.88,.72-1.61,1.61-1.61s1.61,.72,1.61,1.61V100.26c0,3.41,2.78,6.19,6.19,6.19H74.51c3.41,0,6.19-2.78,6.19-6.19v-12.13Z"/>
    <path d="M77.52,13.16v6.92h-3.21v-5.31H9.6v59.08c0,.89-.72,1.61-1.61,1.61s-1.61-.72-1.61-1.61V13.16c0-.88,.72-1.61,1.61-1.61H75.91c.88,0,1.61,.72,1.61,1.61Z"/>
    <path d="M77.52,88.14v4.38c0,.89-.72,1.61-1.61,1.61H8c-.88,0-1.61-.72-1.61-1.61v-12.25c0-.88,.72-1.61,1.61-1.61s1.61,.72,1.61,1.61v10.64H74.31v-2.77h3.21Z"/>
    <path d="M37.06,99.91c0,2.7,2.19,4.89,4.89,4.89s4.89-2.19,4.89-4.89-2.2-4.89-4.89-4.89-4.89,2.2-4.89,4.89m6.57,0c0,.93-.75,1.68-1.68,1.68s-1.68-.75-1.68-1.68,.75-1.68,1.68-1.68,1.68,.75,1.68,1.68"/>
    <path d="M48.9,8.96c.89,0,1.61-.72,1.61-1.61s-.72-1.61-1.61-1.61h-7.32c-.89,0-1.61,.72-1.61,1.61s.72,1.61,1.61,1.61h7.32Z"/>
    <path d="M35.45,5.74c.89,0,1.61,.72,1.61,1.61s-.72,1.61-1.61,1.61-1.61-.72-1.61-1.61,.72-1.61,1.61-1.61"/>
    <g class="cls-2">
      <path class="cls-1" d="M27.84,77.51l-2.36-.81-1.62-1.28-2.15,.98-2.58,.58h-1.67l-.45-2.31v-3l-.53-1.68-1.75-2.06,.85-1.58,1.77-1.08,1.1-1.18v-2.93l-.8-2.38,3.65,1.06,2.04,.09,2.03-1.07,1.35,.25,1.2,1.75,1.09-.16,2.16-.58h2.01l.11,2.99,.79,1.84,1.25,.99,.83,1.3-2.78,3.19-.71,.71,.97,3.31-1.87,1.17-2.24,.19-1.7,1.7Zm-1.92-1.49l1.71,.57,1.55-1.55,2.34-.2,1.19-.74-.94-3.19,1.03-1.03,2.37-2.72-.47-.74-1.27-.98-.93-2.25-.08-2.29h-1.19l-2.05,.56-1.63,.24-1.29-1.88-.75-.14-1.98,1.04-2.4-.12-2.23-.65,.35,1.12v3.31l-1.44,1.52-1.63,.99-.49,.91,1.5,1.77,.62,2.01v3.02l.31,1.55h.96l2.4-.55,2.48-1.14,1.95,1.54Z"/>
      <path d="M42.09,64.54h-4.86l-2.74-.91v-3.77l4.85-7.28c.25-.38,.28-.86,.08-1.26-.2-.41-.6-.67-1.05-.7s-.88,.18-1.14,.56l-4.88,7.32-3.46,1.73-.65-1.96,3.61-8.42c.15-.34,.14-.73-.03-1.06l-2.53-5.07c-.2-.4-.61-.67-1.06-.7-.45-.03-.88,.19-1.13,.57-.25,.38-.28,.86-.08,1.26l2.27,4.54-3.42,7.98-2.93,1.95-5.47-2.19-3.99-3.98,4.17-4.17c.32-.32,.45-.79,.32-1.23-.12-.44-.47-.78-.91-.89l-4.11-1.03v-4.08c0-.7-.57-1.27-1.27-1.27s-1.27,.57-1.27,1.27v5.06c0,.58,.4,1.09,.96,1.23l2.89,.72-3.48,3.48c-.49,.49-.49,1.3,0,1.79l4.88,4.88,2,5.01-3.75,1.88h-4.77c-.7,0-1.27,.57-1.27,1.27,0,.7,.57,1.27,1.27,1.27h4.54l2.95,2.95-1.06,5.29-3.53,3.53c-.34,.34-.46,.84-.31,1.3l1.27,3.8c.14,.43,.5,.75,.95,.84,.44,.09,.9-.06,1.2-.4,.3-.34,.4-.81,.25-1.24l-1.01-3.06,3.03-3.04,6.4-2.13,1.77,2.68v8.48c0,.34,.13,.66,.37,.9l3.8,3.8c.5,.48,1.29,.47,1.78-.02,.49-.49,.49-1.28,.01-1.77l-3.43-3.43v-7.96l1.82-2.74,3.86,.97,6.08,6.08c.5,.48,1.29,.47,1.78-.02,.49-.49,.5-1.28,.02-1.77l-6.19-6.19-2.03-4.05,4.05-4.05h4.54c.7,0,1.27-.57,1.27-1.27s-.57-1.27-1.27-1.27m-11.02,5.44c-.39,.39-.48,.97-.24,1.46l1.3,2.6-2.39-.6c-.52-.13-1.06,.08-1.36,.53l-1.48,2.22-1.48-2.22c-.23-.35-.63-.57-1.05-.57-.14,0-.27,.02-.4,.06l-5.53,1.84,.84-4.19c.08-.41-.05-.84-.35-1.14l-2.56-2.56,3.49-1.74c.59-.29,.86-.99,.61-1.6l-1.43-3.59,3.59,1.44c.39,.15,.83,.11,1.17-.13l2.42-1.61,.74,2.23c.12,.35,.38,.63,.72,.77s.73,.13,1.05-.04l3.22-1.62v3.02c0,.55,.35,1.03,.87,1.2l1.85,.62-3.62,3.62Z"/>
    </g>
    <path d="M117.49,58.52c.47,0,.85-.38,.85-.85v-6.76c0-.47-.38-.85-.85-.85h-4.68c-.51-2.42-1.47-4.73-2.82-6.81l3.3-3.31c.33-.33,.33-.86,0-1.19l-4.78-4.78c-.33-.33-.86-.33-1.19,0l-3.31,3.3c-2.08-1.35-4.39-2.31-6.81-2.82v-4.68c0-.47-.38-.85-.85-.85h-6.76c-.47,0-.85,.38-.85,.85v4.68c-2.42,.51-4.73,1.47-6.81,2.82l-3.31-3.3c-.33-.33-.86-.33-1.19,0l-4.78,4.78c-.33,.33-.33,.86,0,1.19l3.3,3.31c-1.35,2.08-2.31,4.39-2.82,6.81h-4.68c-.47,0-.85,.38-.85,.85v6.76c0,.47,.38,.85,.85,.85h4.68c.51,2.42,1.47,4.73,2.82,6.81l-3.3,3.31c-.33,.33-.33,.86,0,1.19l4.78,4.78c.33,.33,.86,.33,1.19,0l3.31-3.3c2.08,1.35,4.39,2.31,6.81,2.82v4.68c0,.47,.38,.85,.85,.85h6.76c.47,0,.85-.38,.85-.85v-4.68c2.42-.52,4.73-1.47,6.81-2.82l6.9,6.9c1.66,1.64,4.33,1.63,5.98-.03,1.63-1.65,1.63-4.3,0-5.95l-6.9-6.9c1.35-2.08,2.31-4.38,2.83-6.81h4.68Zm-1.8,18.49c-.99,.99-2.6,.99-3.59,0l-16.19-16.18c-.79-.79-1.87-1.24-2.99-1.23-.18,0-.35,.01-.53,.03-3.7,.45-7.07-2.2-7.51-5.9-.1-.85-.04-1.72,.18-2.55l3.73,3.73c.16,.16,.37,.25,.6,.25h3.59c.47,0,.85-.38,.85-.85v-3.59c0-.22-.09-.44-.25-.6l-3.72-3.73c3.6-.96,7.31,1.18,8.27,4.78,.22,.83,.28,1.7,.18,2.55-.17,1.3,.28,2.6,1.2,3.52l16.19,16.19c.99,.99,.99,2.6,0,3.59t0,0m-14.99-20.96c-.55-.56-.82-1.34-.71-2.13,.56-4.63-2.74-8.84-7.38-9.4-1.59-.19-3.21,.07-4.66,.77-.42,.2-.6,.71-.4,1.13,.04,.09,.1,.17,.16,.23l4.41,4.41v2.39h-2.39l-4.41-4.41c-.33-.33-.87-.33-1.2,0-.07,.07-.12,.15-.16,.23-2.01,4.21-.24,9.25,3.97,11.26,1.45,.69,3.06,.96,4.65,.77,.78-.1,1.57,.16,2.13,.72l4.35,4.35c-6.67,3.37-14.81,.69-18.18-5.98-3.37-6.67-.69-14.81,5.98-18.18,6.67-3.37,14.81-.69,18.18,5.98,1.94,3.84,1.94,8.37,0,12.2l-4.35-4.34Zm10.58,1.49c-.41,2.33-1.26,4.57-2.51,6.58l-2.47-2.47c4.07-7.37,1.39-16.63-5.98-20.7-7.37-4.07-16.63-1.39-20.7,5.98-4.06,7.37-1.39,16.63,5.98,20.7,4.58,2.53,10.14,2.53,14.72,0l2.47,2.47c-2.01,1.25-4.24,2.11-6.58,2.51-.4,.07-.7,.42-.7,.83v4.53h-5.07v-4.53c0-.41-.3-.76-.7-.83-2.67-.47-5.2-1.52-7.41-3.07-.34-.24-.79-.2-1.08,.09l-3.21,3.2-3.58-3.58,3.2-3.21c.29-.29,.33-.75,.09-1.08-1.56-2.22-2.61-4.75-3.07-7.42-.07-.41-.42-.7-.84-.7h-4.53v-5.07h4.53c.41,0,.76-.3,.83-.7,.47-2.67,1.52-5.2,3.07-7.41,.24-.34,.2-.79-.09-1.08l-3.2-3.21,3.58-3.58,3.21,3.2c.29,.29,.75,.33,1.08,.09,2.22-1.56,4.75-2.61,7.42-3.07,.41-.07,.7-.42,.7-.84v-4.53h5.07v4.53c0,.41,.3,.76,.7,.83,2.67,.47,5.2,1.52,7.42,3.07,.34,.24,.79,.2,1.08-.09l3.21-3.2,3.58,3.58-3.2,3.2c-.29,.29-.33,.75-.09,1.08,1.56,2.22,2.61,4.75,3.07,7.42,.07,.41,.42,.7,.83,.7h4.53v5.07h-4.53c-.41,0-.76,.3-.83,.7h0Z"/>
    <path d="M98.36,58.48c-.32-.34-.86-.35-1.2-.02-.34,.32-.35,.86-.02,1.2,0,0,.01,.01,.02,.02l.6,.6c.34,.32,.87,.31,1.2-.02,.32-.33,.32-.85,0-1.17l-.6-.6Z"/>
    <path d="M110.31,72.82c.34,.32,.87,.32,1.2-.02,.32-.33,.32-.85,0-1.17l-10.16-10.16c-.33-.33-.87-.33-1.2,0-.33,.33-.33,.87,0,1.2l10.16,10.16Z"/>
    <path d="M113.3,75.81c.34,.32,.87,.32,1.2-.02,.32-.33,.32-.85,0-1.17l-.6-.6c-.33-.33-.87-.33-1.2,0-.33,.33-.33,.87,0,1.2l.6,.6Z"/>
    <path d="M93.6,83.09c0,2.79-2.26,5.05-5.05,5.05h-26.52c-2.79,0-5.05-2.26-5.05-5.05V30.97c-.58,0-1.04,.47-1.04,1.04v51.08c0,3.36,2.73,6.1,6.1,6.1h26.52c3.36,0,6.1-2.73,6.1-6.1v-2.93h-1.04v2.93Z"/>
    <path d="M62.02,19.13h26.52c2.79,0,5.05,2.26,5.05,5.05v4.18h1.04v-4.18c0-3.36-2.73-6.1-6.1-6.1h-26.52c-3.36,0-6.1,2.73-6.1,6.1v3.67c0,.58,.47,1.04,1.04,1.04v-4.71c0-2.79,2.26-5.05,5.05-5.05"/>
    <path d="M58.01,27.85v-3.66c0-2.21,1.8-4.01,4.01-4.01h26.52c2.21,0,4.01,1.8,4.01,4.01v4.18h1.04v-4.18c0-2.79-2.26-5.05-5.05-5.05h-26.52c-2.79,0-5.05,2.26-5.05,5.05v4.71c.58,0,1.04-.47,1.04-1.04"/>
    <path d="M62.02,88.14h26.52c2.79,0,5.05-2.26,5.05-5.05v-2.93h-1.04v2.93c0,2.21-1.8,4.01-4.01,4.01h-26.52c-2.21,0-4.01-1.8-4.01-4.01V32.01c0-.58-.47-1.04-1.04-1.04v52.12c0,2.79,2.26,5.05,5.05,5.05"/>
    <path d="M73.66,23.89h4.75c.57,0,1.04-.47,1.04-1.04s-.47-1.04-1.04-1.04h-4.75c-.58,0-1.04,.47-1.04,1.04s.47,1.04,1.04,1.04"/>
  </g>
</svg>