<svg xmlns="http://www.w3.org/2000/svg" viewBox="0 0 39.16 39.16"><defs><style>.cls-1{fill:#010101;}</style></defs><g id="Layer_2" data-name="Layer 2"><g id="Layer_1-2" data-name="Layer 1"><path class="cls-1" d="M35.49,8.16a3.17,3.17,0,0,0,.62-1.89A3.21,3.21,0,0,0,31,3.68,19.58,19.58,0,0,0,8.3,3.57a.78.78,0,0,0-.18,1.07.77.77,0,0,0,1.07.18,17.81,17.81,0,0,1,7.34-3,10.3,10.3,0,0,0-.92,1.42,24.84,24.84,0,0,0-2.23,6.9,3.2,3.2,0,0,0-2.88,2.43H3a18.35,18.35,0,0,1,1.64-3,.77.77,0,0,0-.21-1.06.76.76,0,0,0-1.06.2A19.57,19.57,0,0,0,3.68,31a3.21,3.21,0,0,0,4.48,4.49,19.6,19.6,0,0,0,25.27-2.06A19.6,19.6,0,0,0,35.49,8.16Zm-2.6-3.57a1.69,1.69,0,1,1-1.68,1.68A1.69,1.69,0,0,1,32.89,4.59ZM30,4.85a3.22,3.22,0,0,0,2.88,4.64,3.27,3.27,0,0,0,1.43-.34,18.57,18.57,0,0,1,1.9,3.39h-10A35.27,35.27,0,0,0,24.74,6a14,14,0,0,0-2.1-4.24A17.74,17.74,0,0,1,30,4.85ZM25.5,24.17a1.69,1.69,0,1,1-1.69,1.68A1.68,1.68,0,0,1,25.5,24.17Zm-3.12.92h-8a54.31,54.31,0,0,1-.28-5.51c0-1,0-2.08.09-3.11a3.23,3.23,0,0,0,2.58-2.4h8.07a51.7,51.7,0,0,1,.28,5.51c0,1,0,2.08-.09,3.1A3.21,3.21,0,0,0,22.38,25.09ZM19.58,1.53c1.28,0,2.67,1.86,3.71,5a32.72,32.72,0,0,1,1.34,6H16.74a3.27,3.27,0,0,0-1.85-2.18C16.05,4.27,18.06,1.53,19.58,1.53Zm-6,10.1a1.68,1.68,0,1,1-1.69,1.68A1.68,1.68,0,0,1,13.62,11.63ZM1.53,19.58a17.93,17.93,0,0,1,.86-5.51H10.5a3.21,3.21,0,0,0,2.14,2.3c-.06,1.06-.1,2.13-.1,3.21,0,1.89.1,3.74.27,5.51H2.38A18.13,18.13,0,0,1,1.53,19.58Zm4.74,15A1.68,1.68,0,1,1,8,32.89,1.68,1.68,0,0,1,6.27,34.57Zm2.88-.25a3.27,3.27,0,0,0,.34-1.43A3.22,3.22,0,0,0,4.85,30,17.69,17.69,0,0,1,3,26.62H13a35.73,35.73,0,0,0,1.43,6.51,14.35,14.35,0,0,0,2.1,4.25A17.92,17.92,0,0,1,9.15,34.32Zm10.43,3.31c-1.28,0-2.67-1.86-3.71-5a34.57,34.57,0,0,1-1.34-6h7.85a3.19,3.19,0,0,0,1.89,2.2C23.11,34.9,21.1,37.63,19.58,37.63Zm3.06-.26a10,10,0,0,0,.91-1.4,24.67,24.67,0,0,0,2.23-6.92,3.22,3.22,0,0,0,2.84-2.43h7.59A18.12,18.12,0,0,1,22.64,37.37Zm6-12.28a3.22,3.22,0,0,0-2.09-2.28c.06-1.06.09-2.14.09-3.23a54.66,54.66,0,0,0-.27-5.51H36.78a18.18,18.18,0,0,1,0,11Z"/><path class="cls-1" d="M6.12,7.19A.8.8,0,0,0,6.67,7a.77.77,0,0,0,0-1.08.79.79,0,0,0-1.09,0A.77.77,0,0,0,5.58,7,.79.79,0,0,0,6.12,7.19Z"/></g></g></svg>