<?xml version="1.0" encoding="UTF-8"?>
<svg id="Layer_2" data-name="Layer 2" xmlns="http://www.w3.org/2000/svg" viewBox="0 0 91.86 91.87">
  <g id="Layer_1-2" data-name="Layer 1">
    <g>
      <path d="M41.32,47.72l6.4-6.4c.53-.53,.53-1.38,0-1.91,0,0,0,0,0,0l-3.41-3.41c.7-1.28,1.26-2.64,1.68-4.04h4.82c.75,0,1.35-.61,1.35-1.35v-9.05c0-.75-.61-1.35-1.35-1.35h-4.81c-.41-1.41-.98-2.76-1.68-4.05l3.4-3.4c.53-.53,.53-1.38,0-1.91,0,0,0,0,0,0l-6.4-6.4c-.53-.53-1.38-.53-1.91,0,0,0,0,0,0,0l-3.4,3.41c-1.28-.7-2.64-1.27-4.05-1.68V1.35C31.96,.61,31.35,0,30.6,0c0,0,0,0,0,0h-9.05c-.75,0-1.35,.6-1.35,1.35h0V6.17c-1.4,.41-2.76,.98-4.04,1.68l-3.41-3.41c-.53-.53-1.38-.53-1.91,0,0,0,0,0,0,0l-6.4,6.4c-.53,.53-.53,1.38,0,1.91,0,0,0,0,0,0l3.41,3.41c-.7,1.28-1.26,2.64-1.68,4.04H1.35C.61,20.2,0,20.81,0,21.55c0,0,0,0,0,0v9.05c0,.75,.6,1.35,1.35,1.35H6.16c.41,1.41,.98,2.76,1.68,4.05l-3.41,3.41c-.53,.53-.53,1.38,0,1.91,0,0,0,0,0,0l6.4,6.4c.53,.53,1.38,.53,1.91,0l3.4-3.41c1.28,.7,2.64,1.27,4.05,1.68v4.81c0,.75,.61,1.35,1.35,1.35h9.05c.75,0,1.35-.61,1.35-1.35v-4.82c1.4-.41,2.76-.98,4.04-1.68l3.41,3.41c.53,.53,1.38,.53,1.91,0h0Zm-4.14-6.06c-.44-.44-1.13-.52-1.66-.2-1.62,.99-3.38,1.72-5.22,2.16-.61,.15-1.04,.69-1.04,1.31v4.5h-6.35v-4.49c0-.63-.43-1.17-1.04-1.31-1.84-.44-3.61-1.17-5.22-2.17-.53-.33-1.22-.25-1.67,.19l-3.19,3.18-4.49-4.49,3.18-3.18c.44-.44,.52-1.13,.19-1.67-1-1.61-1.73-3.38-2.17-5.22-.14-.61-.69-1.04-1.31-1.04H2.7v-6.34H7.21c.62,0,1.17-.43,1.31-1.04,.44-1.84,1.17-3.61,2.16-5.22,.33-.53,.25-1.22-.2-1.67l-3.18-3.19,4.49-4.49,3.19,3.19c.44,.44,1.13,.52,1.66,.2,1.62-.99,3.38-1.72,5.22-2.16,.61-.15,1.04-.69,1.04-1.31V2.7h6.35V7.2c0,.63,.43,1.17,1.04,1.31,1.85,.44,3.61,1.17,5.22,2.17,.53,.33,1.22,.25,1.67-.19l3.18-3.18,4.49,4.49-3.18,3.18c-.44,.44-.52,1.13-.19,1.67,1,1.61,1.73,3.38,2.17,5.22,.14,.61,.69,1.04,1.31,1.04h4.5v6.35h-4.5c-.63,0-1.17,.43-1.31,1.04-.44,1.84-1.17,3.61-2.16,5.22-.33,.53-.25,1.22,.2,1.66l3.18,3.19-4.49,4.49-3.19-3.19Z"/>
      <path d="M26.08,14.37c-6.46,0-11.71,5.24-11.71,11.71s5.24,11.71,11.71,11.71,11.71-5.24,11.71-11.71c0-6.46-5.24-11.7-11.71-11.71Zm0,20.71c-4.97,0-9-4.03-9-9,0-4.97,4.03-9,9-9,4.97,0,9,4.03,9,9,0,4.97-4.03,8.99-9,9h0Z"/>
      <path d="M90.51,59.91h-4.81c-.41-1.41-.98-2.76-1.68-4.05l3.4-3.41c.53-.53,.53-1.38,0-1.91h0s-6.4-6.4-6.4-6.4c-.53-.53-1.38-.53-1.91,0,0,0,0,0,0,0l-3.4,3.4c-1.28-.7-2.64-1.27-4.05-1.68v-4.81c0-.75-.61-1.35-1.35-1.35h-9.05c-.75,0-1.35,.61-1.35,1.35v4.82c-1.4,.41-2.76,.98-4.04,1.68l-3.41-3.41c-.53-.53-1.38-.53-1.91,0,0,0,0,0,0,0l-6.4,6.4c-.53,.53-.53,1.38,0,1.91l3.41,3.41c-.7,1.28-1.26,2.64-1.68,4.04h-4.82c-.75,0-1.35,.61-1.35,1.35v9.05c0,.75,.61,1.35,1.35,1.35h4.81c.41,1.41,.98,2.76,1.68,4.05l-3.4,3.4c-.53,.53-.53,1.38,0,1.91l6.4,6.4c.53,.53,1.38,.53,1.91,0h0s3.4-3.4,3.4-3.4c1.28,.7,2.64,1.27,4.05,1.68v4.81c0,.75,.6,1.35,1.35,1.35h9.05c.75,0,1.35-.6,1.35-1.35h0v-4.82c1.4-.41,2.76-.98,4.04-1.68l3.41,3.41c.53,.53,1.38,.53,1.91,0,0,0,0,0,0,0l6.4-6.4c.53-.53,.53-1.38,0-1.91,0,0,0,0,0,0l-3.41-3.41c.7-1.28,1.26-2.64,1.68-4.04h4.82c.75,0,1.35-.6,1.35-1.35h0v-9.06c0-.75-.6-1.35-1.35-1.35h0Zm-1.35,9.05h-4.5c-.62,0-1.17,.43-1.31,1.04-.44,1.84-1.17,3.61-2.16,5.22-.33,.53-.25,1.22,.2,1.66l3.19,3.19-4.49,4.49-3.19-3.19c-.44-.44-1.13-.52-1.66-.2-1.62,.99-3.38,1.72-5.22,2.16-.61,.15-1.04,.69-1.04,1.31v4.5h-6.35v-4.5c0-.63-.43-1.17-1.04-1.31-1.85-.44-3.61-1.17-5.22-2.17-.53-.33-1.22-.25-1.67,.19l-3.18,3.18-4.49-4.48,3.18-3.18c.44-.44,.52-1.13,.19-1.67-1-1.61-1.73-3.38-2.17-5.22-.14-.61-.69-1.04-1.31-1.04h-4.5v-6.35h4.5c.63,0,1.17-.43,1.31-1.04,.44-1.84,1.17-3.61,2.16-5.22,.33-.53,.25-1.22-.2-1.66l-3.18-3.19,4.49-4.49,3.19,3.19c.44,.44,1.13,.52,1.66,.2,1.62-.99,3.38-1.72,5.22-2.16,.61-.15,1.04-.69,1.04-1.31v-4.5h6.35v4.5c0,.63,.43,1.17,1.04,1.31,1.85,.44,3.61,1.17,5.22,2.17,.53,.33,1.22,.25,1.67-.19l3.18-3.19,4.49,4.49-3.18,3.18c-.44,.44-.52,1.13-.19,1.67,1,1.61,1.73,3.38,2.17,5.22,.14,.61,.69,1.04,1.31,1.04h4.5v6.35Z"/>
      <path d="M65.78,54.08c-6.46,0-11.71,5.24-11.71,11.71s5.24,11.71,11.71,11.71,11.71-5.24,11.71-11.71c0-6.46-5.24-11.7-11.71-11.71Zm0,20.71c-4.97,0-9-4.03-9-9,0-4.97,4.03-9,9-9,4.97,0,9,4.03,9,9,0,4.97-4.03,8.99-9,9h0Z"/>
      <path d="M55.75,12.59c7.86,2.31,14.64,7.33,19.15,14.16-2.44,2.21-2.62,5.97-.42,8.4,2.21,2.44,5.97,2.62,8.4,.42,2.44-2.21,2.62-5.97,.42-8.4-1.52-1.68-3.86-2.35-6.03-1.73-4.86-7.46-12.22-12.93-20.76-15.45-.71-.22-1.47,.17-1.7,.88-.22,.71,.17,1.47,.88,1.7,.02,0,.03,0,.05,.01h0Zm26.34,18.56c0,1.78-1.44,3.22-3.22,3.22-1.78,0-3.22-1.44-3.22-3.22s1.44-3.22,3.22-3.22h0c1.78,0,3.22,1.44,3.22,3.22Z"/>
      <path d="M36.11,79.27c-7.85-2.31-14.64-7.33-19.15-14.16,2.44-2.21,2.62-5.97,.42-8.4-2.21-2.44-5.97-2.62-8.4-.42-2.44,2.21-2.62,5.97-.42,8.4,1.52,1.68,3.86,2.35,6.03,1.73,4.86,7.45,12.22,12.93,20.76,15.45,.12,.04,.25,.06,.38,.05,.75,0,1.35-.61,1.35-1.36,0-.6-.4-1.12-.97-1.29h0ZM9.77,60.71c0-1.78,1.44-3.22,3.23-3.22,1.78,0,3.22,1.44,3.22,3.23,0,1.78-1.44,3.22-3.22,3.22-1.78,0-3.22-1.44-3.22-3.23Z"/>
    </g>
  </g>
</svg>