<?xml version="1.0" encoding="UTF-8"?>
<svg id="Layer_2" data-name="Layer 2" xmlns="http://www.w3.org/2000/svg" viewBox="0 0 61 61.5">
  <defs>
    <style>
      .cls-1 {
        fill: #089949;
      }

      .cls-2 {
        fill: #226eb3;
      }
    </style>
  </defs>
  <g id="Layer_1-2" data-name="Layer 1">
    <path class="cls-2" d="M46.75,4.47V1.5c0-.83-.67-1.5-1.5-1.5s-1.5,.67-1.5,1.5v2.55c-.35-.02-.7-.05-1.06-.05H23.75c-.83,0-1.5,.67-1.5,1.5h0c0,.83,.67,1.5,1.5,1.5h18.94c.36,0,.71,.03,1.06,.05v2.45c0,.83,.67,1.5,1.5,1.5s1.5-.67,1.5-1.5v-1.94c6.47,1.79,11.25,7.72,11.25,14.75v20.88c0,8.46-6.85,15.31-15.31,15.31h-13.48c6.02-3.86,9.75-11,8.57-18.9s-7.75-14.68-15.89-15.89-15.03,2.56-18.89,8.57v-9.98c0-7.17,4.96-13.19,11.63-14.84v2.03c0,.83,.67,1.5,1.5,1.5s1.5-.67,1.5-1.5v-2.47h.01v-3h-.01V1.5c0-.83-.68-1.5-1.5-1.5s-1.5,.67-1.5,1.5v2.87C6.29,6.08,0,13.48,0,22.31v20.88c0,10.11,8.2,18.31,18.31,18.31h24.38c10.11,0,18.31-8.2,18.31-18.31V22.31c0-8.7-6.1-15.99-14.25-17.84ZM3.13,44.59c-1.33-10.45,7.5-19.28,17.95-17.95,7.12,.91,12.87,6.66,13.78,13.78,1.33,10.45-7.5,19.28-17.95,17.95-7.12-.91-12.87-6.66-13.78-13.78Z"/>
    <path class="cls-1" d="M19,44.5c-.55,0-1.09-.22-1.49-.66l-6.88-7.62c-.74-.82-.67-2.08,.15-2.82,.82-.74,2.09-.67,2.82,.15l5.54,6.14,18.01-16.17c.82-.74,2.09-.67,2.82,.15,.74,.82,.67,2.09-.15,2.82l-19.5,17.5c-.38,.34-.86,.51-1.33,.51Z"/>
  </g>
</svg>