<?xml version="1.0" encoding="UTF-8"?>
<svg id="Layer_2" data-name="Layer 2" xmlns="http://www.w3.org/2000/svg" viewBox="0 0 164.52 167.13">
  <g id="Layer_1-2" data-name="Layer 1">
    <g>
      <path d="M2.45,133.62c1.35,0,2.45-1.1,2.45-2.45V32.74c0-1.43-1.23-2.57-2.68-2.44-1.29,.12-2.22,1.32-2.22,2.61v98.26c0,1.35,1.1,2.45,2.45,2.45Z"/>
      <path d="M125.44,138.43c-1.35,0-2.45,1.1-2.45,2.45v9.49c0,6.56-5.32,11.88-11.88,11.88H16.77c-6.56,0-11.88-5.32-11.88-11.88v-9.49c0-1.35-1.1-2.45-2.45-2.45s-2.45,1.1-2.45,2.45v9.49c0,9.26,7.51,16.77,16.77,16.77H111.12c9.26,0,16.77-7.51,16.77-16.77v-9.49c0-1.35-1.1-2.45-2.45-2.45Z"/>
      <path d="M118.15,25.11v-5.06c0-1.35-1.1-2.45-2.45-2.45H12.19c-1.35,0-2.45,1.1-2.45,2.45V112.54c0,1.36,1.1,2.45,2.45,2.45s2.45-1.09,2.45-2.45V22.5H113.25v2.61h4.9Z"/>
      <path d="M118.15,140.96v-2.49s-.02-.04-.04-.04h-4.85v.12H16.07c-.79,0-1.43-.64-1.43-1.43v-14.79c0-1.41-1.2-2.56-2.65-2.44-1.3,.11-2.24,1.31-2.24,2.61v19.18h.1c.28,1.02,1.23,1.76,2.34,1.76H115.66c1.37,0,2.49-1.11,2.49-2.49Z"/>
      <path d="M56.49,152.26c0,4.11,3.34,7.46,7.46,7.46s7.46-3.34,7.46-7.46-3.34-7.46-7.46-7.46-7.46,3.34-7.46,7.46Zm10.02,0c0,1.41-1.15,2.56-2.56,2.56s-2.56-1.15-2.56-2.56,1.15-2.56,2.56-2.56,2.56,1.15,2.56,2.56Z"/>
      <path d="M74.52,13.65c1.35,0,2.45-1.1,2.45-2.45s-1.1-2.45-2.45-2.45h-11.16c-1.35,0-2.45,1.1-2.45,2.45s1.1,2.45,2.45,2.45h11.16Z"/>
      <path d="M56.47,11.19c0-1.35-1.1-2.45-2.45-2.45s-2.45,1.1-2.45,2.45,1.1,2.45,2.45,2.45,2.45-1.1,2.45-2.45Z"/>
      <path d="M136.33,124.49c0,3.42-2.78,6.2-6.2,6.2h-33.99c-3.42,0-6.2-2.78-6.2-6.2V37.6c0-3.42,2.78-6.2,6.2-6.2h33.99c3.42,0,6.2,2.78,6.2,6.2v22.04h2.94v-22.04c0-5.04-4.1-9.14-9.14-9.14h-33.99c-5.04,0-9.14,4.1-9.14,9.14V124.49c0,5.04,4.1,9.14,9.14,9.14h33.99c5.04,0,9.14-4.1,9.14-9.14v-16.95h-2.94v16.95Z"/>
      <path d="M108.32,32.96c-1.05,0-1.9,.85-1.9,1.9s.85,1.9,1.9,1.9h9.54c1.05,0,1.9-.85,1.9-1.9s-.85-1.9-1.9-1.9h-9.54Z"/>
      <path d="M162.61,75.35l1.91-1.77-1.88-1.75c-.22-.29-.49-.55-.8-.74l-14.52-13.5-2.67,2.86,10.95,10.18h-33.67c-1.63,0-2.94,1.32-2.94,2.94s1.32,2.94,2.94,2.94h33.67l-10.96,10.18,2.67,2.86,14.53-13.51c.29-.19,.54-.43,.75-.7Z"/>
      <path d="M142.44,92.71h-33.67l10.96-10.18-2.67-2.86-14.53,13.51c-.29,.19-.54,.42-.75,.7l-1.91,1.77,1.89,1.75c.22,.29,.48,.54,.79,.73l14.52,13.5,2.67-2.86-10.95-10.18h33.67c1.63,0,2.94-1.32,2.94-2.94s-1.32-2.94-2.94-2.94Z"/>
      <path d="M1.3,25.11c.34,.18,.73,.28,1.15,.28s.81-.1,1.15-.28c.77-.42,1.3-1.23,1.3-2.16V14.33c0-5.21,4.23-9.44,9.43-9.44H113.56c5.2,0,9.43,4.23,9.43,9.44v10.78h4.9V14.33c0-7.9-6.42-14.33-14.32-14.33H14.32C6.42,0,0,6.43,0,14.33v8.61c0,.93,.52,1.75,1.3,2.16Z"/>
    </g>
  </g>
</svg>