<?xml version="1.0" encoding="UTF-8"?>
<svg id="Layer_2" data-name="Layer 2" xmlns="http://www.w3.org/2000/svg" viewBox="0 0 208.86 170.12">
  <defs>
    <style>
      .cls-1 {
        fill: #fff;
      }

      .cls-2 {
        stroke: #fff;
        stroke-width: .92px;
      }

      .cls-2, .cls-3, .cls-4, .cls-5 {
        stroke-miterlimit: 10;
      }

      .cls-3 {
        stroke-width: 2.97px;
      }

      .cls-3, .cls-4, .cls-5 {
        fill: none;
        stroke: #000;
      }

      .cls-4 {
        stroke-width: 1.54px;
      }

      .cls-5 {
        stroke-width: 3.63px;
      }

      .cls-6 {
        fill: #010101;
      }
    </style>
  </defs>
  <g id="Layer_1-2" data-name="Layer 1">
    <g>
      <g>
        <g>
          <path class="cls-5" d="M172.65,138.8v5.38c0,5.4-4.38,9.77-9.77,9.77h-43.31c-5.4,0-9.77-4.38-9.77-9.77V33.47c0-5.4,4.38-9.77,9.77-9.77h43.31c5.4,0,9.77,4.38,9.77,9.77v27.89"/>
          <rect x="132.67" y="27.55" width="16.99" height="4.83" rx="2.42" ry="2.42"/>
        </g>
        <g>
          <path class="cls-6" d="M177.11,111.38c.52,.27,1.17,.07,1.44-.45,.73-1.39,1.11-2.96,1.11-4.54,0-5.41-4.4-9.81-9.81-9.81h-2.5c-.98,0-1.77-.8-1.77-1.77s.8-1.77,1.77-1.77h2.5c.71,0,1.36,.43,1.64,1.08,.86,2.04,3.23,3,5.27,2.14,2.04-.86,3-3.23,2.14-5.27-1.16-2.73-3.46-4.77-6.27-5.6v-1.4c0-2.22-1.8-4.02-4.02-4.02s-4.02,1.8-4.02,4.02v1.4c-4.13,1.22-7.04,5.04-7.04,9.42,0,5.41,4.4,9.81,9.81,9.81h2.5c.98,0,1.77,.8,1.77,1.77s-.8,1.77-1.77,1.77h-2.5c-.74,0-1.39-.44-1.65-1.13-.81-2.07-3.14-3.09-5.21-2.28-2.07,.81-3.09,3.14-2.28,5.21,1.12,2.87,3.47,5.01,6.37,5.86v1.4c0,2.22,1.8,4.02,4.02,4.02s4.02-1.8,4.02-4.02v-1.4c.7-.21,1.38-.49,2.03-.86,.51-.29,.7-.94,.41-1.45s-.94-.7-1.45-.41c-.71,.4-1.47,.68-2.26,.84-.5,.1-.86,.54-.86,1.05v2.24c0,1.04-.85,1.89-1.89,1.89s-1.89-.85-1.89-1.89v-2.24c0-.51-.36-.95-.86-1.05-2.58-.5-4.69-2.28-5.66-4.75-.38-.97,.1-2.06,1.07-2.44,.97-.38,2.06,.1,2.44,1.07,.59,1.51,2.02,2.49,3.64,2.49h2.5c2.15,0,3.91-1.75,3.91-3.91s-1.75-3.91-3.91-3.91h-2.5c-4.23,0-7.68-3.44-7.68-7.68,0-3.65,2.6-6.82,6.18-7.53,.5-.1,.86-.54,.86-1.05v-2.24c0-1.04,.85-1.89,1.89-1.89s1.89,.85,1.89,1.89v2.24c0,.51,.36,.95,.86,1.05,2.5,.49,4.58,2.19,5.58,4.54,.4,.96-.04,2.07-1,2.47s-2.07-.04-2.47-1c-.61-1.45-2.03-2.39-3.6-2.39h-2.5c-2.15,0-3.91,1.75-3.91,3.91s1.75,3.91,3.91,3.91h2.5c4.23,0,7.68,3.44,7.68,7.68,0,1.25-.29,2.45-.87,3.55-.27,.52-.07,1.17,.45,1.44h0Z"/>
          <path class="cls-6" d="M186.8,118.65c.44,.4,1.11,.37,1.51-.07,4.5-4.92,6.97-11.31,6.97-17.98,0-14.71-11.97-26.68-26.68-26.68s-26.68,11.97-26.68,26.68,11.97,26.68,26.68,26.68c5.75,0,11.23-1.8,15.85-5.21,.47-.35,.57-1.02,.22-1.49-.35-.47-1.02-.57-1.49-.22-4.24,3.14-9.28,4.8-14.58,4.8-13.53,0-24.55-11.01-24.55-24.55s11.01-24.55,24.55-24.55,24.55,11.01,24.55,24.55c0,6.14-2.28,12.01-6.41,16.54-.4,.44-.37,1.11,.07,1.51h0Z"/>
          <path class="cls-6" d="M176.24,67.97h-7.64c-2.24,0-4.47,.23-6.64,.68-.58,.12-.95,.68-.83,1.26,.12,.58,.68,.95,1.26,.83,2.03-.42,4.12-.63,6.21-.63,16.82,0,30.48,13.61,30.48,30.48s-13.81,30.48-30.48,30.48-30.48-13.63-30.48-30.48c0-12.87,8.02-24.1,19.69-28.52,.55-.21,.83-.83,.62-1.38-.21-.55-.83-.83-1.38-.62-12.48,4.73-21.07,16.73-21.07,30.51,0,18.03,14.59,32.62,32.62,32.62h7.64c18.03,0,32.62-14.59,32.62-32.62s-14.59-32.62-32.62-32.62Zm27.46,45.89h-5.28c.52-1.17,.97-2.37,1.35-3.6h5.39c-.41,1.23-.9,2.43-1.47,3.6Zm-3.62,5.74h-4.96c.83-1.16,1.58-2.36,2.25-3.6h5.19c-.74,1.25-1.56,2.45-2.48,3.6Zm6.65-19.01c0,.6-.02,1.2-.05,1.8h-5.5c.03-.6,.05-1.2,.05-1.8s-.02-1.2-.05-1.8h5.5c.03,.6,.05,1.2,.05,1.8Zm-5.74-3.94c-.15-1.22-.36-2.42-.64-3.6h5.44c.3,1.18,.53,2.38,.68,3.6h-5.49Zm-.64,11.47c.28-1.18,.49-2.38,.64-3.6h5.49c-.16,1.22-.38,2.42-.68,3.6h-5.44Zm-.58-17.21c-.38-1.23-.83-2.43-1.35-3.6h5.28c.57,1.17,1.05,2.37,1.47,3.6h-5.39Zm-2.4-5.74c-.67-1.24-1.42-2.45-2.25-3.6h4.96c.92,1.15,1.75,2.35,2.48,3.6h-5.19Zm-6.72-11.47h-3.55c-1.83-1.26-3.77-2.33-5.81-3.19,3.29,.55,6.44,1.62,9.36,3.19Zm-.79,2.14h4.2c1.49,1.07,2.87,2.28,4.15,3.6h-4.76c-1.1-1.29-2.3-2.5-3.59-3.6Zm-2.76,51.63h3.55c-2.91,1.57-6.07,2.64-9.36,3.19,2.03-.86,3.98-1.92,5.81-3.19Zm6.96-2.14h-4.2c1.28-1.1,2.49-2.31,3.59-3.6h4.76c-1.27,1.32-2.66,2.53-4.15,3.6Z"/>
        </g>
        <g>
          <path class="cls-3" d="M150.27,155v2.77c0,6-4.87,10.87-10.87,10.87H52.54c-6,0-10.87-4.87-10.87-10.87V12.36c0-6,4.87-10.87,10.87-10.87h86.86c6,0,10.87,4.87,10.87,10.87v11.43"/>
          <polyline class="cls-4" points="142.03 153.93 142.03 160.87 49.81 160.87 49.81 9.12 142.03 9.12 142.03 22.99"/>
        </g>
      </g>
      <g>
        <path class="cls-1" d="M3.34,117.06l3.54-7.27,2.84-5.49,2.48-4.08,3.19-5.49,1.77-.89,2.3-1.06,2.84,1.06,2.84,1.95,.71,3.19,1.42,2.13,4.61,.35,3.54-1.06,5.32-.71h6.91l5.85,.71,4.43,1.77,4.96-.89,2.66-.53,10.63,17.9-.89,2.13-4.08,3.37,1.77,4.25-1.24,3.01-3.54,1.42-2.48,4.96-4.61,6.03-4.43,1.95-4.61,4.25-7.09-2.84s-7.8,4.25-7.8,4.79-4.79-3.19-4.79-3.19v-3.01l-4.43-3.01,.18-3.19-4.61-1.77v-4.79l-5.32-1.77,1.06-6.91-5.14-4.25-3.01,3.72-7.98-3.54,.18-3.19Z"/>
        <g>
          <path class="cls-2" d="M44.83,88.22c.96,0,1.73-.78,1.73-1.73v-8.83c0-.96-.78-1.73-1.73-1.73s-1.73,.78-1.73,1.73v8.83c0,.96,.78,1.73,1.73,1.73Z"/>
          <path class="cls-2" d="M31.8,91.07c.33,.52,.89,.81,1.47,.81,.32,0,.64-.09,.92-.27,.81-.51,1.05-1.58,.54-2.39l-4.62-7.33c-.51-.81-1.58-1.05-2.39-.54-.81,.51-1.05,1.58-.54,2.39l4.62,7.33Z"/>
          <path class="cls-2" d="M55.48,91.61c.29,.18,.61,.27,.92,.27,.58,0,1.14-.29,1.47-.81l4.61-7.33c.51-.81,.27-1.88-.54-2.39-.81-.51-1.88-.27-2.39,.54l-4.61,7.33c-.51,.81-.27,1.88,.54,2.39Z"/>
          <path class="cls-2" d="M88.64,116.73l-3.01-5.32c-.47-.83-1.53-1.13-2.36-.65-.83,.47-1.13,1.53-.65,2.36l3.01,5.32c.15,.27,.11,.52,.07,.65-.04,.12-.13,.36-.39,.5l-4.64,2.57c-.41,.23-.95,.08-1.18-.31l-1.18-2.09s-.01-.02-.02-.03l-12.19-21.56c-.15-.27-.11-.52-.08-.65,.03-.12,.13-.35,.39-.49l4.65-2.57c.42-.23,.94-.09,1.17,.31l2.72,4.8c.47,.83,1.53,1.13,2.36,.65,.83-.47,1.13-1.53,.65-2.36l-2.72-4.8c-1.16-2.05-3.79-2.79-5.87-1.64l-4.65,2.57c-1.01,.56-1.73,1.47-2.05,2.59-.3,1.05-.19,2.14,.29,3.1l-2.56,.74c-1.09,.32-1.75,.49-2.12,.49h0c-.25,0-.53-.1-1.32-.4-.36-.14-.8-.3-1.35-.49l-4.53-1.59c-2.51-.88-3.64-.83-5.28-.68l-7.73,.69c-3.53,.31-5.77,1.11-7.01,2.49l-4.41-1.28c.47-.96,.58-2.04,.28-3.08-.31-1.11-1.04-2.03-2.04-2.59l-4.64-2.57c-2.08-1.15-4.71-.41-5.87,1.64L1.02,116.73c-.57,1.01-.71,2.18-.4,3.3,.31,1.11,1.04,2.03,2.04,2.59l4.64,2.57c.66,.37,1.39,.54,2.1,.54,1.51,0,2.98-.79,3.77-2.18l.49-.87c1.34,.59,2.46,1.45,3.23,2.46-.75,.87-1.22,1.95-1.35,3.13-.17,1.55,.26,3.08,1.23,4.29,.96,1.2,2.34,1.96,3.88,2.14-.16,1.54,.28,3.05,1.24,4.25,1,1.25,2.4,1.97,3.88,2.14-.16,1.54,.28,3.04,1.24,4.25,.96,1.21,2.34,1.97,3.88,2.15-.16,1.54,.28,3.05,1.24,4.25,1.15,1.44,2.84,2.18,4.56,2.18,1.28,0,2.56-.42,3.64-1.27l3.63-2.9c.29-.23,.55-.48,.79-.76l2.07,1.66c1.07,.86,2.36,1.27,3.63,1.27,1.71,0,3.41-.75,4.56-2.19,.61-.76,.99-1.62,1.16-2.52,.61,.21,1.25,.32,1.9,.32,.22,0,.44-.01,.66-.04,1.55-.17,2.94-.94,3.91-2.15,.97-1.2,1.41-2.71,1.24-4.25,1.47-.17,2.88-.9,3.88-2.14,.99-1.24,1.39-2.78,1.24-4.25,1.54-.18,2.91-.94,3.87-2.14,.97-1.21,1.41-2.73,1.24-4.28-.13-1.18-.6-2.26-1.35-3.14,.76-1.01,1.89-1.87,3.23-2.46l.49,.87c.79,1.39,2.26,2.18,3.77,2.18,.71,0,1.43-.17,2.1-.54l4.64-2.57c1-.55,1.73-1.47,2.04-2.58,.32-1.12,.18-2.29-.39-3.3h0Zm-78.48,5.11c-.23,.4-.76,.54-1.17,.31l-4.64-2.57c-.25-.14-.35-.37-.39-.49-.04-.13-.07-.39,.08-.65l13.38-23.67c.15-.27,.44-.42,.74-.42,.15,0,.29,.04,.43,.11l4.64,2.57s0,0,0,0c.25,.14,.35,.37,.39,.49,.04,.13,.07,.38-.08,.65l-13.38,23.67Zm12.65,8.92c-.49,.39-1.11,.57-1.74,.5-.63-.07-1.19-.38-1.58-.87-.39-.49-.57-1.11-.5-1.74,.07-.63,.38-1.19,.87-1.58l6.49-5.19c1.02-.81,2.51-.65,3.32,.37,.39,.49,.57,1.11,.5,1.73-.07,.63-.38,1.19-.87,1.57-.01,0-.02,.02-.03,.03l-6.46,5.16s0,0,0,0Zm1.8,6.02c-.39-.49-.57-1.1-.5-1.73,.07-.63,.38-1.19,.87-1.58h0s0,0,0,0c0,0,0,0,0,0l9.35-7.47c1.02-.81,2.51-.65,3.32,.37,.39,.49,.57,1.1,.5,1.73-.07,.63-.38,1.19-.87,1.58l-9.34,7.46c-1.02,.81-2.51,.65-3.32-.37h0Zm6.7,7.26c-.63-.07-1.19-.38-1.58-.87-.39-.49-.57-1.1-.5-1.73,.07-.63,.38-1.19,.87-1.58,0,0,0,0,0,0l6.47-5.17s.02-.01,.02-.02c1.02-.81,2.51-.65,3.32,.37,.39,.49,.57,1.11,.5,1.74-.07,.63-.38,1.19-.87,1.58l-6.49,5.19c-.49,.39-1.11,.57-1.74,.5h0Zm11.36,1.41c-.07,.63-.38,1.19-.87,1.58l-3.63,2.9c-1.02,.81-2.51,.65-3.32-.37-.39-.49-.57-1.1-.5-1.73s.38-1.19,.87-1.58c0,0,0,0,0,0l3.63-2.9s0,0,0,0c1.02-.81,2.51-.65,3.32,.37,.39,.49,.57,1.1,.5,1.73Zm27.5-15.06c-.39,.49-.95,.8-1.58,.87-.63,.07-1.25-.11-1.74-.5,0,0,0,0,0,0,0,0,0,0,0,0l-4.64-3.71c-.75-.6-1.84-.48-2.44,.27-.6,.75-.48,1.84,.27,2.44l4.64,3.7c1.02,.81,1.18,2.3,.38,3.31-.82,1.02-2.31,1.18-3.33,.37l-5.03-4.01c-.75-.6-1.84-.47-2.44,.27-.6,.75-.47,1.84,.27,2.44l5.03,4.01c.49,.39,.8,.95,.87,1.58,.07,.63-.11,1.24-.5,1.73-.39,.49-.95,.8-1.58,.87-.63,.07-1.25-.11-1.74-.5l-2.5-2s0,0-.01-.01l-2.11-1.69-.4-.32c-.75-.6-1.84-.48-2.44,.27-.07,.09-.14,.19-.19,.29-.25,.49-.25,1.07-.01,1.55,.11,.22,.27,.43,.47,.59l2.52,2.01c1.01,.82,1.18,2.3,.37,3.31-.81,1.02-2.3,1.18-3.32,.37l-2.86-2.28c.12-1.48-.32-2.93-1.25-4.09-.58-.72-1.29-1.27-2.08-1.64,.58-.8,.94-1.74,1.06-2.75,.17-1.55-.26-3.08-1.24-4.29-.58-.72-1.29-1.27-2.08-1.63,.58-.8,.94-1.74,1.06-2.76,.17-1.55-.27-3.07-1.24-4.28-1.67-2.09-4.49-2.72-6.84-1.72-.19-.86-.57-1.68-1.14-2.39-2.01-2.51-5.68-2.92-8.19-.91l-4.64,3.71c-1.05-1.34-2.48-2.45-4.16-3.24l9.55-16.88,5.08,1.47c.02,.27,.07,.56,.14,.86,1.23,5.06,5.89,7.42,12.16,6.15,5.28-1.06,7.46,.52,11.79,3.67,.45,.33,.92,.67,1.4,1.02,3.11,2.23,6.44,4.86,8.67,6.64l5.63,4.5c.49,.39,.8,.95,.87,1.58,.07,.63-.11,1.24-.5,1.73h0Zm-.05-7.5l-3.78-3.02c-2.26-1.8-5.64-4.47-8.82-6.75-.48-.35-.94-.68-1.38-1-4.49-3.27-7.74-5.63-14.51-4.27-2.07,.42-7.01,.91-8.1-3.57-.15-.63,0-.85,.07-.94,.23-.32,1.16-1.11,4.81-1.43l7.74-.69c1.26-.12,1.89-.17,3.82,.5l4.54,1.59c.5,.18,.91,.33,1.26,.46,2.18,.83,2.76,.83,5.63,0l3.34-.97,9.53,16.86c-1.69,.79-3.11,1.9-4.16,3.24Z"/>
          <path class="cls-2" d="M80.29,107.23c.96,0,1.73-.78,1.73-1.74s-.78-1.73-1.73-1.73-1.73,.78-1.73,1.73h0c0,.96,.78,1.74,1.73,1.74Z"/>
        </g>
      </g>
    </g>
  </g>
</svg>