<?xml version="1.0" encoding="UTF-8"?>
<svg id="Layer_2" data-name="Layer 2" xmlns="http://www.w3.org/2000/svg" viewBox="0 0 116.4 65.24">
  <defs>
    <style>
      .cls-1 {
        fill: #fff;
      }

      .cls-2 {
        fill: #221f1f;
      }

      .cls-3 {
        fill: #231f20;
      }
    </style>
  </defs>
  <g id="Layer_1-2" data-name="Layer 1">
    <g>
      <polygon class="cls-2" points="57.36 40.45 47.88 40.45 47.88 13.6 36.24 13.6 36.24 49.48 47.88 49.48 47.88 49.42 57.36 49.42 57.36 40.45"/>
      <path d="M80.57,50.98l-1.34-1.75c-.17-.23-.34-.44-.5-.64-.35-.44-.67-.85-.96-1.28-1.87-2.71-3.04-5.67-3.48-8.8-.88-6.27,.68-11.88,4.64-16.67,3.44-4.18,7.91-6.68,13.26-7.44,5.74-.81,11.06,.55,15.81,4.04,.77,.56,.77,1.28,.64,1.78-.08,.3-.14,.6-.21,.91-.08,.37-.16,.74-.26,1.11-.12,.45-.55,.98-1.12,1.12-.9,.22-1.73,.39-2.53,.52-.47,.07-1.03-.05-1.44-.31-2.59-1.69-5.42-2.49-8.4-2.36-5.71,.23-10.67,3.79-12.64,9.07-1.68,4.51-1.21,8.74,1.44,12.92,.17,.27,.37,.53,.58,.8l1.27,1.71-2.25,.48c-.54,.12-1.05,.23-1.58,.32-.09,.51-.2,.99-.31,1.52l-.61,2.95Zm14.78-34.79c-.95,0-1.91,.07-2.88,.21-4.84,.69-8.87,2.95-11.99,6.73-3.58,4.34-4.99,9.43-4.2,15.11,.39,2.82,1.45,5.49,3.14,7.93,.02,.03,.04,.06,.06,.09,.02-.09,.03-.18,.05-.26,.14-.81,.65-1.31,1.46-1.44,.28-.05,.57-.1,.85-.16-.03-.04-.05-.08-.08-.12-2.97-4.68-3.52-9.63-1.62-14.7,2.25-6.04,7.92-10.11,14.45-10.37,3.41-.13,6.63,.77,9.58,2.69,.69-.09,1.38-.23,2.11-.4,.06-.25,.12-.51,.17-.76,.06-.26,.11-.52,.17-.77-3.47-2.5-7.25-3.75-11.29-3.75Zm10.89,5.51s0,0,0,.01c0,0,0,0,0-.01Zm.34-.29s0,0,0,0c0,0,0,0,0,0Z"/>
      <path d="M95.27,56.46c-.32,0-.65,0-.98-.02-4.3-.18-8.28-1.6-11.82-4.22-.77-.57-.78-1.28-.64-1.77,.15-.57,.26-1.16,.38-1.79l.03-.15c.13-.7,.61-1.18,1.33-1.31l.37-.07c.6-.11,1.17-.21,1.72-.35,.84-.22,1.45,.09,1.83,.34,2.14,1.41,4.42,2.18,6.77,2.27,6.09,.25,10.65-2.33,13.55-7.65,1.7-3.13,2.04-6.59,1.02-10.3-.5-1.79-1.36-3.46-2.56-4.94-.08-.1-.16-.22-.22-.35l-.12-.24,.06-1.11,.76-.22,.67-.14c.52-.11,1.05-.22,1.57-.31,.09-.53,.2-1.01,.3-1.49l.25-1.15,1.41-.63,.47,.7c.23,.34,.46,.68,.7,1.01,.52,.75,1.07,1.53,1.54,2.35,2.11,3.66,3.02,7.67,2.68,11.91-.51,6.46-3.41,11.7-8.63,15.56-3.65,2.7-7.82,4.06-12.43,4.06Zm-11.44-5.74c3.19,2.31,6.73,3.55,10.54,3.71,4.53,.2,8.61-1.04,12.13-3.65,4.73-3.5,7.36-8.24,7.82-14.1,.3-3.83-.51-7.44-2.42-10.74-.29-.5-.61-.98-.94-1.47,0,.03-.01,.06-.02,.1-.17,1.09-.92,1.44-1.52,1.54-.29,.05-.57,.1-.85,.16,.98,1.43,1.72,3,2.18,4.66,1.17,4.23,.77,8.19-1.19,11.8-3.3,6.05-8.48,8.97-15.4,8.7-2.73-.11-5.35-.99-7.8-2.6-.12-.08-.16-.09-.16-.09-.68,.18-1.32,.29-1.93,.4l-.12,.02c-.1,.52-.2,1.05-.33,1.58Z"/>
      <path d="M89.16,36.67v4.14h-2.91v-11.34c.07-.02,.13-.05,.2-.05,1.66,.02,3.32,0,4.98,.08,1.52,.06,2.74,1.07,3.06,2.39,.4,1.68-.12,3.16-1.39,3.92-.27,.16-.58,.25-.93,.4,1.07,1.4,2.13,2.78,3.23,4.22,.52-.55,1.01-1.07,1.49-1.59,.99-1.07,1.98-2.14,2.95-3.23,.64-.71,1.07-1.53,1.17-2.5,.09-.96-.76-1.77-1.61-1.53-.52,.15-.84,.59-.87,1.21,0,.18,0,.37,0,.58h-3.2c-.17-2.32,1.65-4.29,4.01-4.39,1.21-.05,2.34,.18,3.31,.95,1.76,1.41,2.03,4.03,.54,5.78-.68,.8-1.49,1.49-2.25,2.22-.08,.08-.2,.11-.31,.16,.03,.06,.07,.11,.1,.17h3.51v2.54c-.18,0-.34,.02-.51,.02-3.76,0-7.52,0-11.29,.01-.37,0-.57-.12-.76-.42-.79-1.28-1.6-2.54-2.41-3.8-.04,.01-.08,.03-.13,.04m.02-2.06c.57-.1,1.09-.14,1.56-.3,.53-.18,.74-.63,.74-1.18,0-.53-.2-.97-.71-1.15-.4-.14-.84-.19-1.27-.23-.1-.01-.31,.16-.31,.25-.02,.83-.01,1.66-.01,2.61"/>
      <polygon class="cls-3" points="93.46 47.24 92.17 43.54 92.9 43.54 93.83 46.47 93.88 46.47 94.8 43.54 95.51 43.54 94.23 47.24 93.46 47.24"/>
      <path class="cls-3" d="M96.92,45.09h.45c.38,0,.64-.23,.64-.56,0-.3-.23-.54-.63-.54s-.65,.21-.68,.57h-.62c.03-.65,.54-1.11,1.34-1.11s1.23,.46,1.23,.99c0,.45-.28,.74-.67,.85v.04c.5,.08,.82,.4,.82,.91,0,.64-.6,1.1-1.4,1.1s-1.36-.44-1.39-1.12h.63c.03,.34,.32,.56,.75,.56s.73-.24,.73-.59-.28-.59-.73-.59h-.46v-.51Z"/>
      <path d="M90.95,65.24h-20.76c-3.35,0-6.08-2.73-6.08-6.08V6.08c0-3.35,2.73-6.08,6.08-6.08h20.76c3.35,0,6.08,2.73,6.08,6.08V14.35h-2.79V6.08c0-1.81-1.48-3.29-3.29-3.29h-20.76c-1.81,0-3.29,1.48-3.29,3.29V59.16c0,1.81,1.48,3.29,3.29,3.29h20.76c1.81,0,3.29-1.48,3.29-3.29v-2.58h2.79v2.58c0,3.35-2.73,6.08-6.08,6.08Z"/>
      <path d="M83.45,5.56h-5.83c-.64,0-1.16-.52-1.16-1.16s.52-1.16,1.16-1.16h5.83c.64,0,1.16,.52,1.16,1.16s-.52,1.16-1.16,1.16"/>
      <polyline class="cls-2" points="30.94 57.98 30.94 60.27 .5 60.27 .5 10.18 30.94 10.18 30.94 57.99"/>
      <path d="M31.44,60.77H0V9.68H31.44V60.77Zm-30.44-1H30.44V10.68H1V59.77Z"/>
      <rect x="30.91" y="54.18" width="4.28" height="2.84"/>
      <rect x="35.26" y="52.54" width="1.59" height="5.83"/>
      <path d="M57.02,49.88h-20.23c-.54,0-.98-.44-.98-.98V14.08c0-.54,.44-.98,.98-.98h10.42c.54,0,.98,.44,.98,.98v25.79c0,.13,.11,.24,.24,.24h8.58c.54,0,.98,.44,.98,.98v7.81c0,.54-.44,.98-.98,.98M36.79,13.84c-.13,0-.24,.11-.24,.23V48.9c0,.13,.11,.24,.24,.24h20.23c.13,0,.24-.11,.24-.24v-7.81c0-.13-.11-.24-.24-.24h-8.58c-.54,0-.98-.44-.98-.98V14.08c0-.13-.11-.23-.24-.23h-10.42Z"/>
      <path class="cls-2" d="M59.79,30.42h-7.29c-.54,0-.98-.44-.98-.98V9.12c0-.54,.44-.98,.98-.98h7.29c.54,0,.98,.44,.98,.98V29.44c0,.54-.44,.98-.98,.98m-7.29-21.54c-.13,0-.23,.1-.23,.23V29.44c0,.13,.1,.23,.23,.23h7.29c.13,0,.23-.1,.23-.23V9.12c0-.13-.1-.23-.23-.23h-7.29Z"/>
      <path class="cls-2" d="M58.08,11.49h-4.45v-1.33h4.45v1.33Zm-4.2-.25h3.95v-.83h-3.95v.83Z"/>
      <path class="cls-2" d="M59.51,20.44h-6.58v-6.58h6.58v6.58Zm-6.33-.25h6.08v-6.08h-6.08v6.08Z"/>
      <path class="cls-2" d="M56.34,28.36h-3.42v-2.05h3.42v2.05Zm-3.17-.25h2.92v-1.55h-2.92v1.55Z"/>
      <path class="cls-2" d="M53.36,22.03c-.29,0-.52-.23-.52-.52s.23-.52,.52-.52,.52,.23,.52,.52-.23,.52-.52,.52m0-.79c-.15,0-.27,.12-.27,.27s.12,.27,.27,.27,.27-.12,.27-.27-.12-.27-.27-.27"/>
      <path class="cls-2" d="M58.99,22.03c-.29,0-.52-.23-.52-.52s.23-.52,.52-.52,.52,.23,.52,.52-.23,.52-.52,.52m0-.79c-.15,0-.27,.12-.27,.27s.12,.27,.27,.27,.27-.12,.27-.27-.12-.27-.27-.27"/>
      <path class="cls-2" d="M58.99,13.31c-.29,0-.52-.23-.52-.52s.23-.52,.52-.52,.52,.23,.52,.52-.23,.52-.52,.52m0-.79c-.15,0-.27,.12-.27,.27s.12,.27,.27,.27,.27-.12,.27-.27-.12-.27-.27-.27"/>
      <path class="cls-2" d="M58.99,27.76c-.29,0-.52-.23-.52-.52s.23-.52,.52-.52,.52,.23,.52,.52-.23,.52-.52,.52m0-.79c-.15,0-.27,.12-.27,.27s.12,.27,.27,.27,.27-.12,.27-.27-.12-.27-.27-.27"/>
      <path class="cls-1" d="M39.24,29.08c0-.45,.1-.9,.39-1.28,.39-.5,.91-.68,1.53-.63,.19,.02,.37,.08,.54,.16,.24,.12,.47,.12,.71,.01,.29-.13,.59-.2,.91-.19,.5,.01,.91,.2,1.23,.58,.04,.04,.03,.06-.01,.09-.26,.19-.48,.42-.59,.73-.18,.5-.09,1.15,.49,1.59,.09,.07,.19,.13,.29,.18,.03,.01,.04,.03,.02,.06-.2,.55-.5,1.03-.93,1.42-.14,.12-.29,.22-.48,.26-.13,.03-.24,0-.36-.03-.14-.03-.26-.08-.39-.14-.31-.13-.61-.12-.93-.01-.17,.06-.34,.14-.52,.18-.2,.04-.37,0-.54-.09-.22-.12-.38-.29-.52-.48-.52-.67-.84-1.59-.85-2.42"/>
      <path class="cls-1" d="M43.3,25.85c0,.64-.45,1.22-1.06,1.37-.07,.02-.15,.02-.22,.03-.04,0-.06-.01-.06-.06-.02-.18,0-.36,.07-.52,.21-.5,.57-.84,1.11-.95,.2-.04,.15-.05,.16,.14"/>
    </g>
  </g>
</svg>