<?xml version="1.0" encoding="UTF-8"?>
<svg id="Layer_2" data-name="Layer 2" xmlns="http://www.w3.org/2000/svg" viewBox="0 0 87.68 87.68">
  <g id="Layer_1-2" data-name="Layer 1">
    <g>
      <path d="M27.22,59.94c-1.95-.79-2.05-1.44-11.51-9.69-1.71-1.54-4.22-1.82-6.23-.68l-.72-9.39c-.22-2.72-2.49-4.81-5.22-4.83-1.95,0-3.54,1.58-3.54,3.54v17.68c0,4.64,15.84,21.62,16.94,24.89v4.81c0,.78,.63,1.41,1.41,1.41s1.41-.63,1.41-1.41v-4.91c0-3.1-16.85-21.47-16.94-24.79v-17.68c0-.39,.32-.71,.71-.71,1.25,0,2.29,.97,2.39,2.22l1.05,13.5c.03,.92,.32,1.82,.84,2.58l10.99,10.99c.56,.54,1.46,.53,2-.03,.53-.55,.53-1.42,0-1.96l-10.83-10.83c-.44-1-.02-2.17,.95-2.66,.95-.48,2.1-.33,2.9,.38,8.98,7.78,9.66,9.11,12.32,10.2,6.44,2.63,9.21,9.24,9.21,10.98,0,4.33-1.41,5.68-1.41,8.65v4.07c0,.78,.63,1.41,1.41,1.41s1.41-.63,1.41-1.41v-4.07c0-2.39,1.41-3.92,1.41-8.65,0-3.18-3.77-10.66-10.97-13.6Z"/>
      <path d="M84.14,35.36c-2.73,.01-4.99,2.11-5.21,4.83l-.73,9.38c-2.01-1.13-4.51-.86-6.22,.68-9.47,8.26-9.57,8.9-11.51,9.69-7.21,2.94-10.97,10.42-10.97,13.6,0,4.72,1.41,6.31,1.41,8.65v4.07c0,.78,.63,1.41,1.41,1.41s1.41-.63,1.41-1.41v-4.07c0-2.96-1.41-4.33-1.41-8.65,0-1.74,2.77-8.35,9.21-10.98,2.63-1.07,2.96-2.09,12.32-10.2,1.87-1.66,4.84,.06,3.85,2.28l-10.83,10.83c-.54,.56-.53,1.46,.03,2,.55,.53,1.42,.53,1.96,0l10.99-10.99c.49-.66,.77-1.45,.82-2.27l1.06-13.8c.17-2.22,3.1-2.86,3.1-1.51v17.68c-.05,1.73-6.11,9.47-9.74,14.1-5.75,7.34-7.2,9.36-7.2,10.69v4.91c0,.78,.63,1.41,1.41,1.41s1.41-.63,1.41-1.41v-4.81c.38-1.12,3.82-5.52,6.6-9.05,6.44-8.2,10.34-13.37,10.34-15.84v-17.68c0-1.95-1.58-3.54-3.54-3.54Z"/>
      <path d="M43.84,12.73c3.31-.21,5.84-3.05,5.66-6.36C49.67,3.05,47.15,.21,43.84,0c-3.31,.21-5.84,3.05-5.66,6.36-.18,3.31,2.34,6.15,5.66,6.36Zm0-9.9c1.74,.22,3,1.79,2.83,3.54,.17,1.75-1.09,3.31-2.83,3.54-1.74-.22-3-1.79-2.83-3.54-.17-1.75,1.09-3.31,2.83-3.54Z"/>
      <path d="M52.32,55.16c0-1.18-.31-7.2-.63-13.32,1.84,1.15,6.29,1.07,6.29-3.64,0-5.45-2.76-15.87-3.6-17.82-1.34-3.11-5.09-4.81-10.54-4.81s-9.19,1.71-10.54,4.81c-.84,1.95-3.6,12.37-3.6,17.82,0,4.82,4.54,4.74,6.29,3.64-.33,6.11-.63,12.14-.63,13.32,0,3.94,2.52,4.24,3.29,4.24,3.82,0,4.29-2.55,4.91-5.78l.28-1.77,.28,1.77c.62,3.24,1.11,5.78,4.92,5.78,.77,0,3.29-.31,3.29-4.24Zm-3.29,1.41c-1.33,0-1.47,0-2.13-3.48l-1.64-10.75c-.05-.35-.25-.67-.54-.87-.26-.23-.6-.35-.95-.33-.68,.02-1.26,.52-1.36,1.2l-1.55,10.24-.1,.51c-.66,3.48-.8,3.48-2.13,3.48-.42,0-.46-.99-.46-1.41,0-2.39,1.4-27.07,1.41-27.32,.06-.78-.53-1.46-1.31-1.52-.78-.06-1.46,.53-1.52,1.31-.27,3.37-.73,6.73-1.37,10.05-.74,2.67-2.87,2.46-2.87,.52,0-5.01,2.69-15.13,3.37-16.7,.85-1.98,3.75-3.11,7.94-3.11s7.09,1.13,7.94,3.11c.68,1.58,3.37,11.69,3.37,16.7,0,2.28-2.21,1.88-2.88-.52-.64-3.32-1.09-6.68-1.36-10.05-.06-.78-.74-1.37-1.52-1.31-.78,.06-1.37,.74-1.31,1.52,.02,.25,1.41,24.92,1.41,27.32,0,.42-.05,1.41-.46,1.41Z"/>
      <path d="M62.22,11.32c3.02-.1,5.39-2.63,5.3-5.66,.19-2.93-2.03-5.46-4.96-5.65-2.93-.19-5.46,2.03-5.65,4.96-.02,.23-.02,.46,0,.69-.09,3.02,2.28,5.55,5.3,5.66Zm0-8.48c1.46,.11,2.56,1.37,2.47,2.83,.19,1.37-.77,2.62-2.14,2.81-1.37,.19-2.62-.77-2.81-2.14-.03-.22-.03-.45,0-.67-.09-1.46,1.01-2.72,2.47-2.83Z"/>
      <path d="M25.45,11.32c3.02-.1,5.39-2.63,5.3-5.66C30.85,2.64,28.48,.11,25.45,0c-3.02,.1-5.39,2.63-5.3,5.66-.09,3.02,2.28,5.55,5.3,5.66Zm0-8.48c1.46,.11,2.56,1.37,2.47,2.83,.09,1.46-1.01,2.72-2.47,2.83-1.46-.11-2.56-1.37-2.47-2.83-.09-1.46,1.01-2.72,2.47-2.83Z"/>
      <path d="M56.12,17.23c.95-1.06,3.17-1.67,6.1-1.67,3.66,0,6.11,.92,6.58,2.57,3.08,10.78,3.32,13.15,3.32,13.62,0,1.68-1.3,1.67-2.03-.94-.59-2.12-1.43-7.26-1.44-7.31-.13-.77-.86-1.29-1.63-1.15-.71,.12-1.21,.75-1.17,1.47,.43,6.78,1.25,20.05,1.25,21.75,0,.74-.15,1.06-.25,1.1-1.09,0-1.18,0-1.74-2.97l-1.47-8.32c-.16-.78-.92-1.28-1.71-1.12-.56,.12-1.01,.56-1.12,1.12l-1.38,7.87-.09,.45c-.57,2.97-.65,2.97-1.79,2.98-.12-.2-.18-.44-.18-.67-.08-.78-.77-1.34-1.55-1.27s-1.34,.77-1.27,1.55c.3,2.97,2.4,3.21,3.05,3.21,3.52,0,3.98-2.44,4.53-5.27l.09-.53,.1,.54c.54,2.83,1,5.27,4.53,5.27,1.49,0,3.08-1.03,3.08-3.93,0-1.04-.27-5.77-.56-10.58,.71,.48,1.55,.72,2.4,.68,1.47,0,3.19-1.03,3.19-3.92,0-1.6-1.15-6.44-3.46-14.5-.85-2.92-4.14-4.53-9.28-4.53-2.68,0-6.27,.45-8.2,2.61-.51,.59-.45,1.48,.13,2,.58,.5,1.45,.46,1.97-.11h0Z"/>
      <path d="M15.91,35.67c.85,.04,1.7-.19,2.4-.68-.28,4.81-.56,9.54-.56,10.58,0,2.9,1.59,3.93,3.08,3.93,3.56,0,3.97-2.41,4.61-5.8,.65,3.41,1.05,5.8,4.62,5.8,.64,0,2.75-.23,3.05-3.21,.08-.78-.49-1.47-1.27-1.55-.78-.08-1.47,.49-1.55,1.27-.05,.52-.18,.69-.23,.66-1.09,0-1.18,0-1.74-2.97l-1.47-8.31c-.16-.78-.92-1.28-1.71-1.12-.56,.12-1.01,.56-1.12,1.12l-1.38,7.87c-.73,3.36-.57,3.42-1.87,3.43-.17-.34-.24-.73-.2-1.11,0-1.7,.82-14.97,1.25-21.75,.04-.78-.55-1.45-1.33-1.49-.72-.04-1.35,.46-1.47,1.17,0,.05-.85,5.19-1.44,7.31-.74,2.65-2.03,2.6-2.03,.94,0-.47,.24-2.85,3.35-13.72,.44-1.55,2.89-2.48,6.55-2.48,2.92,0,5.15,.61,6.1,1.67,.5,.6,1.4,.67,1.99,.17s.67-1.4,.17-1.99c-.02-.02-.04-.04-.06-.06-1.93-2.16-5.53-2.61-8.2-2.61-5.14,0-8.44,1.61-9.3,4.62-2.28,7.96-3.43,12.8-3.43,14.4,0,2.9,1.72,3.92,3.19,3.92Z"/>
    </g>
  </g>
</svg>