<?xml version="1.0" encoding="UTF-8"?>
<svg id="Layer_2" data-name="Layer 2" xmlns="http://www.w3.org/2000/svg" viewBox="0 0 119.14 105.92">
  <g id="Layer_1-2" data-name="Layer 1">
    <g>
      <path d="M92.99,23v9.19h-2.01v-9.19c0-2.14-1.74-3.88-3.88-3.88h-25.62c-2.13,0-3.88,1.74-3.88,3.88v3.54c0,.56-.44,1.01-1,1.01s-1-.45-1-1.01v-3.54c0-3.25,2.64-5.89,5.89-5.89h10.29v-2.85H9.28v57.07c0,.85-.7,1.55-1.55,1.55s-1.55-.7-1.55-1.55V12.7c0-.85,.69-1.55,1.55-1.55H73.33c.85,0,1.55,.7,1.55,1.55v4.4h3.07V9.08c0-3.29-2.68-5.98-5.98-5.98H9.08c-3.29,0-5.98,2.68-5.98,5.98v5.46c0,.86-.69,1.55-1.55,1.55s-1.55-.69-1.55-1.55v-5.46C0,4.07,4.08,0,9.08,0h62.9c5.01,0,9.08,4.07,9.08,9.08v8.03h6.05c3.25,0,5.89,2.65,5.89,5.89Z"/>
      <path d="M45.25,96.5c0-2.61-2.12-4.73-4.73-4.73s-4.73,2.12-4.73,4.73,2.12,4.73,4.73,4.73,4.73-2.12,4.73-4.73Zm-6.35,0c0-.89,.73-1.62,1.62-1.62s1.62,.73,1.62,1.62-.73,1.62-1.62,1.62-1.62-.73-1.62-1.62Z"/>
      <path d="M47.23,8.65c.86,0,1.55-.69,1.55-1.55s-.69-1.55-1.55-1.55h-7.07c-.86,0-1.55,.69-1.55,1.55s.7,1.55,1.55,1.55h7.07Z"/>
      <path d="M35.79,7.09c0-.86-.69-1.55-1.55-1.55s-1.55,.69-1.55,1.55,.69,1.55,1.55,1.55,1.55-.7,1.55-1.55Z"/>
      <path d="M81.61,30.6c.22,.34,.58,.53,.96,.53,.21,0,.42-.06,.6-.17,.53-.33,.69-1.03,.35-1.56l-3.02-4.79c-.33-.53-1.03-.69-1.56-.35-.53,.33-.69,1.03-.35,1.56l3.02,4.79Z"/>
      <path d="M97.09,30.95c.19,.12,.4,.17,.6,.17,.38,0,.75-.19,.96-.53l3.02-4.79c.33-.53,.17-1.23-.36-1.56-.53-.33-1.23-.17-1.56,.36l-3.02,4.79c-.33,.53-.17,1.23,.36,1.56Z"/>
      <path d="M118.77,47.38l-1.97-3.48c-.31-.54-1-.74-1.54-.43s-.74,1-.43,1.54l1.97,3.48c.1,.17,.07,.34,.05,.43-.02,.08-.09,.23-.25,.32l-3.03,1.68c-.27,.15-.62,.06-.77-.2l-.77-1.36s0-.01-.01-.02l-7.97-14.1c-.1-.17-.07-.34-.05-.42,.02-.08,.09-.23,.25-.32l3.04-1.68c.27-.15,.62-.06,.77,.2l1.78,3.14c.31,.54,1,.74,1.54,.43,.54-.31,.74-1,.43-1.54l-1.78-3.14c-.76-1.34-2.48-1.82-3.84-1.07l-3.04,1.68c-.66,.36-1.13,.96-1.34,1.69-.19,.69-.12,1.4,.19,2.03l-1.67,.48c-.71,.21-1.15,.32-1.39,.32h0c-.17,0-.35-.06-.86-.26-.23-.09-.52-.2-.88-.32l-2.96-1.04c-1.64-.57-2.38-.54-3.45-.44l-5.06,.45c-2.3,.2-3.77,.72-4.59,1.63l-2.88-.83c.31-.63,.38-1.33,.19-2.01-.21-.73-.68-1.33-1.34-1.69l-3.04-1.68c-1.36-.75-3.08-.27-3.84,1.07l-8.75,15.47c-.37,.66-.47,1.43-.26,2.16,.21,.73,.68,1.33,1.34,1.69l3.04,1.68c.43,.24,.91,.35,1.37,.35,.99,0,1.95-.51,2.47-1.43l.32-.57c.88,.39,1.61,.95,2.11,1.61-.49,.57-.8,1.28-.88,2.05-.11,1.01,.17,2.01,.81,2.8,.63,.79,1.53,1.28,2.54,1.4-.11,1.01,.18,1.99,.81,2.78,.65,.81,1.57,1.29,2.53,1.4-.11,1,.18,1.99,.81,2.77,.63,.79,1.53,1.29,2.54,1.4-.11,1.01,.18,1.99,.81,2.78,.75,.94,1.86,1.43,2.98,1.43,.84,0,1.68-.27,2.38-.83l2.37-1.9c.19-.15,.36-.32,.51-.5l1.36,1.08c.7,.56,1.54,.83,2.37,.83,1.12,0,2.23-.49,2.98-1.43,.4-.5,.65-1.06,.76-1.65,.4,.14,.81,.21,1.24,.21,.14,0,.29,0,.43-.02,1.02-.11,1.92-.61,2.55-1.4,.63-.79,.92-1.77,.81-2.78,.96-.11,1.88-.59,2.54-1.4,.65-.81,.91-1.81,.81-2.78,1.01-.12,1.91-.61,2.53-1.4,.64-.79,.92-1.79,.81-2.8-.09-.77-.39-1.48-.88-2.05,.5-.66,1.23-1.22,2.11-1.61l.32,.57c.52,.91,1.48,1.43,2.47,1.43,.47,0,.94-.11,1.37-.35l3.03-1.68c.66-.36,1.13-.96,1.34-1.69,.21-.73,.12-1.5-.26-2.16Zm-51.31,3.34c-.15,.26-.5,.35-.77,.21l-3.04-1.68c-.17-.09-.23-.24-.25-.32-.02-.08-.05-.25,.05-.43l8.75-15.47c.1-.18,.29-.28,.49-.28,.1,0,.19,.02,.28,.07l3.04,1.68s0,0,0,0c.17,.09,.23,.24,.25,.32,.02,.08,.05,.25-.05,.43l-8.75,15.47Zm8.27,5.83c-.32,.26-.72,.37-1.14,.33-.41-.05-.78-.25-1.04-.57-.26-.32-.37-.72-.33-1.14,.05-.41,.25-.78,.57-1.03l4.24-3.39c.67-.53,1.64-.42,2.17,.24,.26,.32,.37,.72,.33,1.13-.05,.41-.25,.78-.57,1.03,0,0-.01,.01-.02,.02l-4.22,3.38s0,0,0,0Zm1.17,3.94c-.26-.32-.37-.72-.33-1.13,.05-.41,.25-.78,.57-1.04h0s0,0,0,0l6.11-4.88c.67-.53,1.64-.42,2.17,.24,.26,.32,.37,.72,.33,1.13-.05,.41-.25,.78-.57,1.04l-6.11,4.88c-.67,.53-1.64,.42-2.17-.24Zm4.38,4.75c-.41-.05-.78-.25-1.04-.57-.26-.32-.37-.72-.33-1.13,.05-.41,.25-.78,.57-1.03h0s4.23-3.38,4.23-3.38c0,0,.01,0,.02-.01,.66-.53,1.64-.42,2.17,.24,.26,.32,.37,.72,.33,1.14-.05,.41-.25,.78-.57,1.03l-4.24,3.39c-.32,.26-.72,.37-1.14,.33Zm7.42,.92c-.05,.41-.25,.78-.57,1.03l-2.37,1.9c-.67,.53-1.64,.43-2.17-.24-.26-.32-.37-.72-.33-1.13,.05-.41,.25-.78,.57-1.03,0,0,0,0,0,0l2.37-1.9s0,0,0,0c.67-.53,1.64-.42,2.17,.24,.25,.32,.37,.72,.32,1.13Zm17.98-9.84c-.26,.32-.62,.52-1.04,.57-.41,.05-.82-.07-1.14-.33t0,0h0s-3.03-2.42-3.03-2.42c-.49-.39-1.2-.31-1.59,.18-.39,.49-.31,1.2,.18,1.59l3.03,2.42c.66,.53,.77,1.51,.25,2.17-.53,.67-1.51,.77-2.17,.24l-3.29-2.62c-.49-.39-1.2-.31-1.59,.18-.39,.49-.31,1.2,.18,1.59l3.29,2.62c.32,.26,.52,.62,.57,1.04,.05,.41-.07,.81-.33,1.13-.25,.32-.62,.52-1.03,.57-.41,.05-.82-.07-1.14-.32l-1.64-1.31s0,0,0,0l-1.38-1.11-.26-.21c-.49-.39-1.2-.31-1.59,.18-.05,.06-.09,.13-.13,.19-.16,.32-.16,.7,0,1.01,.07,.15,.17,.28,.31,.39l1.65,1.32c.66,.53,.77,1.5,.24,2.16-.53,.67-1.51,.77-2.17,.24l-1.87-1.49c.08-.97-.21-1.92-.82-2.68-.38-.47-.85-.83-1.36-1.07,.38-.52,.62-1.14,.69-1.8,.11-1.01-.17-2.01-.81-2.81-.38-.47-.85-.83-1.36-1.07,.38-.52,.62-1.14,.69-1.8,.11-1.01-.17-2.01-.81-2.8-1.09-1.36-2.93-1.78-4.47-1.13-.12-.56-.37-1.1-.74-1.56-1.31-1.64-3.71-1.91-5.36-.6l-3.03,2.43c-.69-.88-1.62-1.6-2.72-2.12l6.24-11.04,3.32,.96c.02,.18,.04,.36,.09,.56,.8,3.31,3.85,4.85,7.95,4.02,3.45-.7,4.87,.34,7.7,2.4,.29,.21,.6,.44,.92,.66,2.04,1.46,4.21,3.18,5.67,4.34l3.68,2.94c.32,.26,.52,.62,.57,1.03,.05,.41-.07,.81-.33,1.13Zm-.04-4.91l-2.47-1.97c-1.48-1.18-3.68-2.92-5.76-4.41-.32-.23-.62-.44-.9-.66-2.94-2.14-5.06-3.68-9.49-2.79-1.36,.27-4.59,.59-5.3-2.34-.1-.41,0-.56,.04-.62,.15-.21,.76-.73,3.15-.94l5.06-.45c.82-.08,1.24-.11,2.5,.33l2.97,1.04c.33,.12,.59,.22,.83,.3,1.43,.54,1.81,.54,3.68,0l2.19-.63,6.23,11.02c-1.1,.52-2.04,1.24-2.72,2.12Z"/>
      <path d="M113.31,41.16c.63,0,1.13-.51,1.13-1.13s-.51-1.13-1.13-1.13-1.13,.51-1.13,1.13h0c0,.63,.51,1.13,1.13,1.13Z"/>
      <path d="M92.99,73.98v5.92c0,3.25-2.64,5.89-5.89,5.89h-6.05v11.06c0,5.01-4.07,9.08-9.08,9.08H9.08c-5,0-9.08-4.07-9.08-9.08V20.74c0-.85,.7-1.55,1.55-1.55s1.55,.7,1.55,1.55V96.84c0,3.29,2.68,5.98,5.98,5.98h62.9c3.29,0,5.98-2.68,5.98-5.98v-11.06h-3.07v3.58c0,.85-.7,1.55-1.55,1.55H7.73c-.86,0-1.55-.7-1.55-1.55v-11.83c0-.86,.69-1.55,1.55-1.55s1.55,.69,1.55,1.55v10.28h62.49v-2.03h-10.29c-3.25,0-5.89-2.65-5.89-5.89V30.56c0-.56,.45-1.01,1-1.01s1,.45,1,1.01v49.33c0,2.14,1.74,3.88,3.88,3.88h25.62c2.13,0,3.88-1.74,3.88-3.88v-5.92h2.01Z"/>
      <path d="M77.6,20.7h-4.58c-.56,0-1.01,.45-1.01,1.01s.45,1.01,1.01,1.01h4.58c.55,0,1.01-.45,1.01-1.01s-.45-1.01-1.01-1.01Z"/>
    </g>
  </g>
</svg>