<svg xmlns="http://www.w3.org/2000/svg" viewBox="0 0 39.44 34.88"><g id="Layer_2" data-name="Layer 2"><g id="Layer_1-2" data-name="Layer 1"><path d="M25.67,9.81V4a4,4,0,0,0-4-4H4A4,4,0,0,0,0,4v27a4,4,0,0,0,4,4H21.7a4,4,0,0,0,4-4v-.78h-1.8v.78a2.17,2.17,0,0,1-2.17,2.16H4A2.17,2.17,0,0,1,1.8,30.92V4A2.17,2.17,0,0,1,4,1.8H21.7A2.17,2.17,0,0,1,23.87,4V9.81Zm-1.76,1.33h0v.79h1.8v-.8Z"/><path d="M22.66,9.81h.58V4.16A1.35,1.35,0,0,0,21.9,2.82H3.77A1.35,1.35,0,0,0,2.43,4.16V30.68A1.34,1.34,0,0,0,3.77,32H21.9a1.34,1.34,0,0,0,1.34-1.34v-.54h-.58a2.38,2.38,0,0,1-.46,0v.58a.3.3,0,0,1-.3.3H3.77a.3.3,0,0,1-.3-.3V4.16a.3.3,0,0,1,.3-.3H21.9a.3.3,0,0,1,.3.3V9.85A3.57,3.57,0,0,1,22.66,9.81Z"/><path d="M26.08,11.54a.4.4,0,0,1-.4.4H23.87a.39.39,0,0,1-.36-.4.38.38,0,0,1,.36-.39h1.81A.4.4,0,0,1,26.08,11.54Z"/><path d="M27,9.81h-4.3a3.57,3.57,0,0,0-.46,0,2.75,2.75,0,0,0-2.3,2.72V27.38a2.75,2.75,0,0,0,2.3,2.72,2.38,2.38,0,0,0,.46,0H27a2.75,2.75,0,0,0,2.76-2.76V12.57A2.76,2.76,0,0,0,27,9.81Zm2.26,17.77A1.92,1.92,0,0,1,27.3,29.5H22.2a1.93,1.93,0,0,1-1.8-1.92V12.37a1.91,1.91,0,0,1,1.8-1.91h5.1a1.92,1.92,0,0,1,1.92,1.92Z"/><path d="M26.08,11.54a.4.4,0,0,1-.4.4H23.87a.39.39,0,0,1-.36-.4.38.38,0,0,1,.36-.39h1.81A.4.4,0,0,1,26.08,11.54Z"/><path d="M26.08,11.54a.4.4,0,0,1-.4.4H23.87a.39.39,0,0,1-.36-.4.38.38,0,0,1,.36-.39h1.81A.4.4,0,0,1,26.08,11.54Z"/><path d="M39.21,11.09a1.81,1.81,0,0,1-1.8-1.8.23.23,0,1,0-.45,0,1.81,1.81,0,0,1-1.8,1.8.22.22,0,0,0-.22.22.22.22,0,0,0,.22.23,1.81,1.81,0,0,1,1.8,1.8.22.22,0,0,0,.23.22.22.22,0,0,0,.22-.22,1.81,1.81,0,0,1,1.8-1.8.23.23,0,1,0,0-.45Zm-2,1.27a2.37,2.37,0,0,0-1-1,2.35,2.35,0,0,0,1-1,2.28,2.28,0,0,0,1,1A2.3,2.3,0,0,0,37.19,12.36Z"/><path d="M30.84,4.34a1.12,1.12,0,0,1-1.12-1.12.23.23,0,1,0-.45,0,1.12,1.12,0,0,1-1.12,1.12.23.23,0,1,0,0,.45,1.13,1.13,0,0,1,1.12,1.13.22.22,0,0,0,.23.22.22.22,0,0,0,.22-.22,1.13,1.13,0,0,1,1.12-1.13.23.23,0,1,0,0-.45Zm-1.34.77A1.64,1.64,0,0,0,29,4.57,1.64,1.64,0,0,0,29.5,4a1.55,1.55,0,0,0,.54.54A1.55,1.55,0,0,0,29.5,5.11Z"/><circle cx="34.2" cy="9.13" r="0.22"/><path d="M34.8,8.62a.22.22,0,0,0,.3.08,3.81,3.81,0,0,1,1.95-.53.23.23,0,1,0,0-.45A3.83,3.83,0,0,1,33.23,3.9a.23.23,0,1,0-.45,0A3.83,3.83,0,0,1,29,7.72a.23.23,0,1,0,0,.45A3.83,3.83,0,0,1,32.78,12a.22.22,0,0,0,.22.22.22.22,0,0,0,.23-.22,3.81,3.81,0,0,1,.53-2,.23.23,0,0,0-.08-.31.24.24,0,0,0-.31.08,4.92,4.92,0,0,0-.37.81,4.28,4.28,0,0,0-2.67-2.68A4.26,4.26,0,0,0,33,5.26a4.3,4.3,0,0,0,2.68,2.68,4.92,4.92,0,0,0-.81.37.23.23,0,0,0-.07.31Z"/></g></g></svg>