<?xml version="1.0" encoding="UTF-8"?>
<svg xmlns="http://www.w3.org/2000/svg" viewBox="0 0 35.66 36.22">
  <defs>
    <style>
      .cls-1 {
        isolation: isolate;
      }

      .cls-2 {
        mix-blend-mode: multiply;
      }

      .cls-3 {
        fill: #010101;
      }
    </style>
  </defs>
  <g class="cls-1">
    <g id="Layer_2" data-name="Layer 2">
      <g id="Layer_1-2" data-name="Layer 1">
        <g>
          <g class="cls-2">
            <g>
              <path class="cls-3" d="M27.72,3.1v3.08h-1.06V3.1c0-1.13-.92-2.04-2.04-2.04H3.1C1.98,1.06,1.06,1.98,1.06,3.1v1.87c0,.29-.24,.53-.53,.53s-.53-.24-.53-.53v-1.87C0,1.39,1.39,0,3.1,0H24.61c1.71,0,3.1,1.39,3.1,3.1Z"/>
              <path class="cls-3" d="M27.72,28.94v4.17c0,1.71-1.39,3.1-3.1,3.1H3.1c-1.71,0-3.1-1.39-3.1-3.1V7.09c0-.29,.24-.53,.53-.53s.53,.24,.53,.53v26.02c0,1.13,.92,2.04,2.04,2.04H24.61c1.13,0,2.04-.92,2.04-2.04v-4.17h1.06Z"/>
            </g>
            <path class="cls-3" d="M25.61,4.34v1.84h-1.06v-1.31H3.17V24.39c0,.29-.24,.53-.53,.53s-.53-.24-.53-.53V4.34c0-.29,.24-.53,.53-.53H25.08c.29,0,.53,.24,.53,.53Z"/>
            <path class="cls-3" d="M25.61,28.94v1.61c0,.29-.24,.53-.53,.53H2.64c-.29,0-.53-.24-.53-.53v-4.05c0-.29,.24-.53,.53-.53s.53,.24,.53,.53v3.52H24.55v-1.08h1.06Z"/>
            <path class="cls-3" d="M13.86,31.38c-.89,0-1.62,.72-1.62,1.62s.73,1.62,1.62,1.62,1.62-.73,1.62-1.62-.73-1.62-1.62-1.62Zm0,2.17c-.3,0-.56-.25-.56-.56s.25-.56,.56-.56,.56,.25,.56,.56-.25,.56-.56,.56Z"/>
            <path class="cls-3" d="M16.15,2.96c.29,0,.53-.24,.53-.53s-.24-.53-.53-.53h-2.42c-.29,0-.53,.24-.53,.53s.24,.53,.53,.53h2.42Z"/>
            <circle class="cls-3" cx="11.71" cy="2.42" r=".53"/>
          </g>
          <path class="cls-3" d="M31.48,20.73c0,.33-.27,.6-.61,.6h-7.33l1.01,.93,1.06,.99,.34,.32-.34,.37-.24,.25-.82-.77-2.9-2.7,2.9-2.7,.82-.77,.24,.25,.34,.37-.34,.32-1.06,.98-1.01,.94h7.33c.34,0,.61,.27,.61,.61Z"/>
          <g>
            <path class="cls-3" d="M35.66,15.95l-3.73,3.46-.58-.62,2.41-2.24h-7.33c-.33,0-.6-.27-.6-.61s.27-.6,.6-.6h7.33l-2.41-2.24,.58-.62,3.73,3.47Z"/>
            <path class="cls-3" d="M29.56,12.92v-4.78c0-.75-.61-1.36-1.36-1.36h-7.37c-.75,0-1.36,.61-1.36,1.36V26.98c0,.75,.61,1.36,1.36,1.36h7.37c.75,0,1.36-.61,1.36-1.36v-3.67h.6v3.67c0,1.08-.88,1.96-1.97,1.96h-7.37c-1.08,0-1.96-.88-1.96-1.96V8.15c0-1.08,.88-1.97,1.96-1.97h7.37c1.08,0,1.97,.88,1.97,1.97v4.78h-.6Z"/>
            <path class="cls-3" d="M25.96,7.55c0,.11-.05,.22-.12,.29-.06,.06-.14,.1-.23,.12-.02,0-.04,0-.06,0h-2.07c-.23,0-.41-.19-.41-.41,0-.11,.05-.22,.12-.29,.07-.07,.18-.12,.29-.12h2.07s.04,0,.06,0c.2,.03,.35,.2,.35,.41Z"/>
          </g>
        </g>
      </g>
    </g>
  </g>
</svg>