<svg xmlns="http://www.w3.org/2000/svg" viewBox="0 0 42.04 42.04"><defs><style>.cls-1{fill:#010101;}</style></defs><g id="Layer_2" data-name="Layer 2"><g id="Layer_1-2" data-name="Layer 1"><path class="cls-1" d="M15.52,28.18H9.81V26a2,2,0,0,0-2-2H5.57V17.47a3.28,3.28,0,0,1,3.27-3.28H16a.67.67,0,0,0,.66-.66.65.65,0,0,0-.66-.65H8.84a4.59,4.59,0,0,0-4.6,4.59V24H2a2,2,0,0,0-2,2v5.88a2,2,0,0,0,2,2H7.84a2,2,0,0,0,2-2V29.49h5.71a.66.66,0,0,0,.65-.66A.65.65,0,0,0,15.52,28.18Zm-7,3.67a.66.66,0,0,1-.66.65H2a.66.66,0,0,1-.66-.65V26A.66.66,0,0,1,2,25.32H7.84A.66.66,0,0,1,8.5,26Z"/><path class="cls-1" d="M27.91,36.8H20.4l1.93-1.42a.66.66,0,1,0-.77-1.06L18,36.93l0,0-.1.1a.86.86,0,0,1-.07.1l0,.1a.41.41,0,0,0,0,.16s0,0,0,0,0,0,0,.06l0,.15a.54.54,0,0,0,.07.13s0,0,0,.05,0,0,0,0l.05.06L18,38l3.53,2.6a.64.64,0,0,0,.91-.14.64.64,0,0,0-.14-.91l-1.92-1.43h7.5a.67.67,0,0,0,.66-.66A.66.66,0,0,0,27.91,36.8Z"/><path class="cls-1" d="M2.91,5.93l1.53,1a.65.65,0,0,0,.9-.2L7.11,3.8a.66.66,0,0,0-.22-.91.65.65,0,0,0-.9.23L4.58,5.45l-1-.63a.66.66,0,0,0-.7,1.11Z"/><path class="cls-1" d="M39.12,11.11a.66.66,0,0,0-.9.23l-1.41,2.33-1-.63a.66.66,0,0,0-.71,1.11l1.54,1a.65.65,0,0,0,.9-.2L39.34,12A.66.66,0,0,0,39.12,11.11Z"/><path class="cls-1" d="M6.89,26.89a.66.66,0,0,0-.9.23L4.58,29.45l-1-.62a.65.65,0,0,0-.7,1.1l1.53,1a.66.66,0,0,0,.9-.21L7.11,27.8A.66.66,0,0,0,6.89,26.89Z"/><path class="cls-1" d="M40.07,32.23H37.79v-.77a3.22,3.22,0,0,0-1-2.32,3.36,3.36,0,0,0-2.36-1H26.17a.66.66,0,0,0-.66.65.67.67,0,0,0,.66.66h8.28a2.08,2.08,0,0,1,1.43.59,2,2,0,0,1,.59,1.38v.77H34.19a2,2,0,0,0-2,2V36.8h-1.4a.65.65,0,0,0-.65.65.66.66,0,0,0,.65.66h1.4v2a2,2,0,0,0,2,2h5.88a2,2,0,0,0,2-2V34.19A2,2,0,0,0,40.07,32.23Zm.66,7.84a.67.67,0,0,1-.66.66H34.19a.66.66,0,0,1-.65-.66V34.19a.65.65,0,0,1,.65-.65h5.88a.66.66,0,0,1,.66.65Z"/><path class="cls-1" d="M39.12,35.12a.64.64,0,0,0-.9.23l-1.41,2.32-1-.62a.65.65,0,0,0-.71,1.1l1.54,1a.65.65,0,0,0,.9-.21L39.34,36A.65.65,0,0,0,39.12,35.12Z"/><path class="cls-1" d="M23.79,23.79A3.91,3.91,0,1,0,21,24.94,3.91,3.91,0,0,0,23.79,23.79ZM18.41,21a2.63,2.63,0,1,1,.77,1.84A2.56,2.56,0,0,1,18.41,21Z"/><path class="cls-1" d="M19.15,29.31a.67.67,0,0,0,.65.56h2.43a.65.65,0,0,0,.65-.54l.32-1.82a6.82,6.82,0,0,0,2.35-1.36l1.72.63a.65.65,0,0,0,.81-.29l1.19-2a.67.67,0,0,0-.12-.88l-1.43-1.19c0-.15.06-.31.09-.46,0-.3.05-.6.05-.89s0-.59-.05-.89,0-.31-.09-.46l1.43-1.2a.64.64,0,0,0,.15-.82c-.11-.18-1.22-2.11-1.22-2.11a.67.67,0,0,0-.79-.29l-1.74.64a6.65,6.65,0,0,0-1.11-.8,7.33,7.33,0,0,0-1.24-.56l-.32-1.79a.64.64,0,0,0-.65-.57H19.8a.64.64,0,0,0-.64.54l-.33,1.82a7.6,7.6,0,0,0-1.23.56,5.84,5.84,0,0,0-1.1.8l-1.73-.63a.66.66,0,0,0-.81.28L12.77,17.6a.68.68,0,0,0,.12.88l1.42,1.19c0,.15-.06.3-.08.46s-.05.6-.05.89,0,.59.05.89c0,.15,0,.31.08.46l-1.42,1.19a.67.67,0,0,0-.15.83c.4.7.81,1.39,1.21,2.08a.64.64,0,0,0,.8.31l1.75-.63a6.32,6.32,0,0,0,1.1.8,8,8,0,0,0,1.23.56Zm-2-4.38a.68.68,0,0,0-.69-.15l-1.6.59c-.22-.38-.45-.77-.66-1.16l1.3-1.1a.63.63,0,0,0,.21-.68,6,6,0,0,1-.13-.69,4.21,4.21,0,0,1,0-.72,5.61,5.61,0,0,1,.19-1.43.66.66,0,0,0-.22-.67l-1.31-1.1.67-1.15,1.6.59a.67.67,0,0,0,.7-.17,5.69,5.69,0,0,1,1.14-.86,5.4,5.4,0,0,1,1.33-.55.66.66,0,0,0,.47-.52l.3-1.68h1.32l.3,1.68a.67.67,0,0,0,.5.53,5.17,5.17,0,0,1,1.31.54,6,6,0,0,1,1.14.87.65.65,0,0,0,.68.16l1.61-.59c.22.38.45.77.66,1.15l-1.3,1.1a.64.64,0,0,0-.21.69,4.28,4.28,0,0,1,.13.68,5.71,5.71,0,0,1,.05.73,5.55,5.55,0,0,1-.05.72,3.57,3.57,0,0,1-.14.71.65.65,0,0,0,.22.66l1.3,1.1-.66,1.16-1.61-.59a.65.65,0,0,0-.7.17,5.56,5.56,0,0,1-1.12.86,5.47,5.47,0,0,1-1.34.55.67.67,0,0,0-.47.53l-.3,1.67H20.36l-.3-1.67a.66.66,0,0,0-.5-.54,4.82,4.82,0,0,1-1.3-.54A5.48,5.48,0,0,1,17.11,24.93Z"/><path class="cls-1" d="M40.07,8.22H37.79V7.53a3.28,3.28,0,0,0-3.28-3.28H14.33a.66.66,0,0,0,0,1.32H34.51a2,2,0,0,1,1.39.57,2,2,0,0,1,.57,1.39v.69H34.19a2,2,0,0,0-2,2v2.68H26.42a.66.66,0,0,0,0,1.32h5.81v1.88a2,2,0,0,0,2,2h5.88a2,2,0,0,0,2-2V10.19A2,2,0,0,0,40.07,8.22Zm.66,7.85a.66.66,0,0,1-.66.65H34.19a.65.65,0,0,1-.65-.65V10.19a.66.66,0,0,1,.65-.66h5.88a.67.67,0,0,1,.66.66Z"/><path class="cls-1" d="M2,9.81H7.84a2,2,0,0,0,2-2V5.57h1.41a.67.67,0,0,0,0-1.33H9.81V2a2,2,0,0,0-2-2H2A2,2,0,0,0,0,2V7.84A2,2,0,0,0,2,9.81ZM1.31,2A.67.67,0,0,1,2,1.31H7.84A.67.67,0,0,1,8.5,2V7.84a.67.67,0,0,1-.66.66H2a.67.67,0,0,1-.66-.66Z"/></g></g></svg>