<?xml version="1.0" encoding="UTF-8"?>
<svg id="Layer_2" data-name="Layer 2" xmlns="http://www.w3.org/2000/svg" viewBox="0 0 280.37 159.83">
  <defs>
    <style>
      .cls-1 {
        stroke-width: 1.84px;
      }

      .cls-1, .cls-2 {
        fill: none;
        stroke: #000;
        stroke-miterlimit: 10;
      }

      .cls-2 {
        stroke-width: 3.93px;
      }

      .cls-3 {
        fill: #221f1f;
      }

      .cls-4 {
        fill: #231f20;
      }
    </style>
  </defs>
  <g id="Layer_1-2" data-name="Layer 1">
    <g>
      <g>
        <g>
          <path class="cls-1" d="M215.01,110.07c-1.71,.36-3.29,.75-4.89,1.01-.81,.13-1.15,.48-1.29,1.26-.27,1.56-.62,3.1-1.01,4.97-1.08-1.41-2.04-2.57-2.9-3.8-3.54-5.13-5.85-10.79-6.71-16.95-1.68-11.99,1.22-22.81,8.95-32.19,6.64-8.06,15.24-12.88,25.57-14.34,11.2-1.59,21.4,1.1,30.53,7.8,.54,.4,.7,.8,.53,1.46-.35,1.34-.57,2.72-.93,4.05-.09,.33-.47,.75-.79,.83-1.64,.4-3.3,.75-4.97,1.02-.47,.07-1.08-.07-1.48-.33-5.54-3.61-11.62-5.38-18.21-5.11-12.47,.51-23.2,8.35-27.44,19.69-3.66,9.82-2.49,19.15,3.1,27.97,.56,.88,1.23,1.69,1.94,2.66Z"/>
          <path class="cls-1" d="M262.31,70.62c1.57-.32,3.14-.68,4.74-.94,.88-.14,1.25-.55,1.39-1.42,.24-1.5,.6-2.97,.91-4.46,.11-.05,.23-.1,.34-.15,1.5,2.23,3.13,4.38,4.47,6.7,4.1,7.09,5.81,14.81,5.17,22.94-.98,12.49-6.56,22.57-16.65,30.03-7.66,5.67-16.34,8.18-25.87,7.79-8.46-.35-16.04-3.13-22.82-8.15-.52-.38-.73-.74-.54-1.43,.36-1.34,.61-2.71,.86-4.07,.12-.62,.45-.9,1.05-1.01,1.47-.27,2.94-.5,4.38-.88,.82-.22,1.4-.02,2.07,.42,4.47,2.95,9.39,4.72,14.75,4.94,13.17,.53,23.04-5.05,29.31-16.56,3.83-7.04,4.39-14.62,2.24-22.37-1.1-3.97-2.97-7.55-5.56-10.75-.08-.1-.16-.22-.21-.34-.03-.05,0-.13,0-.28Z"/>
          <path d="M226.32,93.11v8.39h-5.9v-22.96c.14-.04,.27-.1,.4-.1,3.36,.04,6.73,.02,10.09,.16,3.08,.13,5.56,2.16,6.19,4.85,.8,3.41-.24,6.4-2.81,7.94-.54,.33-1.18,.51-1.87,.8,2.17,2.83,4.32,5.64,6.54,8.54,1.04-1.11,2.04-2.16,3.02-3.22,2-2.17,4.01-4.34,5.98-6.54,1.29-1.44,2.18-3.1,2.37-5.07,.19-1.94-1.53-3.59-3.27-3.09-1.05,.3-1.7,1.19-1.77,2.46-.02,.37,0,.74,0,1.18h-6.48c-.34-4.71,3.35-8.69,8.13-8.89,2.46-.1,4.74,.37,6.7,1.93,3.57,2.85,4.12,8.16,1.1,11.72-1.38,1.62-3.03,3.01-4.57,4.49-.16,.16-.41,.22-.62,.32,.07,.11,.14,.23,.21,.34h7.11v5.15c-.37,.02-.7,.05-1.03,.05-7.62,0-15.24,0-22.86,.02-.74,0-1.16-.24-1.54-.86-1.6-2.58-3.25-5.14-4.87-7.7-.08,.03-.17,.06-.25,.09Zm.03-4.18c1.16-.21,2.2-.28,3.16-.6,1.07-.36,1.51-1.28,1.51-2.4,0-1.07-.41-1.97-1.44-2.34-.81-.29-1.7-.38-2.57-.47-.2-.02-.63,.32-.63,.51-.05,1.68-.03,3.36-.03,5.3Z"/>
        </g>
        <g>
          <path class="cls-4" d="M235.03,114.53l-2.62-7.5h1.48l1.89,5.93h.09l1.87-5.93h1.43l-2.59,7.5h-1.54Z"/>
          <path class="cls-4" d="M242.04,110.17h.91c.77,0,1.3-.47,1.3-1.14,0-.61-.47-1.1-1.27-1.1s-1.33,.42-1.38,1.15h-1.26c.07-1.33,1.09-2.25,2.71-2.25s2.49,.93,2.49,2.01c0,.9-.57,1.51-1.37,1.72v.09c1.02,.16,1.66,.82,1.66,1.83,0,1.29-1.21,2.23-2.83,2.23s-2.75-.89-2.81-2.26h1.28c.06,.69,.64,1.13,1.51,1.13s1.47-.48,1.47-1.2-.56-1.2-1.49-1.2h-.94v-1.02Z"/>
        </g>
      </g>
      <g>
        <path class="cls-2" d="M238.42,139.72v6.44c0,6.46-5.24,11.7-11.7,11.7h-51.83c-6.46,0-11.7-5.24-11.7-11.7V13.66c0-6.46,5.24-11.7,11.7-11.7h51.83c6.46,0,11.7,5.24,11.7,11.7V47.04"/>
        <rect x="190.57" y="6.58" width="20.34" height="5.78" rx="2.89" ry="2.89"/>
      </g>
      <g>
        <polyline class="cls-1" points="76.91 143.22 76.91 148.94 .92 148.94 .92 23.89 76.91 23.89 76.91 143.26"/>
        <rect class="cls-1" x="76.84" y="133.74" width="10.68" height="7.1"/>
        <rect class="cls-1" x="87.69" y="129.64" width="3.96" height="14.55"/>
      </g>
      <g>
        <path class="cls-3" d="M142.02,123.02h-50.5c-1.35,0-2.46-1.1-2.46-2.46V33.63c0-1.35,1.1-2.45,2.46-2.45h26.02c1.35,0,2.46,1.1,2.46,2.45V98.01c0,.32,.26,.59,.59,.59h21.43c1.35,0,2.46,1.1,2.46,2.46v19.51c0,1.35-1.1,2.46-2.46,2.46ZM91.52,33.04c-.32,0-.59,.26-.59,.59V120.56c0,.32,.26,.59,.59,.59h50.5c.32,0,.59-.27,.59-.59v-19.51c0-.32-.26-.59-.59-.59h-21.43c-1.35,0-2.46-1.1-2.46-2.46V33.63c0-.32-.26-.59-.59-.59h-26.02Z"/>
        <g>
          <path class="cls-3" d="M148.95,74.43h-18.2c-1.35,0-2.44-1.1-2.44-2.44V21.24c0-1.35,1.1-2.44,2.44-2.44h18.2c1.35,0,2.44,1.09,2.44,2.44v50.75c0,1.35-1.1,2.44-2.44,2.44Zm-18.2-53.77c-.32,0-.57,.26-.57,.57v50.75c0,.32,.26,.58,.57,.58h18.2c.32,0,.57-.26,.57-.58V21.24c0-.32-.26-.57-.57-.57h-18.2Z"/>
          <path class="cls-3" d="M144.66,27.17h-11.11v-3.33h11.11v3.33Zm-10.48-.62h9.86v-2.08h-9.86v2.08Z"/>
          <path class="cls-3" d="M148.23,49.51h-16.43v-16.43h16.43v16.43Zm-15.81-.62h15.19v-15.19h-15.19v15.19Z"/>
          <path class="cls-3" d="M140.33,69.28h-8.53v-5.11h8.53v5.11Zm-7.9-.62h7.28v-3.86h-7.28v3.86Z"/>
          <path class="cls-3" d="M132.89,53.47c-.71,0-1.29-.58-1.29-1.29s.58-1.29,1.29-1.29,1.29,.58,1.29,1.29-.58,1.29-1.29,1.29Zm0-1.96c-.37,0-.67,.3-.67,.67s.3,.67,.67,.67,.67-.3,.67-.67-.3-.67-.67-.67Z"/>
          <path class="cls-3" d="M146.94,53.47c-.71,0-1.29-.58-1.29-1.29s.58-1.29,1.29-1.29,1.29,.58,1.29,1.29-.58,1.29-1.29,1.29Zm0-1.96c-.37,0-.67,.3-.67,.67s.3,.67,.67,.67,.67-.3,.67-.67-.3-.67-.67-.67Z"/>
          <path class="cls-3" d="M146.94,31.7c-.71,0-1.29-.58-1.29-1.29s.58-1.29,1.29-1.29,1.29,.58,1.29,1.29-.58,1.29-1.29,1.29Zm0-1.96c-.37,0-.67,.3-.67,.67s.3,.67,.67,.67,.67-.3,.67-.67-.3-.67-.67-.67Z"/>
          <path class="cls-3" d="M146.94,67.78c-.71,0-1.29-.58-1.29-1.29s.58-1.29,1.29-1.29,1.29,.58,1.29,1.29-.58,1.29-1.29,1.29Zm0-1.96c-.37,0-.67,.3-.67,.67s.3,.67,.67,.67,.67-.3,.67-.67-.3-.67-.67-.67Z"/>
        </g>
      </g>
      <g id="iINB3t">
        <g>
          <path class="cls-3" d="M97.63,71.09c.02-1.12,.24-2.24,.98-3.19,.97-1.25,2.28-1.7,3.82-1.57,.48,.04,.93,.2,1.36,.41,.59,.29,1.16,.3,1.76,.03,.72-.32,1.47-.49,2.26-.46,1.24,.04,2.27,.5,3.08,1.45,.09,.11,.08,.15-.03,.24-.65,.48-1.19,1.06-1.48,1.83-.45,1.24-.23,2.88,1.22,3.96,.23,.17,.46,.33,.72,.45,.07,.04,.09,.07,.06,.16-.5,1.36-1.24,2.57-2.33,3.55-.34,.31-.73,.54-1.19,.65-.31,.08-.6-.02-.89-.08-.34-.08-.66-.21-.98-.34-.77-.32-1.53-.29-2.31-.03-.43,.14-.84,.35-1.29,.44-.49,.1-.93-.01-1.35-.23-.54-.29-.94-.73-1.31-1.21-1.3-1.68-2.1-3.97-2.12-6.03Z"/>
          <path class="cls-3" d="M107.76,63.02c0,1.59-1.12,3.04-2.64,3.41-.18,.04-.36,.06-.55,.07-.11,0-.15-.03-.16-.14-.05-.45-.01-.89,.17-1.31,.53-1.24,1.42-2.09,2.77-2.38,.49-.1,.38-.12,.41,.35Z"/>
        </g>
      </g>
    </g>
  </g>
</svg>