<?xml version="1.0" encoding="UTF-8"?>
<svg id="Layer_2" data-name="Layer 2" xmlns="http://www.w3.org/2000/svg" viewBox="0 0 41.06 22.63">
  <defs>
    <style>
      .cls-1 {
        fill: #fff;
      }

      .cls-2 {
        fill: #221f1f;
      }

      .cls-3 {
        fill: #231f20;
      }

      .cls-4 {
        fill: #010101;
      }
    </style>
  </defs>
  <g id="Layer_1-2" data-name="Layer 1">
    <g>
      <polygon class="cls-2" points="20.28 14.1 16.91 14.1 16.91 4.56 12.78 4.56 12.78 17.31 16.91 17.31 16.91 17.28 20.28 17.28 20.28 14.1"/>
      <g>
        <g>
          <path d="M28.42,17.38l-.21-.28c-.06-.08-.12-.16-.18-.23-.12-.15-.23-.29-.33-.44-.65-.94-1.05-1.96-1.2-3.04-.3-2.17,.24-4.11,1.61-5.77,1.19-1.44,2.73-2.31,4.59-2.57,1.99-.28,3.83,.19,5.47,1.4,.15,.11,.2,.25,.15,.43-.03,.11-.05,.22-.08,.33-.03,.13-.05,.25-.09,.38-.03,.1-.13,.23-.26,.26-.32,.08-.61,.14-.89,.18-.12,.02-.27-.01-.37-.08-.96-.62-2-.92-3.1-.87-2.11,.09-3.94,1.4-4.67,3.35-.61,1.64-.44,3.24,.53,4.76,.06,.1,.14,.19,.21,.3,.04,.05,.08,.1,.12,.16l.15,.2-.24,.05c-.09,.02-.18,.04-.26,.06-.21,.05-.4,.09-.61,.12-.07,.01-.08,.02-.09,.09-.03,.19-.07,.39-.12,.59-.02,.09-.04,.19-.06,.29l-.07,.35Zm5.36-12.1c-.35,0-.7,.03-1.05,.08-1.77,.25-3.24,1.08-4.38,2.46-1.31,1.59-1.83,3.45-1.53,5.52,.14,1.03,.53,2.01,1.15,2.9,.09,.13,.19,.25,.29,.39,.04-.19,.07-.36,.1-.53,.04-.21,.15-.32,.36-.35,.19-.03,.38-.07,.59-.12,0,0,.01,0,.02,0-.07-.09-.14-.18-.2-.28-1.02-1.61-1.21-3.31-.56-5.05,.77-2.07,2.72-3.47,4.96-3.56,1.17-.05,2.28,.26,3.29,.92,.04,.03,.1,.04,.15,.03,.27-.04,.55-.1,.86-.18,0,0,.02-.02,.02-.03,.03-.12,.06-.24,.08-.36,.02-.12,.05-.23,.08-.35,.01-.05,.01-.05-.03-.09-1.28-.94-2.68-1.41-4.18-1.41Z"/>
          <path d="M33.75,19.59c-.11,0-.23,0-.34,0-1.49-.06-2.87-.55-4.09-1.46-.1-.07-.22-.19-.15-.42,.06-.21,.1-.43,.14-.64v-.06c.04-.17,.15-.27,.32-.31l.13-.02c.21-.04,.42-.08,.63-.13,.22-.06,.37,.02,.49,.1,.79,.52,1.63,.8,2.5,.84,2.25,.09,3.93-.86,4.99-2.82,.63-1.16,.76-2.44,.38-3.8-.18-.66-.5-1.28-.95-1.83-.02-.03-.04-.06-.06-.09-.02-.05-.02-.09-.02-.11v-.13l.13-.04c.08-.02,.16-.03,.24-.05,.19-.04,.39-.08,.6-.12,.08-.01,.1-.02,.11-.12,.03-.19,.07-.38,.11-.56,.02-.08,.03-.15,.05-.23l.02-.08,.25-.11,.08,.11c.08,.12,.17,.24,.25,.36,.18,.26,.37,.54,.54,.82,.73,1.27,1.04,2.65,.93,4.12-.18,2.24-1.18,4.05-2.99,5.38-1.26,.93-2.71,1.41-4.3,1.41Zm-3.22-2.75s-.04,0-.07,.01c-.22,.06-.44,.1-.65,.13l-.13,.02s-.05,.01-.05,.05v.06c-.05,.22-.09,.45-.15,.67,0,.03,0,.04,0,.04,0,0,0,.01,.04,.04,1.17,.87,2.49,1.34,3.91,1.4,1.65,.07,3.15-.38,4.44-1.34,1.73-1.28,2.69-3.01,2.86-5.15,.11-1.4-.19-2.72-.89-3.93-.16-.27-.34-.54-.52-.8-.03-.04-.06-.08-.08-.12-.04,.16-.07,.33-.1,.49-.04,.23-.16,.35-.38,.38-.19,.03-.39,.07-.58,.11,0,0-.02,0-.03,0,.43,.56,.74,1.17,.92,1.84,.4,1.45,.26,2.81-.41,4.04-1.13,2.08-2.91,3.09-5.29,2.99-.93-.04-1.83-.34-2.67-.89-.07-.04-.11-.06-.16-.06Z"/>
          <path d="M31.58,12.75v1.47h-1.04v-4.03s.05-.02,.07-.02c.59,0,1.18,0,1.77,.03,.54,.02,.97,.38,1.09,.85,.14,.6-.04,1.12-.49,1.39-.1,.06-.21,.09-.33,.14,.38,.5,.76,.99,1.15,1.5,.18-.2,.36-.38,.53-.57,.35-.38,.7-.76,1.05-1.15,.23-.25,.38-.54,.42-.89,.03-.34-.27-.63-.57-.54-.18,.05-.3,.21-.31,.43,0,.07,0,.13,0,.21h-1.14c-.06-.83,.59-1.52,1.43-1.56,.43-.02,.83,.07,1.17,.34,.63,.5,.72,1.43,.19,2.06-.24,.28-.53,.53-.8,.79-.03,.03-.07,.04-.11,.06,.01,.02,.02,.04,.04,.06h1.25v.9c-.06,0-.12,0-.18,0-1.34,0-2.67,0-4.01,0-.13,0-.2-.04-.27-.15-.28-.45-.57-.9-.85-1.35-.01,0-.03,.01-.04,.02Zm0-.73c.2-.04,.39-.05,.55-.11,.19-.06,.26-.23,.26-.42,0-.19-.07-.35-.25-.41-.14-.05-.3-.07-.45-.08-.04,0-.11,.06-.11,.09,0,.29,0,.59,0,.93Z"/>
        </g>
        <g>
          <path class="cls-3" d="M33.11,16.51l-.46-1.32h.26l.33,1.04h.02l.33-1.04h.25l-.45,1.32h-.27Z"/>
          <path class="cls-3" d="M34.34,15.75h.16c.13,0,.23-.08,.23-.2,0-.11-.08-.19-.22-.19s-.23,.07-.24,.2h-.22c.01-.23,.19-.39,.48-.39s.44,.16,.44,.35c0,.16-.1,.26-.24,.3v.02c.18,.03,.29,.14,.29,.32,0,.23-.21,.39-.5,.39s-.48-.16-.49-.4h.23c.01,.12,.11,.2,.27,.2s.26-.08,.26-.21-.1-.21-.26-.21h-.16v-.18Z"/>
        </g>
      </g>
      <g>
        <path class="cls-4" d="M32.21,22.63h-7.38c-1.04,0-1.89-.85-1.89-1.89V1.89c0-1.04,.85-1.89,1.89-1.89h7.38c1.04,0,1.89,.85,1.89,1.89v2.94h-.45V1.89c0-.79-.65-1.44-1.44-1.44h-7.38c-.79,0-1.44,.65-1.44,1.44V20.74c0,.79,.65,1.44,1.44,1.44h7.38c.79,0,1.44-.65,1.44-1.44v-.92h.45v.92c0,1.04-.85,1.89-1.89,1.89Z"/>
        <rect class="cls-4" x="27.07" y=".88" width="2.89" height=".82" rx=".41" ry=".41"/>
      </g>
      <g>
        <g>
          <polyline class="cls-2" points="10.89 20.32 10.89 21.14 .08 21.14 .08 3.34 10.89 3.34 10.89 20.33"/>
          <path class="cls-4" d="M10.97,21.22H0V3.26H10.97V21.22Zm-10.81-.16H10.81V3.42H.16V21.06Z"/>
        </g>
        <rect class="cls-4" x="10.88" y="18.97" width="1.52" height="1.01"/>
        <rect class="cls-4" x="12.43" y="18.39" width=".56" height="2.07"/>
      </g>
      <g>
        <path class="cls-4" d="M20.16,17.45h-7.19c-.19,0-.35-.16-.35-.35V4.73c0-.19,.16-.35,.35-.35h3.7c.19,0,.35,.16,.35,.35V13.89s.04,.08,.08,.08h3.05c.19,0,.35,.16,.35,.35v2.78c0,.19-.16,.35-.35,.35ZM12.97,4.65s-.08,.04-.08,.08v12.37s.04,.08,.08,.08h7.19s.08-.04,.08-.08v-2.78s-.04-.08-.08-.08h-3.05c-.19,0-.35-.16-.35-.35V4.73s-.04-.08-.08-.08h-3.7Z"/>
        <g>
          <path class="cls-2" d="M21.14,10.54h-2.59c-.19,0-.35-.16-.35-.35V2.97c0-.19,.16-.35,.35-.35h2.59c.19,0,.35,.16,.35,.35v7.22c0,.19-.16,.35-.35,.35Zm-2.59-7.65s-.08,.04-.08,.08v7.22s.04,.08,.08,.08h2.59s.08-.04,.08-.08V2.97s-.04-.08-.08-.08h-2.59Z"/>
          <path class="cls-2" d="M20.54,3.81h-1.58v-.47h1.58v.47Zm-1.49-.09h1.4v-.3h-1.4v.3Z"/>
          <path class="cls-2" d="M21.04,6.99h-2.34v-2.34h2.34v2.34Zm-2.25-.09h2.16v-2.16h-2.16v2.16Z"/>
          <path class="cls-2" d="M19.92,9.8h-1.21v-.73h1.21v.73Zm-1.12-.09h1.04v-.55h-1.04v.55Z"/>
          <path class="cls-2" d="M18.86,7.55c-.1,0-.18-.08-.18-.18s.08-.18,.18-.18,.18,.08,.18,.18-.08,.18-.18,.18Zm0-.28c-.05,0-.1,.04-.1,.1s.04,.1,.1,.1,.1-.04,.1-.1-.04-.1-.1-.1Z"/>
          <path class="cls-2" d="M20.86,7.55c-.1,0-.18-.08-.18-.18s.08-.18,.18-.18,.18,.08,.18,.18-.08,.18-.18,.18Zm0-.28c-.05,0-.1,.04-.1,.1s.04,.1,.1,.1,.1-.04,.1-.1-.04-.1-.1-.1Z"/>
          <path class="cls-2" d="M20.86,4.45c-.1,0-.18-.08-.18-.18s.08-.18,.18-.18,.18,.08,.18,.18-.08,.18-.18,.18Zm0-.28c-.05,0-.1,.04-.1,.1s.04,.1,.1,.1,.1-.04,.1-.1-.04-.1-.1-.1Z"/>
          <path class="cls-2" d="M20.86,9.59c-.1,0-.18-.08-.18-.18s.08-.18,.18-.18,.18,.08,.18,.18-.08,.18-.18,.18Zm0-.28c-.05,0-.1,.04-.1,.1s.04,.1,.1,.1,.1-.04,.1-.1-.04-.1-.1-.1Z"/>
        </g>
      </g>
      <g id="iINB3t">
        <path class="cls-1" d="M13.84,10.06c0-.16,.03-.32,.14-.45,.14-.18,.32-.24,.54-.22,.07,0,.13,.03,.19,.06,.08,.04,.17,.04,.25,0,.1-.05,.21-.07,.32-.07,.18,0,.32,.07,.44,.21,.01,.02,.01,.02,0,.03-.09,.07-.17,.15-.21,.26-.06,.18-.03,.41,.17,.56,.03,.02,.07,.05,.1,.06,.01,0,.01,.01,0,.02-.07,.19-.18,.37-.33,.5-.05,.04-.1,.08-.17,.09-.04,.01-.09,0-.13-.01-.05-.01-.09-.03-.14-.05-.11-.05-.22-.04-.33,0-.06,.02-.12,.05-.18,.06-.07,.01-.13,0-.19-.03-.08-.04-.13-.1-.19-.17-.18-.24-.3-.56-.3-.86Z"/>
        <path class="cls-1" d="M15.28,8.91c0,.23-.16,.43-.38,.48-.03,0-.05,0-.08,.01-.02,0-.02,0-.02-.02,0-.06,0-.13,.02-.19,.08-.18,.2-.3,.39-.34,.07-.01,.05-.02,.06,.05Z"/>
      </g>
    </g>
  </g>
</svg>