<?xml version="1.0" encoding="UTF-8"?>
<svg xmlns="http://www.w3.org/2000/svg" viewBox="0 0 40.38 35.9">
  <defs>
    <style>
      .cls-1 {
        isolation: isolate;
      }

      .cls-2 {
        mix-blend-mode: multiply;
      }

      .cls-3 {
        fill-rule: evenodd;
      }
    </style>
  </defs>
  <g class="cls-1">
    <g id="Layer_2" data-name="Layer 2">
      <g id="Layer_1-2" data-name="Layer 1">
        <g>
          <g class="cls-2">
            <path d="M24.32,17.88v.08s.02-.03,.03-.04c-.01-.01-.02-.02-.03-.04Zm0,0v.08s.02-.03,.03-.04c-.01-.01-.02-.02-.03-.04Zm0,0v.08s.02-.03,.03-.04c-.01-.01-.02-.02-.03-.04ZM11.6,1.88c-.29,0-.53,.24-.53,.53s.24,.53,.53,.53,.53-.23,.53-.53-.23-.53-.53-.53Zm2.13,29.22c-.88,0-1.6,.72-1.6,1.6s.72,1.6,1.6,1.6,1.6-.72,1.6-1.6-.72-1.6-1.6-1.6Zm0,2.15c-.3,0-.55-.25-.55-.55s.25-.55,.55-.55,.55,.25,.55,.55-.25,.55-.55,.55ZM16,1.88h-2.4c-.29,0-.53,.24-.53,.53s.24,.53,.53,.53h2.4c.29,0,.53-.23,.53-.53s-.23-.53-.53-.53Zm8.32,16v.08s.02-.03,.03-.04c-.01-.01-.02-.02-.03-.04Zm.5,.82c-.01,.09,0,.17,.03,.25v-.37s-.03,.08-.03,.13Zm.03-5.08v.06l.03-.05s-.02,0-.03,0Zm-.53,4.26v.08s.02-.03,.03-.04c-.01-.01-.02-.02-.03-.04Zm0,0v.08s.02-.03,.03-.04c-.01-.01-.02-.02-.03-.04Zm0,0v.08s.02-.03,.03-.04c-.01-.01-.02-.02-.03-.04Z"/>
            <path d="M31.51,25.07v2c0,1.1-.89,1.99-1.99,1.99h-8.68c-1.1,0-2-.89-2-1.99V10.36c0-.19,.15-.34,.34-.34s.34,.15,.34,.34V27.07c0,.73,.59,1.31,1.31,1.31h8.68c.72,0,1.31-.59,1.31-1.31v-2h.68Z"/>
            <path d="M24.35,17.92s-.02,.02-.03,.04v-.08s.02,.02,.03,.04Z"/>
            <path d="M24.85,18.57v.37c-.03-.08-.04-.16-.03-.25,0-.04,.01-.09,.03-.13Z"/>
            <path d="M25.38,29.07v1.21c0,.29-.24,.53-.53,.53H2.62c-.29,0-.53-.24-.53-.53v-4.01c0-.29,.24-.53,.53-.53s.53,.23,.53,.53v3.48H24.32v-.69h1.05Z"/>
            <g>
              <path d="M27.47,29.07v3.75c0,1.7-1.38,3.08-3.08,3.08H3.08c-1.7,0-3.08-1.38-3.08-3.08V7.03c0-.29,.23-.53,.53-.53s.53,.24,.53,.53v25.79c0,1.12,.91,2.03,2.03,2.03H24.39c1.12,0,2.03-.91,2.03-2.03v-3.75h1.05Z"/>
              <path d="M27.47,3.08v2.72h-1.05V3.08c0-1.12-.91-2.03-2.03-2.03H3.08C1.96,1.05,1.05,1.96,1.05,3.08v1.85c0,.29-.24,.53-.53,.53s-.53-.23-.53-.53v-1.85C0,1.38,1.38,0,3.08,0H24.39c1.7,0,3.08,1.38,3.08,3.08Z"/>
              <path d="M25.38,4.31v1.49h-1.05v-.97H3.14V24.17c0,.29-.23,.53-.53,.53s-.53-.24-.53-.53V4.31c0-.29,.24-.53,.53-.53H24.85c.29,0,.53,.24,.53,.53Z"/>
              <path d="M24.88,13.62l-.03,.05v-.06s.02,0,.03,0Z"/>
              <path d="M24.35,17.92s-.02,.02-.03,.04v-.08s.02,.02,.03,.04Z"/>
              <path d="M24.85,18.57v.37c-.03-.08-.04-.16-.03-.25,0-.04,.01-.09,.03-.13Z"/>
              <path d="M13.73,31.1c-.88,0-1.6,.72-1.6,1.6s.72,1.6,1.6,1.6,1.6-.72,1.6-1.6-.72-1.6-1.6-1.6Zm0,2.15c-.3,0-.55-.25-.55-.55s.25-.55,.55-.55,.55,.25,.55,.55-.25,.55-.55,.55Z"/>
              <path d="M16.53,2.4c0,.29-.23,.53-.53,.53h-2.4c-.29,0-.53-.23-.53-.53s.24-.53,.53-.53h2.4c.29,0,.53,.24,.53,.53Z"/>
              <path d="M12.13,2.4c0,.29-.23,.53-.53,.53s-.53-.23-.53-.53,.24-.53,.53-.53,.53,.24,.53,.53Z"/>
            </g>
          </g>
          <g class="cls-2">
            <g>
              <path d="M32.9,10.49c.06,.04,.13,.06,.2,.06,.13,0,.25-.06,.33-.18l1.02-1.62c.11-.18,.06-.42-.12-.53-.18-.11-.42-.06-.53,.12l-1.02,1.62c-.11,.18-.06,.42,.12,.53Z"/>
              <path d="M38.4,13.95c.21,0,.38-.17,.38-.38s-.17-.38-.38-.38-.38,.17-.38,.38h0c0,.21,.17,.38,.38,.38Z"/>
            </g>
          </g>
          <g>
            <path d="M24.32,17.88v.08s.02-.03,.03-.04c-.01-.01-.02-.02-.03-.04Zm.5,.82c-.01,.09,0,.17,.03,.25v-.37s-.03,.08-.03,.13Zm.03-5.08v.06l.03-.05s-.02,0-.03,0Z"/>
            <path d="M31.51,7.79v3.12h-.68v-3.12c0-.73-.59-1.31-1.31-1.31h-8.68c-.73,0-1.31,.59-1.31,1.31v1.2c0,.19-.15,.34-.34,.34s-.34-.15-.34-.34v-1.2c0-1.1,.9-2,2-2h8.68c1.1,0,1.99,.9,1.99,2Z"/>
          </g>
          <path class="cls-3" d="M24.85,13.62v.06l.03-.05s-.02,0-.03,0Zm-.03,5.08c-.01,.09,0,.17,.03,.25v-.37s-.03,.08-.03,.13Zm-.5-.82v.08s.02-.03,.03-.04c-.01-.01-.02-.02-.03-.04Z"/>
          <path class="cls-3" d="M26.64,7.36s0,.03,0,.05c0,.02,0,.03-.01,.04,0,.02-.01,.03-.02,.05,0,.02-.02,.03-.03,.05,0,.01-.02,.03-.03,.04,0,0-.01,.01-.02,.02-.01,.01-.03,.02-.04,.03-.02,.02-.05,.03-.07,.04,0,0-.01,0-.02,0-.01,0-.02,0-.04,.01-.02,0-.04,0-.06,0h-1.55c-.19,0-.34-.15-.34-.34s.15-.34,.34-.34h1.55s.04,0,.06,0c.02,0,.04,0,.05,.02t0,0s.02,0,.03,.01c.01,0,.02,0,.03,.02,.01,0,.02,.01,.03,.02,.04,.03,.08,.08,.1,.13,0,0,.01,.02,.01,.03,0,0,0,.01,0,.02,0,.01,0,.02,.01,.04,0,.02,0,.04,0,.06Z"/>
          <path class="cls-3" d="M28.19,10.49c-.06,.04-.13,.06-.2,.06-.13,0-.25-.06-.33-.18l-.19-.3-.53-.83-.31-.49c-.11-.18-.06-.42,.12-.53,.06-.04,.12-.06,.19-.06,.13,0,.26,.06,.34,.18l.19,.29,.84,1.33c.11,.18,.06,.42-.12,.53Z"/>
          <path class="cls-3" d="M40.25,16.06l-.67-1.18c-.1-.18-.34-.25-.52-.14-.18,.11-.25,.34-.14,.52l.67,1.18c.03,.06,.02,.12,.02,.15,0,.03-.03,.08-.09,.11l-1.03,.57c-.09,.05-.21,.02-.26-.07l-.26-.46s0,0,0,0l-2.7-4.78c-.03-.06-.02-.12-.02-.14,0-.03,.03-.08,.09-.11l1.03-.57c.09-.05,.21-.02,.26,.07l.6,1.06c.1,.19,.34,.25,.52,.14,.19-.1,.25-.34,.14-.52l-.6-1.06c-.26-.46-.84-.62-1.3-.36l-1.03,.57c-.22,.12-.39,.33-.45,.57-.07,.23-.04,.47,.07,.69l-.57,.16c-.24,.07-.39,.11-.47,.11-.06,0-.12-.02-.29-.09-.08-.03-.18-.07-.3-.11l-1-.35c-.33-.12-.56-.16-.76-.17-.14,0-.26,0-.41,.02l-1.71,.15c-.74,.07-1.23,.23-1.51,.51-.01,.01-.03,.03-.04,.04h-.03s-.53-.16-.53-.16l-.42-.12c.11-.21,.13-.45,.06-.68-.03-.12-.09-.23-.17-.33-.08-.1-.17-.18-.29-.24l-.76-.42-.27-.15c-.08-.04-.17-.08-.25-.09-.18-.04-.36-.03-.53,.03-.21,.07-.4,.22-.52,.43l-2.96,5.24c-.13,.22-.16,.48-.09,.73,.07,.25,.23,.45,.45,.57l1.03,.57c.15,.08,.31,.12,.46,.12,.34,0,.66-.18,.84-.48l.11-.19c.28,.12,.52,.3,.68,.51,.01,.01,.02,.02,.03,.04-.01,.01-.02,.02-.03,.04-.15,.19-.24,.41-.27,.65-.04,.34,.06,.68,.27,.94,0,0,0,0,0,0,.14,.18,.32,.31,.52,.39,.11,.04,.22,.07,.34,.09-.03,.29,.03,.57,.19,.82,.02,.04,.06,.08,.09,.12,.22,.28,.53,.44,.86,.47-.02,.22,0,.44,.09,.64,.04,.11,.1,.21,.18,.3,.1,.12,.22,.22,.35,.3,.15,.09,.33,.15,.51,.17-.01,.12,0,.25,.01,.37,.01,.08,.04,.17,.07,.24,.05,.12,.11,.23,.19,.33,.25,.32,.63,.48,1.01,.48,.28,0,.57-.09,.81-.28l.8-.64c.06-.05,.12-.11,.17-.17l.46,.37c.06,.05,.12,.09,.19,.13,.19,.1,.41,.15,.62,.15,.38,0,.76-.17,1.01-.48,.13-.17,.22-.36,.26-.56,.13,.05,.28,.07,.42,.07,.05,0,.1,0,.15,0,.34-.04,.65-.21,.87-.48,.21-.26,.31-.6,.28-.94,.33-.04,.64-.2,.86-.47,.22-.28,.31-.62,.27-.94,.34-.04,.65-.21,.86-.47,.21-.27,.31-.61,.28-.95-.03-.26-.13-.5-.3-.69,.17-.23,.42-.42,.72-.55l.11,.19c.18,.31,.5,.48,.84,.48,.16,0,.32-.04,.46-.12l1.03-.57c.22-.12,.38-.33,.45-.57,.07-.25,.04-.51-.09-.73Zm-17.39,1.13c-.05,.09-.17,.12-.26,.07l-1.03-.57c-.06-.03-.08-.08-.09-.11,0-.03-.02-.09,.02-.14l2.82-4.99,.15-.26c.03-.06,.1-.09,.16-.09,.03,0,.07,0,.1,.02l.12,.07,.53,.29,.38,.21c.06,.03,.08,.08,.09,.11,0,.03,.02,.09-.02,.14l-.95,1.68-.03,.05-.53,.93-1.46,2.58Zm2.51,2.09s-.06,0-.1,0c-.14-.01-.26-.08-.35-.19-.03-.04-.06-.09-.08-.14-.03-.08-.04-.16-.03-.25,0-.04,.01-.09,.03-.13,.03-.09,.09-.16,.16-.22l.36-.29,1.04-.83,.03-.03c.14-.11,.33-.14,.49-.09,.09,.03,.18,.09,.24,.17,.09,.11,.13,.24,.11,.38-.01,.14-.08,.26-.19,.35,0,0,0,0,0,0l-.15,.12-.53,.42-.75,.6c-.08,.07-.18,.11-.29,.11Zm1.42,1.3c-.11,.09-.25,.12-.38,.11-.13-.01-.26-.08-.35-.19-.09-.11-.12-.24-.11-.39,.02-.14,.08-.26,.19-.35h0l.27-.22,.53-.42,.53-.42,.07-.06,.68-.54c.23-.18,.56-.14,.74,.08,.09,.11,.13,.24,.11,.39-.01,.14-.08,.26-.19,.35l-1.33,1.07-.07,.06-.53,.42-.14,.11Zm.75,1.53s0,0-.01,0c-.02,0-.05,0-.07-.01-.11-.03-.2-.09-.27-.18-.09-.11-.13-.24-.11-.39,.01-.14,.08-.26,.19-.35l.19-.15,.07-.06,1.17-.94s0,0,0,0c.22-.18,.56-.14,.74,.08,.09,.11,.13,.25,.11,.39-.01,.14-.08,.26-.19,.35l-1.44,1.15c-.11,.09-.24,.13-.39,.11Zm2.52,.31c-.02,.14-.08,.26-.19,.35l-.8,.64c-.23,.18-.56,.14-.74-.08-.09-.11-.13-.24-.11-.38,.02-.14,.08-.26,.19-.35l.8-.64h0c.22-.18,.55-.14,.74,.08,.09,.11,.12,.24,.11,.38Zm6.09-3.34c-.09,.11-.21,.18-.35,.19-.14,.02-.28-.02-.39-.11l-1.03-.82c-.17-.13-.41-.11-.54,.06-.13,.17-.11,.41,.06,.54l1.03,.82c.22,.18,.26,.51,.08,.74-.18,.22-.51,.26-.74,.08l-1.11-.89c-.17-.13-.41-.11-.54,.06-.13,.17-.11,.41,.06,.54l1.11,.89c.11,.09,.18,.21,.19,.35,.02,.14-.02,.28-.11,.39-.09,.11-.21,.18-.35,.19-.14,.02-.28-.02-.39-.11l-.55-.44s0,0,0,0l-.47-.37-.09-.07c-.17-.13-.41-.11-.54,.06-.02,.02-.03,.04-.04,.07-.06,.11-.06,.23,0,.34,.02,.05,.06,.09,.11,.13l.56,.45c.22,.18,.26,.51,.08,.73-.18,.23-.51,.26-.74,.08l-.29-.23-.34-.27c.03-.33-.07-.65-.28-.91-.13-.16-.29-.28-.46-.36,.13-.18,.21-.39,.23-.61,.04-.34-.06-.68-.28-.95-.13-.16-.29-.28-.46-.36,.13-.18,.21-.39,.23-.61,.04-.34-.06-.68-.27-.95-.37-.46-.99-.6-1.52-.38-.04-.19-.13-.37-.25-.53-.07-.09-.16-.17-.25-.24-.02-.02-.05-.03-.07-.05-.16-.1-.34-.17-.53-.19-.18-.02-.35-.01-.53,.04-.16,.04-.31,.12-.45,.23l-.59,.47-.43,.35s-.06-.07-.09-.11c-.15-.17-.33-.32-.53-.44-.1-.06-.2-.12-.31-.17l.31-.54,.53-.93,.53-.93,.76-1.34,.28,.08,.53,.15,.32,.09c0,.06,.01,.12,.03,.19,.04,.17,.1,.33,.18,.47,.02,.04,.04,.08,.07,.12,.45,.71,1.33,1,2.45,.77,.49-.1,.86-.09,1.19,0,.47,.12,.86,.41,1.42,.82,.1,.07,.2,.15,.31,.22,.69,.5,1.43,1.08,1.92,1.47l1.25,.99c.11,.09,.18,.21,.19,.35,.01,.14-.02,.28-.11,.39Zm-.01-1.66l-.84-.67c-.5-.4-1.25-.99-1.95-1.5-.11-.08-.21-.15-.31-.22-.65-.47-1.17-.86-1.88-.99-.38-.07-.81-.07-1.34,.04-.46,.09-1.55,.2-1.8-.79-.03-.14,0-.19,.01-.21,.05-.07,.26-.25,1.07-.32l1.71-.15c.13-.01,.23-.02,.34-.01,.13,0,.28,.04,.51,.12l1,.35c.11,.04,.2,.07,.28,.1,.48,.18,.61,.18,1.25,0l.74-.21,2.11,3.74c-.37,.18-.69,.42-.92,.72Z"/>
        </g>
      </g>
    </g>
  </g>
</svg>